<?xml version="1.0" standalone="no"?>
<!DOCTYPE svg PUBLIC "-//W3C//DTD SVG 1.1//EN" "http://www.w3.org/Graphics/SVG/1.1/DTD/svg11.dtd" >
<svg xmlns="http://www.w3.org/2000/svg" xmlns:xlink="http://www.w3.org/1999/xlink" version="1.1">
<metadata>
Created by FontForge 20201107 at Sun Jun 21 22:25:35 2020
 By 
Copyright 2020 The Cowboy Collective (https://cowboycollective.cc)
</metadata>
<defs>
<font id="CopperplateCC" horiz-adv-x="810" >
  <font-face 
    font-family="Copperplate CC"
    font-weight="400"
    font-stretch="normal"
    units-per-em="1000"
    panose-1="0 0 0 0 0 0 0 0 0 0"
    ascent="800"
    descent="-200"
    x-height="700"
    cap-height="700"
    bbox="-379.201 -302.798 1698 1042.8"
    underline-thickness="50"
    underline-position="-125"
    unicode-range="U+000D-2122"
  />
<missing-glyph horiz-adv-x="500" 
d="M50 -200h400v1000h-400v-1000zM100 -150v900h300v-900h-300z" />
    <glyph glyph-name=".notdef" horiz-adv-x="500" 
d="M50 -200h400v1000h-400v-1000zM100 -150v900h300v-900h-300z" />
    <glyph glyph-name="uni0000" horiz-adv-x="400" 
 />
    <glyph glyph-name="uni0000" horiz-adv-x="400" 
 />
    <glyph glyph-name="uni000D" unicode="&#xd;" horiz-adv-x="400" 
 />
    <glyph glyph-name="space" unicode=" " horiz-adv-x="400" 
 />
    <glyph glyph-name="exclam" unicode="!" horiz-adv-x="350" 
d="M140 195v15h9l-38 475h-21v15h170v-15h-21l-38 -475h9v-15h-70zM105 55q0 29 19.5 49.5t50.5 20.5t50.5 -20.5t19.5 -49.5q0 -28 -19.5 -49t-50.5 -21t-50.5 21t-19.5 49z" />
    <glyph glyph-name="quotedbl" unicode="&#x22;" horiz-adv-x="455" 
d="M250 735v15h155v-15h-21l-19 -235h-75l-19 235h-21zM50 735v15h155v-15h-21l-19 -235h-75l-19 235h-21z" />
    <glyph glyph-name="numbersign" unicode="#" horiz-adv-x="605" 
d="M67 0v15h21l30 165h-73v-20h-15v125h15v-20h89l33 175h-92v-20h-15v125h15v-20h108l29 160h-19v15h135v-15h-21l-29 -160h115l29 160h-19v15h135v-15h-21l-29 -160h72v20h15v-125h-15v20h-88l-33 -175h91v20h15v-125h-15v20h-107l-30 -165h19v-15h-135v15h21l30 165h-115
l-30 -165h19v-15h-135zM229 265h115l33 175h-115z" />
    <glyph glyph-name="dollar" unicode="$" horiz-adv-x="765" 
d="M120 181l13 -8l-9 -14q35 -23 81 -42.5t100 -29.5v233q-97 18 -152.5 60.5t-55.5 120.5q0 82 54.5 133.5t153.5 68.5v37h40v-32q26 2 55 2q23 0 45 -2v32h40v-37q63 -11 111.5 -34.5t90.5 -53.5l6 10l13 -8l-70 -105l-13 8l9 14q-24 21 -62.5 41t-84.5 32v-215
q67 -9 119 -27.5t81.5 -55.5t29.5 -99q0 -61 -30 -105t-82 -71t-118 -38v-76h-40v72q-22 -2 -45 -2q-28 0 -55 2v-72h-40v76q-82 11 -140 36.5t-91 51.5l-11 -16l-13 8zM428 398q9 -1 17 -2v220q-28 4 -55 4q-23 0 -45 -3v-210q19 -2 40 -4.5t43 -4.5zM202 507q0 -39 28 -60
t75 -32v195q-46 -12 -74.5 -38.5t-28.5 -64.5zM398 308q-28 2 -53 6v-233q25 -3 50 -3q26 0 50 3v223q-11 1 -22.5 2t-24.5 2zM606 206q0 47 -30 66t-91 27v-211q53 14 87 43.5t34 74.5z" />
    <glyph glyph-name="percent" unicode="%" horiz-adv-x="921" 
d="M45 530q0 47 20.5 88t60.5 66.5t97 25.5q58 0 97.5 -25.5t60 -66.5t20.5 -88t-20.5 -88t-60 -66.5t-97.5 -25.5q-57 0 -97 25.5t-60.5 66.5t-20.5 88zM108 0v15h27l536 670h-28v15h170v-15h-27l-536 -670h28v-15h-170zM136 530q0 -38 23 -66.5t64 -28.5t64 28.5t23 66.5
t-23 66.5t-64 28.5t-64 -28.5t-23 -66.5zM520 170q0 47 20.5 88t60.5 66.5t97 25.5q58 0 97.5 -25.5t60 -66.5t20.5 -88t-20.5 -88t-60 -66.5t-97.5 -25.5q-57 0 -97 25.5t-60.5 66.5t-20.5 88zM611 170q0 -38 23 -66.5t64 -28.5t64 28.5t23 66.5t-23 66.5t-64 28.5
t-64 -28.5t-23 -66.5z" />
    <glyph glyph-name="ampersand" unicode="&#x26;" horiz-adv-x="817" 
d="M127 540q0 52 27 91.5t75.5 61.5t110.5 22q63 0 111 -22t75 -61.5t27 -91.5q0 -57 -33 -94.5t-89 -53.5q36 -21 66.5 -50.5t54.5 -63.5q39 61 90 112t125 67v19h15v-140h-15v21q-37 -9 -68 -36.5t-55 -61.5t-41 -65q23 -35 45.5 -55t50.5 -28.5t68 -9.5v20h15v-140h-15
v19q-55 2 -94 14t-68 36t-56 61q-51 -61 -115.5 -91t-138.5 -30q-67 0 -126.5 24.5t-96.5 72.5t-37 117q0 86 46 138.5t114 73.5q-32 20 -50 51t-18 73zM228 535q0 -46 33 -68t79 -22q47 0 79.5 22t32.5 68t-32.5 70.5t-79.5 24.5q-46 0 -79 -24.5t-33 -70.5zM150 213
q0 -64 39 -96t106 -32q62 0 112 27.5t89 78.5q-25 40 -56.5 76.5t-71 59.5t-85.5 23q-56 0 -94.5 -36t-38.5 -101z" />
    <glyph glyph-name="quotesingle" unicode="'" horiz-adv-x="255" 
d="M60 735v15h155v-15h-22l-28 -235h-75l-9 235h-21z" />
    <glyph glyph-name="parenleft" unicode="(" horiz-adv-x="325" 
d="M170 -200v15h26q-42 72 -72.5 142.5t-47 151t-16.5 181.5t16.5 181.5t47 151t72.5 142.5h-26v15h155v-15h-28q-56 -109 -89 -223t-33 -252t33 -252t89 -223h28v-15h-155z" />
    <glyph glyph-name="parenright" unicode=")" horiz-adv-x="325" 
d="M155 -185v-15h-155v15h28q56 109 89 223t33 252t-33 252t-89 223h-28v15h155v-15h-26q42 -72 72.5 -142.5t47 -151t16.5 -181.5t-16.5 -181.5t-47 -151t-72.5 -142.5h26z" />
    <glyph glyph-name="asterisk" unicode="*" horiz-adv-x="483" 
d="M75 402l9 11l17 -13l88 89l-132 22l-7 -22l-15 5l47 143l14 -5l-7 -20l123 -63l-21 136h-22v15h150v-15h-22l-21 -132l119 60l-7 21l15 5l45 -143l-14 -4l-6 20l-127 -20l87 -88l18 13l9 -13l-122 -87l-8 12l17 12l-56 110l-58 -113l18 -13l-10 -12z" />
    <glyph glyph-name="plus" unicode="+" horiz-adv-x="675" 
d="M90 320h15v-20h180v185h-20v15h140v-15h-20v-185h185v20h15v-130h-15v20h-185v-185h20v-15h-140v15h20v185h-180v-20h-15v130z" />
    <glyph glyph-name="comma" unicode="," horiz-adv-x="307" 
d="M75 54q0 31 23 51t54 20q36 0 58 -24.5t22 -66.5q0 -43 -12.5 -81.5t-37 -64.5t-59.5 -34v37q45 27 53 100q-12 -6 -28 -6q-34 0 -53.5 19t-19.5 50z" />
    <glyph glyph-name="hyphen" unicode="-" horiz-adv-x="320" 
d="M20 350h15v-15h250v15h15v-130h-15v15h-250v-15h-15v130z" />
    <glyph glyph-name="period" unicode="." horiz-adv-x="300" 
d="M80 55q0 29 19.5 49.5t50.5 20.5t50.5 -20.5t19.5 -49.5q0 -28 -19.5 -49t-50.5 -21t-50.5 21t-19.5 49z" />
    <glyph glyph-name="slash" unicode="/" horiz-adv-x="665" 
d="M35 15h29l417 670h-31v15h180v-15h-29l-417 -670h31v-15h-180v15z" />
    <glyph glyph-name="zero" unicode="0" 
d="M45 350q0 84 29.5 150.5t80 113.5t115 71.5t135.5 24.5t135.5 -24.5t115 -71.5t80 -113.5t29.5 -150.5t-29.5 -150.5t-80 -113.5t-115 -71.5t-135.5 -24.5t-135.5 24.5t-115 71.5t-80 113.5t-29.5 150.5zM160 350q0 -82 33.5 -140t89.5 -89t122 -31q67 0 122.5 31t89 89
t33.5 140t-33.5 140t-89 89t-122.5 31q-66 0 -122 -31t-89.5 -89t-33.5 -140z" />
    <glyph glyph-name="one" unicode="1" horiz-adv-x="472" 
d="M192 0v15h20v529l-97 -42v-19h-15v151h15v-17l97 42v26h-20v15h160v-15h-20v-670h20v-15h-160z" />
    <glyph glyph-name="two" unicode="2" horiz-adv-x="695" 
d="M30 0q0 72 21.5 124t57.5 89t80 63.5t89 46t84 37.5q21 10 47.5 22.5t51 30.5t40.5 42t16 56q0 46 -35 73t-104 27q-73 0 -131.5 -37t-95.5 -92l15 -15l-10 -11l-101 96l10 11l11 -11q53 72 127 115.5t175 43.5q89 0 144.5 -29t81.5 -75.5t26 -98.5q0 -61 -25.5 -102.5
t-68.5 -70t-96 -51.5q-40 -18 -82.5 -34.5t-81 -36.5t-67.5 -47.5t-42 -65.5h483v20h15v-140h-15v20h-605v-20h-15v20z" />
    <glyph glyph-name="three" unicode="3" horiz-adv-x="747" 
d="M59 84l-14 8l79 125l14 -8l-10 -16q22 -25 58 -49t84.5 -39t109.5 -15q105 0 154 34t49 91q0 64 -65 90.5t-212 26.5v-20h-15v128h15v-20q132 1 185.5 27t53.5 73t-38.5 71.5t-106.5 24.5q-69 0 -132 -33t-100 -83l15 -15l-10 -11l-100 98l10 11l12 -12q52 71 133 105
t166 34t146 -23t94 -62.5t33 -90.5q0 -60 -41 -97.5t-106 -57.5q83 -19 132.5 -60.5t49.5 -112.5q0 -68 -41.5 -116.5t-112 -74t-158.5 -25.5q-89 0 -151 19t-103 45t-67 47z" />
    <glyph glyph-name="four" unicode="4" horiz-adv-x="723" 
d="M443 0v15h20v115h-418v-20h-15v100l415 475h-26v15h174v-15h-20v-455h95v16h15v-140h-15v24h-95v-115h20v-15h-150zM167 230h296v340z" />
    <glyph glyph-name="five" unicode="5" horiz-adv-x="732" 
d="M40 126l91 94l8 -9l-14 -14q21 -23 56.5 -47.5t84 -42t110.5 -17.5q55 0 98.5 17.5t69 51t25.5 81.5t-24.5 80.5t-64 49t-84.5 16.5q-65 0 -126 -18.5t-114 -61.5l10 -10l-8 -9l-91 94l8 9l46 -47l-36 37v305h-20v15h549v20h15v-151h-15v31h-429v-177q17 9 43.5 24t69 27
t104.5 12q80 0 143.5 -30.5t100 -85.5t36.5 -130q0 -84 -40 -139.5t-109 -83t-157 -27.5q-79 0 -142.5 21.5t-108 53t-67.5 62.5l3 3l-13 -13z" />
    <glyph glyph-name="six" unicode="6" horiz-adv-x="694" 
d="M556 547l8 12q-32 18 -75.5 34.5t-94.5 16.5q-71 0 -129 -28.5t-92 -85.5t-35 -141q21 36 59 62t85.5 39.5t97.5 13.5q42 0 90 -12t91 -38.5t70.5 -70.5t27.5 -109q0 -80 -36 -136t-100 -85t-150 -29q-95 0 -172 37t-121.5 112.5t-44.5 190.5q0 117 46 202t129 131.5
t194 46.5q66 0 120.5 -21t94.5 -50l9 13l9 -7l-72 -105zM549 240q0 47 -26.5 75.5t-68 41.5t-86.5 13q-31 0 -65.5 -6.5t-65 -22t-49.5 -42.5t-19 -68q0 -47 28.5 -78.5t75 -47t100.5 -15.5q50 0 89.5 16t63 49t23.5 85z" />
    <glyph glyph-name="seven" unicode="7" horiz-adv-x="679" 
d="M136 0v15h25l368 585h-484v-31h-15v151h15v-20h589v20h15v-119l-357 -586h24v-15h-180z" />
    <glyph glyph-name="eight" unicode="8" horiz-adv-x="746" 
d="M45 195q0 64 43.5 108.5t115.5 67.5q-64 20 -99 57.5t-35 95.5q0 55 38 96.5t106.5 65.5t158.5 24t158.5 -24t106.5 -65.5t38 -96.5q0 -58 -35 -95.5t-99 -57.5q72 -23 115.5 -67.5t43.5 -108.5q0 -59 -41.5 -105.5t-115 -73t-171.5 -26.5q-97 0 -171 26.5t-115.5 73
t-41.5 105.5zM176 521q0 -30 26.5 -54t71 -38t99.5 -14t99.5 14t71 38t26.5 54q0 46 -55.5 70t-141.5 24t-141.5 -24t-55.5 -70zM161 205q0 -57 57.5 -88.5t154.5 -31.5q98 0 155 31.5t57 88.5q0 50 -53.5 87.5t-158.5 37.5t-158.5 -37.5t-53.5 -87.5z" />
    <glyph glyph-name="nine" unicode="9" horiz-adv-x="717" 
d="M116 174l-8 -12q39 -26 95.5 -49t114.5 -23q71 0 130 28.5t94.5 85.5t36.5 141q-21 -36 -59 -62t-85.5 -39.5t-97.5 -13.5q-42 0 -90 12t-91 38.5t-70.5 70.5t-27.5 109q0 80 36 136t100.5 85t149.5 29q96 0 172.5 -37t121 -112.5t44.5 -190.5q0 -117 -44 -202
t-125 -131.5t-192 -46.5q-50 0 -100 13t-94 34t-74 45l-9 -13l-9 7l72 105zM168 460q0 -46 26.5 -75t68.5 -42t86 -13q31 0 65.5 6.5t65 22t49.5 42.5t19 68q0 47 -28.5 78.5t-74.5 47t-101 15.5q-49 0 -89 -16t-63.5 -49t-23.5 -85z" />
    <glyph glyph-name="colon" unicode=":" horiz-adv-x="300" 
d="M80 405q0 29 19.5 49.5t50.5 20.5t50.5 -20.5t19.5 -49.5q0 -28 -19.5 -49t-50.5 -21t-50.5 21t-19.5 49zM80 55q0 29 19.5 49.5t50.5 20.5t50.5 -20.5t19.5 -49.5q0 -28 -19.5 -49t-50.5 -21t-50.5 21t-19.5 49z" />
    <glyph glyph-name="semicolon" unicode=";" horiz-adv-x="300" 
d="M70 54q0 31 23 51t54 20q36 0 58 -24.5t22 -66.5q0 -43 -12.5 -81.5t-37 -64.5t-59.5 -34v37q45 27 53 100q-12 -6 -28 -6q-34 0 -53.5 19t-19.5 50zM80 405q0 29 19.5 49.5t50.5 20.5t50.5 -20.5t19.5 -49.5q0 -28 -19.5 -49t-50.5 -21t-50.5 21t-19.5 49z" />
    <glyph glyph-name="less" unicode="&#x3c;" horiz-adv-x="640" 
d="M65 315h15v-19l480 208v16h15v-130h-15v14l-343 -142l343 -150v13h15v-130h-15v16l-480 208v-19h-15v115z" />
    <glyph glyph-name="equal" unicode="=" horiz-adv-x="615" 
d="M65 405h15v-15h455v15h15v-130h-15v15h-455v-15h-15v130zM65 230h15v-15h455v15h15v-130h-15v15h-455v-15h-15v130z" />
    <glyph glyph-name="greater" unicode="&#x3e;" horiz-adv-x="640" 
d="M80 -5h-15v130h15v-14l343 142l-343 150v-13h-15v130h15v-16l480 -208v19h15v-115h-15v19l-480 -208v-16z" />
    <glyph glyph-name="question" unicode="?" horiz-adv-x="557" 
d="M196 195v15h19q-1 9 -1.5 18t-0.5 19q0 63 15.5 101t38.5 61.5t46 41.5t38.5 40t15.5 58t-25.5 54.5t-65.5 18.5t-77 -24t-64 -68l14 -13l-10 -10l-90 84l10 10l10 -9q35 56 88 87t132 31q53 0 95.5 -19t67.5 -54.5t25 -85.5q0 -42 -13 -69t-33.5 -45.5t-43.5 -35
t-43.5 -37t-33.5 -51.5t-13 -79q0 -4 0.5 -10.5t1.5 -13.5h22v-15h-125zM190 55q0 29 19.5 49.5t50.5 20.5t50.5 -20.5t19.5 -49.5q0 -28 -19.5 -49t-50.5 -21t-50.5 21t-19.5 49z" />
    <glyph glyph-name="at" unicode="@" horiz-adv-x="770" 
d="M5 320q0 82 31 153t86.5 124t130 83t162.5 30t153.5 -27t109 -73t65.5 -103t22 -117q0 -66 -21.5 -111t-55 -72.5t-69 -39.5t-63.5 -12q-35 0 -59.5 20t-34.5 53q-24 -34 -59 -51t-75 -17q-36 0 -70 17.5t-56 51.5t-22 83q0 75 30 123t74.5 71.5t86.5 23.5q32 0 57 -14.5
t41 -37.5l6 42h110v-15h-22l-29 -196q-2 -14 -2 -27q0 -18 7 -32t32 -14q11 0 28.5 6.5t35 23t29 47t11.5 77.5q0 67 -28 120t-85.5 84t-146.5 31q-94 0 -166 -39t-113 -108t-41 -158q0 -115 68 -180t202 -65q50 0 96 8.5t86 28.5l-7 12l11 5l53 -96l-11 -5l-7 13
q-36 -21 -91 -36t-130 -15q-117 0 -197.5 41t-121.5 115.5t-41 173.5zM276 320q0 -37 20 -53.5t52 -16.5q25 0 47 8t36 33.5t14 78.5q0 31 -18.5 50.5t-48.5 19.5q-40 0 -71 -31.5t-31 -88.5z" />
    <glyph glyph-name="A" unicode="A" horiz-adv-x="784" 
d="M0 0v15h17l316 670h-13v15h144v-15h-13l316 -670h17v-15h-157v15h18l-83 185h-340l-83 -185h18v-15h-157zM392 581l-130 -291h260z" />
    <glyph glyph-name="B" unicode="B" horiz-adv-x="803" 
d="M65 0v15h20v670h-20v15h440q109 0 169.5 -49t60.5 -131q0 -65 -31.5 -102.5t-77.5 -55.5q61 -18 94 -62t33 -110q0 -89 -59.5 -139.5t-168.5 -50.5h-460zM485 600h-296v-195h286q68 0 109 21.5t41 78.5q0 40 -18.5 60t-50 27.5t-71.5 7.5zM189 100h311q45 0 77 9t49 33.5
t17 72.5q0 50 -37.5 75t-105.5 25h-311v-215z" />
    <glyph glyph-name="C" unicode="C" horiz-adv-x="875" 
d="M165 350q0 -74 36.5 -133t105.5 -93t168 -34q58 0 110 16t95 41t73 50l-8 11l13 8l77 -110l-13 -8l-8 12q-35 -26 -84 -53.5t-112.5 -47t-142.5 -19.5q-131 0 -226.5 45.5t-147 126.5t-51.5 188t51.5 188t147 126.5t226.5 45.5q78 0 138.5 -16.5t105.5 -40t75 -43.5l6 9
l13 -8l-76 -112l-13 8l9 14q-25 20 -63.5 40.5t-88 34.5t-106.5 14q-99 0 -168 -34t-105.5 -93t-36.5 -133z" />
    <glyph glyph-name="D" unicode="D" horiz-adv-x="852" 
d="M65 0v15h20v670h-20v15h382q102 0 181 -42t124 -120t45 -188q0 -109 -45 -187.5t-124 -120.5t-181 -42h-382zM437 600h-242v-500h242q119 0 179.5 64t60.5 186t-60.5 186t-179.5 64z" />
    <glyph glyph-name="E" unicode="E" horiz-adv-x="746" 
d="M65 0v15h20v670h-20v15h621v15h15v-140h-15v25h-491v-195h321v15h15v-125h-15v15h-321v-210h491v30h15v-140h-15v10h-621z" />
    <glyph glyph-name="F" unicode="F" horiz-adv-x="731" 
d="M65 0v15h20v670h-20v15h621v15h15v-140h-15v25h-491v-195h331v15h15v-125h-15v15h-331v-295h30v-15h-160z" />
    <glyph glyph-name="G" unicode="G" horiz-adv-x="875" 
d="M165 350q0 -79 36.5 -137.5t106 -90.5t167.5 -32q65 0 119 14t96 35v126h-203v-30h-15v140h15v-15h338v-15h-20v-245h20v-15h-20q-34 -21 -78 -43t-105 -37t-147 -15q-122 0 -218 43.5t-151.5 124t-55.5 192.5t55.5 192.5t151.5 124t218 43.5q83 0 143.5 -16.5t103 -39.5
t72.5 -44l6 9l13 -8l-77 -112l-13 8l9 14q-25 20 -63.5 40.5t-87.5 34.5t-106 14q-98 0 -167.5 -32t-106 -90.5t-36.5 -137.5z" />
    <glyph glyph-name="H" unicode="H" horiz-adv-x="835" 
d="M65 0v15h20v670h-20v15h155v-15h-20v-280h435v280h-20v15h155v-15h-20v-670h20v-15h-155v15h20v295h-435v-295h20v-15h-155z" />
    <glyph glyph-name="I" unicode="I" horiz-adv-x="290" 
d="M65 0v15h20v670h-20v15h160v-15h-20v-670h20v-15h-160z" />
    <glyph glyph-name="J" unicode="J" horiz-adv-x="622" 
d="M80 175l13 -8l-8 -11q18 -15 46.5 -33t66 -30.5t83.5 -12.5q68 0 107 25.5t39 99.5v480h-25v15h160v-15h-20v-505q0 -64 -35 -109t-95.5 -68t-137.5 -23q-49 0 -98 13t-89.5 32.5t-64.5 39.5l-9 -13l-13 8z" />
    <glyph glyph-name="K" unicode="K" horiz-adv-x="765" 
d="M65 0v15h20v670h-20v15h150v-15h-20v-318l398 318h-21v15h178v-15h-18l-324 -267l325 -403h22v-15h-179v15h18l-264 339l-135 -112v-227h20v-15h-150z" />
    <glyph glyph-name="L" unicode="L" horiz-adv-x="720" 
d="M65 0v15h20v670h-20v15h155v-15h-20v-585h490v30h15v-140h-15v10h-625z" />
    <glyph glyph-name="M" unicode="M" horiz-adv-x="930" 
d="M65 0v15h20v670h-20v15h190v-15h-18l228 -482l228 482h-18v15h190v-15h-20v-670h20v-15h-150v15h20v525l-270 -550l-270 550v-525h20v-15h-150z" />
    <glyph glyph-name="N" unicode="N" horiz-adv-x="860" 
d="M65 0v15h20v670h-20v15h200v-15h-27l427 -507v507h-20v15h150v-15h-20v-670h20v-15h-170v15h30l-460 553v-553h20v-15h-150z" />
    <glyph glyph-name="O" unicode="O" horiz-adv-x="910" 
d="M50 350q0 88 32 155t88.5 112.5t129.5 69t155 23.5t155 -23.5t129.5 -69t88.5 -112.5t32 -155t-32 -155t-88.5 -112.5t-129.5 -69t-155 -23.5t-155 23.5t-129.5 69t-88.5 112.5t-32 155zM165 350q0 -82 40.5 -140t107 -89t142.5 -31q77 0 143 31t106.5 89t40.5 140
t-40.5 140t-106.5 89t-143 31q-76 0 -142.5 -31t-107 -89t-40.5 -140z" />
    <glyph glyph-name="P" unicode="P" horiz-adv-x="753" 
d="M65 0v15h20v670h-20v15h415q63 0 117 -18t87.5 -61.5t33.5 -120.5q0 -76 -33.5 -120t-87.5 -62t-117 -18h-285v-285h20v-15h-150zM470 600h-275v-200h275q133 0 133 100t-133 100z" />
    <glyph glyph-name="Q" unicode="Q" horiz-adv-x="870" 
d="M50 350q0 112 50.5 192.5t138 124t196.5 43.5q110 0 197 -43.5t137.5 -124t50.5 -192.5q0 -108 -48 -187.5t-128 -122.5q22 -19 49 -32.5t63 -16.5l10 11l10 -7l-86 -101l-10 7l9 11q-40 16 -72.5 41t-60.5 52q-57 -15 -121 -15q-109 0 -196.5 43.5t-138 124t-50.5 192.5
zM165 350q0 -89 39.5 -151.5t108.5 -90.5q7 32 35.5 58t77.5 26q52 0 85.5 -23t61.5 -54q62 31 97 91t35 144q0 82 -33.5 141.5t-94 91.5t-142.5 32q-81 0 -142 -32t-94.5 -91.5t-33.5 -141.5zM380 135q-18 0 -33 -7.5t-19 -25.5q49 -17 107 -17q21 0 40 2q-23 21 -46 34.5
t-49 13.5z" />
    <glyph glyph-name="R" unicode="R" horiz-adv-x="785" 
d="M65 0v15h20v670h-20v15h440q63 0 117 -16.5t87.5 -59t33.5 -119.5q0 -72 -29.5 -112.5t-78.5 -57.5t-107 -20l221 -300h21v-15h-175v15h20l-209 300h-211v-300h20v-15h-150zM495 600h-300v-190h300q67 0 100 23t33 72q0 50 -33 72.5t-100 22.5z" />
    <glyph glyph-name="S" unicode="S" horiz-adv-x="764" 
d="M110 207l13 -8l-9 -14q32 -21 73 -43.5t94.5 -38t123.5 -15.5q109 0 161 29.5t52 78.5t-51 74.5t-178 34.5q-160 11 -243.5 60t-83.5 144q0 67 42 114t114.5 72t161.5 25q79 0 140.5 -13.5t107.5 -34.5t78 -43l7 10l13 -8l-75 -109l-13 8l10 14q-25 19 -67 38t-94 31
t-107 12q-94 0 -151 -27.5t-57 -81.5q0 -57 63 -79.5t183 -31.5q153 -12 234.5 -62.5t81.5 -142.5q0 -64 -41.5 -112t-117 -73.5t-175.5 -24.5q-85 1 -152.5 19t-116.5 43t-77 47l-11 -16l-13 8z" />
    <glyph glyph-name="T" unicode="T" horiz-adv-x="685" 
d="M255 0v15h30v590h-260v-25h-15v135h15v-15h635v15h15v-135h-15v25h-260v-590h30v-15h-175z" />
    <glyph glyph-name="U" unicode="U" 
d="M55 685v15h155v-15h-20v-443q0 -79 59 -115.5t156 -36.5q105 0 160 36.5t55 115.5v443h-20v15h155v-15h-20v-455q0 -63 -26.5 -108.5t-73 -74.5t-105.5 -43t-125 -14t-125 14t-105.5 43t-73 74.5t-26.5 108.5v455h-20z" />
    <glyph glyph-name="V" unicode="V" horiz-adv-x="774" 
d="M387 124l239 561h-19v15h162v-15h-17l-306 -670h13v-15h-144v15h13l-306 670h-17v15h162v-15h-19z" />
    <glyph glyph-name="W" unicode="W" horiz-adv-x="1140" 
d="M320 131l190 554h-20v15h160v-15h-20l190 -554l185 554h-20v15h150v-15h-15l-240 -670h15v-15h-150v15h14l-189 513l-189 -513h14v-15h-150v15h15l-240 670h-15v15h150v-15h-20z" />
    <glyph glyph-name="X" unicode="X" horiz-adv-x="685" 
d="M165 15v-15h-165v15h16l262 347l-247 323h-16v15h175v-15h-20l176 -251l178 251h-19v15h175v-15h-17l-250 -323l256 -347h16v-15h-165v15h19l-194 275l-199 -275h19z" />
    <glyph glyph-name="Y" unicode="Y" horiz-adv-x="701" 
d="M261 0v15h30v286l-285 384h-16v15h175v-15h-19l202 -289l212 289h-24v15h175v-15h-16l-290 -383v-287h30v-15h-174z" />
    <glyph glyph-name="Z" unicode="Z" horiz-adv-x="744" 
d="M670 125h15v-140h-15v15h-640v15l472 585h-447v-25h-15v140h15v-15h644v-15l-469 -585h440v25z" />
    <glyph glyph-name="bracketleft" unicode="[" horiz-adv-x="331" 
d="M80 -220v15h20v970h-20v15h216v20h15v-140h-15v20h-86v-800h86v20h15v-140h-15v20h-216z" />
    <glyph glyph-name="backslash" unicode="\" horiz-adv-x="665" 
d="M630 15v-15h-180v15h31l-417 670h-29v15h180v-15h-31l417 -670h29z" />
    <glyph glyph-name="bracketright" unicode="]" horiz-adv-x="331" 
d="M121 -120v800h-86v-20h-15v140h15v-20h216v-15h-20v-970h20v-15h-216v-20h-15v140h15v-20h86z" />
    <glyph glyph-name="asciicircum" unicode="^" horiz-adv-x="570" 
d="M195 475v-15h-160v15h22l176 220h-18v15h140v-15h-18l176 -220h22v-15h-160v15h19l-109 146l-109 -146h19z" />
    <glyph glyph-name="underscore" unicode="_" horiz-adv-x="500" 
d="M0 -153v75h500v-75h-500z" />
    <glyph glyph-name="grave" unicode="`" horiz-adv-x="375" 
d="M317 570l10 -11l-86 -68l-10 11l13 10l-164 137l-12 -9l-10 11l108 79l10 -11l-12 -9l141 -150z" />
    <glyph glyph-name="a" unicode="a" horiz-adv-x="784" 
d="M0 0v15h17l316 670h-13v15h144v-15h-13l316 -670h17v-15h-157v15h18l-83 185h-340l-83 -185h18v-15h-157zM392 581l-130 -291h260z" />
    <glyph glyph-name="b" unicode="b" horiz-adv-x="803" 
d="M65 0v15h20v670h-20v15h440q109 0 169.5 -49t60.5 -131q0 -65 -31.5 -102.5t-77.5 -55.5q61 -18 94 -62t33 -110q0 -89 -59.5 -139.5t-168.5 -50.5h-460zM485 600h-296v-195h286q68 0 109 21.5t41 78.5q0 40 -18.5 60t-50 27.5t-71.5 7.5zM189 100h311q45 0 77 9t49 33.5
t17 72.5q0 50 -37.5 75t-105.5 25h-311v-215z" />
    <glyph glyph-name="c" unicode="c" horiz-adv-x="875" 
d="M165 350q0 -74 36.5 -133t105.5 -93t168 -34q58 0 110 16t95 41t73 50l-8 11l13 8l77 -110l-13 -8l-8 12q-35 -26 -84 -53.5t-112.5 -47t-142.5 -19.5q-131 0 -226.5 45.5t-147 126.5t-51.5 188t51.5 188t147 126.5t226.5 45.5q78 0 138.5 -16.5t105.5 -40t75 -43.5l6 9
l13 -8l-76 -112l-13 8l9 14q-25 20 -63.5 40.5t-88 34.5t-106.5 14q-99 0 -168 -34t-105.5 -93t-36.5 -133z" />
    <glyph glyph-name="d" unicode="d" horiz-adv-x="852" 
d="M65 0v15h20v670h-20v15h382q102 0 181 -42t124 -120t45 -188q0 -109 -45 -187.5t-124 -120.5t-181 -42h-382zM437 600h-242v-500h242q119 0 179.5 64t60.5 186t-60.5 186t-179.5 64z" />
    <glyph glyph-name="e" unicode="e" horiz-adv-x="746" 
d="M65 0v15h20v670h-20v15h621v15h15v-140h-15v25h-491v-195h321v15h15v-125h-15v15h-321v-210h491v30h15v-140h-15v10h-621z" />
    <glyph glyph-name="f" unicode="f" horiz-adv-x="716" 
d="M65 0v15h20v670h-20v15h621v15h15v-140h-15v25h-491v-195h331v15h15v-125h-15v15h-331v-295h30v-15h-160z" />
    <glyph glyph-name="g" unicode="g" horiz-adv-x="875" 
d="M165 350q0 -79 36.5 -137.5t106 -90.5t167.5 -32q65 0 119 14t96 35v126h-203v-30h-15v140h15v-15h338v-15h-20v-245h20v-15h-20q-34 -21 -78 -43t-105 -37t-147 -15q-122 0 -218 43.5t-151.5 124t-55.5 192.5t55.5 192.5t151.5 124t218 43.5q83 0 143.5 -16.5t103 -39.5
t72.5 -44l6 9l13 -8l-77 -112l-13 8l9 14q-25 20 -63.5 40.5t-87.5 34.5t-106 14q-98 0 -167.5 -32t-106 -90.5t-36.5 -137.5z" />
    <glyph glyph-name="h" unicode="h" horiz-adv-x="835" 
d="M65 0v15h20v670h-20v15h155v-15h-20v-280h435v280h-20v15h155v-15h-20v-670h20v-15h-155v15h20v295h-435v-295h20v-15h-155z" />
    <glyph glyph-name="i" unicode="i" horiz-adv-x="290" 
d="M65 0v15h20v670h-20v15h160v-15h-20v-670h20v-15h-160z" />
    <glyph glyph-name="j" unicode="j" horiz-adv-x="622" 
d="M80 175l13 -8l-8 -11q18 -15 46.5 -33t66 -30.5t83.5 -12.5q68 0 107 25.5t39 99.5v480h-25v15h160v-15h-20v-505q0 -64 -35 -109t-95.5 -68t-137.5 -23q-49 0 -98 13t-89.5 32.5t-64.5 39.5l-9 -13l-13 8z" />
    <glyph glyph-name="k" unicode="k" horiz-adv-x="765" 
d="M65 0v15h20v670h-20v15h150v-15h-20v-318l398 318h-21v15h178v-15h-18l-324 -267l325 -403h22v-15h-179v15h18l-264 339l-135 -112v-227h20v-15h-150z" />
    <glyph glyph-name="l" unicode="l" horiz-adv-x="720" 
d="M65 0v15h20v670h-20v15h155v-15h-20v-585h490v30h15v-140h-15v10h-625z" />
    <glyph glyph-name="m" unicode="m" horiz-adv-x="930" 
d="M65 0v15h20v670h-20v15h190v-15h-18l228 -482l228 482h-18v15h190v-15h-20v-670h20v-15h-150v15h20v525l-270 -550l-270 550v-525h20v-15h-150z" />
    <glyph glyph-name="n" unicode="n" horiz-adv-x="860" 
d="M65 0v15h20v670h-20v15h200v-15h-27l427 -507v507h-20v15h150v-15h-20v-670h20v-15h-170v15h30l-460 553v-553h20v-15h-150z" />
    <glyph glyph-name="o" unicode="o" horiz-adv-x="910" 
d="M50 350q0 88 32 155t88.5 112.5t129.5 69t155 23.5t155 -23.5t129.5 -69t88.5 -112.5t32 -155t-32 -155t-88.5 -112.5t-129.5 -69t-155 -23.5t-155 23.5t-129.5 69t-88.5 112.5t-32 155zM165 350q0 -82 40.5 -140t107 -89t142.5 -31q77 0 143 31t106.5 89t40.5 140
t-40.5 140t-106.5 89t-143 31q-76 0 -142.5 -31t-107 -89t-40.5 -140z" />
    <glyph glyph-name="p" unicode="p" horiz-adv-x="753" 
d="M65 0v15h20v670h-20v15h415q63 0 117 -18t87.5 -61.5t33.5 -120.5q0 -76 -33.5 -120t-87.5 -62t-117 -18h-285v-285h20v-15h-150zM470 600h-275v-200h275q133 0 133 100t-133 100z" />
    <glyph glyph-name="q" unicode="q" horiz-adv-x="870" 
d="M50 350q0 112 50.5 192.5t138 124t196.5 43.5q110 0 197 -43.5t137.5 -124t50.5 -192.5q0 -108 -48 -187.5t-128 -122.5q22 -19 49 -32.5t63 -16.5l10 11l10 -7l-86 -101l-10 7l9 11q-40 16 -72.5 41t-60.5 52q-57 -15 -121 -15q-109 0 -196.5 43.5t-138 124t-50.5 192.5
zM165 350q0 -89 39.5 -151.5t108.5 -90.5q7 32 35.5 58t77.5 26q52 0 85.5 -23t61.5 -54q62 31 97 91t35 144q0 82 -33.5 141.5t-94 91.5t-142.5 32q-81 0 -142 -32t-94.5 -91.5t-33.5 -141.5zM380 135q-18 0 -33 -7.5t-19 -25.5q49 -17 107 -17q21 0 40 2q-23 21 -46 34.5
t-49 13.5z" />
    <glyph glyph-name="r" unicode="r" horiz-adv-x="785" 
d="M65 0v15h20v670h-20v15h440q63 0 117 -16.5t87.5 -59t33.5 -119.5q0 -72 -29.5 -112.5t-78.5 -57.5t-107 -20l221 -300h21v-15h-175v15h20l-209 300h-211v-300h20v-15h-150zM495 600h-300v-190h300q67 0 100 23t33 72q0 50 -33 72.5t-100 22.5z" />
    <glyph glyph-name="s" unicode="s" horiz-adv-x="764" 
d="M110 207l13 -8l-9 -14q32 -21 73 -43.5t94.5 -38t123.5 -15.5q109 0 161 29.5t52 78.5t-51 74.5t-178 34.5q-160 11 -243.5 60t-83.5 144q0 67 42 114t114.5 72t161.5 25q79 0 140.5 -13.5t107.5 -34.5t78 -43l7 10l13 -8l-75 -109l-13 8l10 14q-25 19 -67 38t-94 31
t-107 12q-94 0 -151 -27.5t-57 -81.5q0 -57 63 -79.5t183 -31.5q153 -12 234.5 -62.5t81.5 -142.5q0 -64 -41.5 -112t-117 -73.5t-175.5 -24.5q-85 1 -152.5 19t-116.5 43t-77 47l-11 -16l-13 8z" />
    <glyph glyph-name="t" unicode="t" horiz-adv-x="685" 
d="M255 0v15h30v590h-260v-25h-15v135h15v-15h635v15h15v-135h-15v25h-260v-590h30v-15h-175z" />
    <glyph glyph-name="u" unicode="u" 
d="M55 685v15h155v-15h-20v-443q0 -79 59 -115.5t156 -36.5q105 0 160 36.5t55 115.5v443h-20v15h155v-15h-20v-455q0 -63 -26.5 -108.5t-73 -74.5t-105.5 -43t-125 -14t-125 14t-105.5 43t-73 74.5t-26.5 108.5v455h-20z" />
    <glyph glyph-name="v" unicode="v" horiz-adv-x="774" 
d="M387 124l239 561h-19v15h162v-15h-17l-306 -670h13v-15h-144v15h13l-306 670h-17v15h162v-15h-19z" />
    <glyph glyph-name="w" unicode="w" horiz-adv-x="1140" 
d="M320 131l190 554h-20v15h160v-15h-20l190 -554l185 554h-20v15h150v-15h-15l-240 -670h15v-15h-150v15h14l-189 513l-189 -513h14v-15h-150v15h15l-240 670h-15v15h150v-15h-20z" />
    <glyph glyph-name="x" unicode="x" horiz-adv-x="685" 
d="M165 15v-15h-165v15h16l262 347l-247 323h-16v15h175v-15h-20l176 -251l178 251h-19v15h175v-15h-17l-250 -323l256 -347h16v-15h-165v15h19l-194 275l-199 -275h19z" />
    <glyph glyph-name="y" unicode="y" horiz-adv-x="701" 
d="M261 0v15h30v286l-285 384h-16v15h175v-15h-19l202 -289l212 289h-24v15h175v-15h-16l-290 -383v-287h30v-15h-174z" />
    <glyph glyph-name="z" unicode="z" horiz-adv-x="744" 
d="M670 125h15v-140h-15v15h-640v15l472 585h-447v-25h-15v140h15v-15h644v-15l-469 -585h440v25z" />
    <glyph glyph-name="braceleft" unicode="{" horiz-adv-x="341" 
d="M276 -90h15v-130h-15v20h-45q-16 0 -38.5 8t-44.5 25t-36 43.5t-14 63.5v210q0 50 -12.5 69t-35.5 26v-20h-15v130h15v-20q23 8 35.5 27t12.5 68v210q0 37 14 63.5t36 43.5t44.5 25t38.5 8h45v20h15v-130h-15v20h-20q-22 0 -35 -15t-13 -35v-150q0 -65 -15.5 -119.5
t-55.5 -80.5q40 -26 55.5 -80.5t15.5 -119.5v-150q0 -19 13 -34.5t35 -15.5h20v20z" />
    <glyph glyph-name="bar" unicode="|" horiz-adv-x="304" 
d="M80 -220v15h20v970h-20v15h144v-15h-20v-970h20v-15h-144z" />
    <glyph glyph-name="braceright" unicode="}" horiz-adv-x="341" 
d="M133 -60v150q0 65 15.5 119.5t55.5 80.5q-40 26 -55.5 80.5t-15.5 119.5v150q0 20 -12.5 35t-35.5 15h-20v-20h-15v130h15v-20h45q17 0 39 -8t44 -25t36 -43.5t14 -63.5v-210q0 -49 13 -68t35 -27v20h15v-130h-15v20q-22 -7 -35 -26t-13 -69v-210q0 -37 -14 -63.5
t-36 -43.5t-44 -25t-39 -8h-45v-20h-15v130h15v-20h20q23 0 35.5 15.5t12.5 34.5z" />
    <glyph glyph-name="asciitilde" unicode="~" horiz-adv-x="575" 
d="M40 170v15h22q-1 6 -1.5 15t-0.5 15q0 16 5.5 39t18.5 41q20 26 47 34t58 8q29 0 60 -12t58 -31q21 -14 41.5 -25.5t41.5 -11.5q18 0 25 7t7 27q0 8 -3 21h-21v15h134v-15h-20q3 -17 3 -32t-4.5 -39.5t-17.5 -41.5q-19 -25 -43 -31t-51 -6q-25 0 -55 13.5t-55 29.5
q-24 15 -50.5 26.5t-45.5 11.5q-45 0 -45 -40q0 -9 4 -18h22v-15h-134z" />
    <glyph glyph-name="uni00A0" unicode="&#xa0;" horiz-adv-x="400" 
 />
    <glyph glyph-name="exclamdown" unicode="&#xa1;" horiz-adv-x="300" 
d="M160 505v-15h-9l38 -475h21v-15h-170v15h21l38 475h-9v15h70zM195 645q0 -29 -19.5 -49.5t-50.5 -20.5t-50.5 20.5t-19.5 49.5q0 28 19.5 49t50.5 21t50.5 -21t19.5 -49z" />
    <glyph glyph-name="cent" unicode="&#xa2;" horiz-adv-x="835" 
d="M668 216l77 -110l-13 -8l-8 12q-41 -31 -94.5 -64t-124.5 -48v-78h-40v72q-20 -2 -40 -2q-31 0 -60 3v-73h-40v79q-91 18 -154.5 66t-97 121t-33.5 164t33.5 164t97 121t154.5 66v39h40v-33q29 3 60 3q20 0 40 -2v32h40v-37q68 -13 116 -41t83 -52l6 9l13 -8l-76 -112
l-13 8l9 14q-25 21 -60 43t-78 34v-495q47 14 86.5 40.5t71.5 53.5l-8 11zM425 610q-31 0 -60 -5v-510q29 -5 60 -5q20 0 40 3v514q-20 3 -40 3zM155 350q0 -88 43 -154t127 -92v492q-84 -26 -127 -92t-43 -154z" />
    <glyph glyph-name="sterling" unicode="&#xa3;" horiz-adv-x="736" 
d="M21 70l11 10l8 -10q27 29 52.5 62t42.5 66t17 61q0 10 -1 20h-101v40h94q-6 23 -16 41.5t-19 38.5h-59v40h42q-5 17 -8.5 36.5t-3.5 44.5q0 98 80 149t218 51q96 0 161.5 -28t100.5 -57l9 13l13 -8l-75 -110l-13 8l7 11q-26 23 -77 47t-133 24q-90 0 -133 -29.5
t-43 -85.5q0 -20 3 -36.5t8 -29.5h314v-40h-295q9 -17 18 -35.5t13 -44.5h264v-40h-261q0 -41 -19 -84.5t-54 -84.5q23 15 49.5 26t61.5 11q47 0 77 -9t54 -21t52.5 -21t72.5 -9q23 0 56 5t62 13v30h15v-150h-15v10q-31 -8 -68 -13t-60 -5q-51 0 -86.5 10t-65.5 22.5
t-63.5 22.5t-80.5 10q-66 0 -137 -56l9 -11l-11 -10z" />
    <glyph glyph-name="yen" unicode="&#xa5;" horiz-adv-x="731" 
d="M106 201v40h200v60l-15 20h-185v40h155l-240 324h-16v15h175v-15h-19l202 -289l212 289h-24v15h175v-15h-16l-245 -324h155v-40h-186l-14 -19v-61h200v-40h-200v-186h30v-15h-174v15h30v186h-200z" />
    <glyph glyph-name="brokenbar" unicode="&#xa6;" horiz-adv-x="304" 
d="M80 380v15h20v370h-20v15h144v-15h-20v-370h20v-15h-144zM80 165v15h144v-15h-20v-370h20v-15h-144v15h20v370h-20z" />
    <glyph glyph-name="dieresis" unicode="&#xa8;" horiz-adv-x="432" 
d="M239.999 820.995q0 23.1992 15.5996 39.5996q15.5996 16.3994 40.3994 16.3994t40.3994 -16.3994q15.5996 -16.4004 15.5996 -39.5996q0 -22.3994 -15.5996 -39.1992t-40.3994 -16.7998t-40.3994 16.7998t-15.5996 39.1992zM79.999 820.995q0 23.1992 15.5996 39.5996
q15.5996 16.3994 40.3994 16.3994t40.3994 -16.3994q15.5996 -16.4004 15.5996 -39.5996q0 -22.3994 -15.5996 -39.1992t-40.3994 -16.7998t-40.3994 16.7998t-15.5996 39.1992z" />
    <glyph glyph-name="copyright" unicode="&#xa9;" horiz-adv-x="930" 
d="M50 375q0 80 31.5 149.5t88.5 122.5t132.5 83t162.5 30t162.5 -30t132.5 -83t88.5 -122.5t31.5 -149.5t-31.5 -149.5t-88.5 -122.5t-132.5 -83t-162.5 -30t-162.5 30t-132.5 83t-88.5 122.5t-31.5 149.5zM87 375q0 -73 28.5 -136t80 -111t120.5 -75t149 -27t149 27
t120.5 75t80 111t28.5 136t-28.5 136t-80 111t-120.5 75t-149 27t-149 -27t-120.5 -75t-80 -111t-28.5 -136zM283 380q0 -67 48.5 -111.5t137.5 -44.5q52 0 96 20.5t71 43.5l-5 7l8 5l46 -66l-8 -5l-5 7q-31 -23 -81.5 -47.5t-121.5 -24.5q-79 0 -136 27.5t-88 76t-31 112.5
t31 113t88 76t136 27q70 0 117 -20.5t74 -39.5l4 5l8 -4l-46 -68l-8 5l6 8q-23 19 -63 36.5t-92 17.5q-89 0 -137.5 -44.5t-48.5 -111.5z" />
    <glyph glyph-name="guillemotleft" unicode="&#xab;" horiz-adv-x="522" 
d="M391 4l10 8l-186 243l186 243l-10 8l8 9l88 -71l-8 -9l-12 9l-149 -185l149 -193l12 9l8 -9l-88 -71zM213 4l10 8l-185 243l185 243l-10 8l8 9l88 -71l-8 -9l-11 9l-149 -185l149 -193l11 9l8 -9l-88 -71z" />
    <glyph glyph-name="logicalnot" unicode="&#xac;" horiz-adv-x="535" 
d="M75 495h-15v140h15v-20h421v-15h-20v-212h20v-15h-140v15h20v127h-301v-20z" />
    <glyph glyph-name="uni00AD" unicode="&#xad;" horiz-adv-x="290" 
d="M20 350h15v-15h250v15h15v-130h-15v15h-250v-15h-15v130z" />
    <glyph glyph-name="registered" unicode="&#xae;" horiz-adv-x="930" 
d="M50 375q0 80 31.5 149.5t88.5 122.5t132.5 83t162.5 30t162.5 -30t132.5 -83t88.5 -122.5t31.5 -149.5t-31.5 -149.5t-88.5 -122.5t-132.5 -83t-162.5 -30t-162.5 30t-132.5 83t-88.5 122.5t-31.5 149.5zM87 375q0 -73 28.5 -136t80 -111t120.5 -75t149 -27t149 27
t120.5 75t80 111t28.5 136t-28.5 136t-80 111t-120.5 75t-149 27t-149 -27t-120.5 -75t-80 -111t-28.5 -136zM259 174v9h12v402h-12v9h264q38 0 70.5 -10t52.5 -35.5t20 -71.5q0 -43 -18 -67.5t-47.5 -34.5t-63.5 -12l132 -180h13v-9h-105v9h12l-125 180h-127v-180h12v-9
h-90zM517 534h-180v-114h180q80 0 80 57t-80 57z" />
    <glyph glyph-name="macron" unicode="&#xaf;" horiz-adv-x="369" 
d="M20 500h14v-15h300v15h15v-130h-15v15h-300v-15h-14v130z" />
    <glyph glyph-name="degree" unicode="&#xb0;" horiz-adv-x="319" 
d="M40 680q0 33 16.5 60.5t43.5 43.5t60 16t60 -16t43.5 -43.5t16.5 -60.5t-16.5 -60t-43.5 -43.5t-60 -16.5t-60 16.5t-43.5 43.5t-16.5 60zM94 680q0 -28 19 -46.5t47 -18.5t46.5 18.5t18.5 46.5t-18.5 46.5t-46.5 18.5t-47 -18.5t-19 -46.5z" />
    <glyph glyph-name="plusminus" unicode="&#xb1;" horiz-adv-x="536" 
d="M335 235v-15h-140v15h20v185h-180v-20h-15v130h15v-20h180v185h-20v15h140v-15h-20v-185h185v20h15v-130h-15v20h-185v-185h20zM20 145h15v-15h465v15h15v-130h-15v15h-465v-15h-15v130z" />
    <glyph glyph-name="uni00B2" unicode="&#xb2;" horiz-adv-x="469" 
d="M43.999 457q0 43.1982 12.8994 74.3965q12.8994 31.1992 34.499 53.3984q21.5986 22.1992 47.998 38.0986q26.3984 15.8994 53.3975 27.5986t50.3984 22.499q12.5996 6 28.499 13.499q15.8994 7.5 30.5986 18.2998t24.2988 25.1992t9.59961 33.5986
q0 27.5986 -20.999 43.7979t-62.3975 16.1992q-43.7988 0 -78.8975 -22.1992t-57.2969 -55.1973l8.99902 -9l-6 -6.59961l-60.5967 57.5977l5.99902 6.59961l6.59961 -6.59961q31.7988 43.1982 76.1973 69.2969q44.3984 26.0996 104.996 26.0996q53.3975 0 86.6963 -17.3994
t48.8975 -45.2988q15.5996 -27.8984 15.5996 -59.0977q0 -36.5977 -15.2988 -61.4971q-15.2998 -24.8994 -41.0986 -41.998q-25.7988 -17.0996 -57.5977 -30.8994q-23.999 -10.7988 -49.498 -20.6982q-25.499 -9.90039 -48.5977 -21.8994q-23.0996 -12 -40.499 -28.499
q-17.3984 -16.499 -25.1982 -39.2979h289.788v11.999h8.99902v-83.9971h-8.99902v12h-362.985v-12h-9v12z" />
    <glyph glyph-name="uni00B3" unicode="&#xb3;" horiz-adv-x="459" 
d="M40.3984 507.398l-8.39941 4.79883l47.3975 74.9971l8.40039 -4.7998l-6 -9.59961q13.1992 -14.999 34.7988 -29.3984q21.5986 -14.3994 50.6973 -23.3994q29.0996 -8.99902 65.6973 -8.99902q62.998 0 92.3965 20.3984q29.3994 20.3994 29.3994 54.5986
q0 38.3984 -38.999 54.2979q-38.998 15.8984 -127.194 15.8984v-11.999h-9v76.7969h9v-11.999q79.1963 0.599609 111.295 16.1992q32.0986 15.5986 32.0986 43.7979t-23.0986 42.8984t-63.8975 14.6992q-41.3984 0 -79.1973 -19.7988q-37.7979 -19.7998 -59.9971 -49.7979
l9 -9l-6 -6.59961l-59.998 58.7969l6 6.60059l7.2002 -7.2002q31.1982 42.5986 79.7969 62.998q48.5977 20.3984 99.5957 20.3984t87.5957 -13.7988q36.5986 -13.7998 56.3984 -37.499q19.7988 -23.6992 19.7988 -54.2979q0 -35.998 -24.5986 -58.4971
q-24.5996 -22.499 -63.5977 -34.499q49.7979 -11.3994 79.4971 -36.2988q29.6982 -24.8984 29.6982 -67.4971q0 -40.7979 -24.8984 -69.8965q-24.8994 -29.0996 -67.1973 -44.3984q-42.2988 -15.2998 -95.0967 -15.2998q-53.3975 0 -90.5957 11.3994
q-37.1992 11.3994 -61.7979 26.999t-40.1982 28.1992z" />
    <glyph glyph-name="acute" unicode="&#xb4;" horiz-adv-x="375" 
d="M58 570l12 -10l141 150l-12 9l10 11l108 -79l-10 -11l-12 9l-164 -137l13 -10l-10 -11l-86 68z" />
    <glyph glyph-name="paragraph" unicode="&#xb6;" horiz-adv-x="640" 
d="M305 -80v15h20v305h-40q-70 0 -123 27.5t-82.5 79t-29.5 123.5q0 73 29.5 124t82.5 78.5t123 27.5h290v-15h-20v-750h20v-15h-120v15h20v685h-70v-685h20v-15h-120z" />
    <glyph glyph-name="periodcentered" unicode="&#xb7;" horiz-adv-x="300" 
d="M80 405q0 29 19.5 49.5t50.5 20.5t50.5 -20.5t19.5 -49.5q0 -28 -19.5 -49t-50.5 -21t-50.5 21t-19.5 49z" />
    <glyph glyph-name="cedilla" unicode="&#xb8;" horiz-adv-x="549" 
d="M288 -168q0 31 -31.5 42.5t-80.5 11.5l90 120h44l-60 -80q77 -2 113 -20.5t36 -60.5q0 -25 -21 -47.5t-66.5 -37t-121.5 -14.5v36q44 0 71 14t27 36z" />
    <glyph glyph-name="uni00B9" unicode="&#xb9;" horiz-adv-x="529" 
d="M222.195 456v9h12v317.387l-58.1982 -25.1992v-11.3994h-8.99902v90.5967h8.99902v-10.2002l58.1982 25.1992v15.5996h-12v8.99902h95.9961v-8.99902h-12v-401.983h12v-9h-95.9961z" />
    <glyph glyph-name="guillemotright" unicode="&#xbb;" horiz-adv-x="522" 
d="M131 4l-8 -9l-88 71l8 9l12 -9l149 185l-149 193l-12 -9l-8 9l88 71l8 -9l-10 -8l186 -243l-186 -243zM309 4l-8 -9l-88 71l8 9l11 -9l149 185l-149 193l-11 -9l-8 9l88 71l8 -9l-10 -8l185 -243l-185 -243z" />
    <glyph glyph-name="questiondown" unicode="&#xbf;" horiz-adv-x="557" 
d="M361 505v-15h-19q1 -9 1.5 -18t0.5 -19q0 -63 -15.5 -101t-38.5 -61.5t-46 -41.5t-38.5 -40t-15.5 -58t25.5 -54.5t65.5 -18.5t77 24t64 68l-14 13l10 10l90 -84l-10 -10l-10 9q-35 -56 -88 -87t-132 -31q-53 0 -95.5 19t-67.5 54.5t-25 85.5q0 42 13 69t33.5 45.5
t43.5 35t43.5 37t33.5 51.5t13 79q0 4 -0.5 10.5t-1.5 13.5h-22v15h125zM367 645q0 -29 -19.5 -49.5t-50.5 -20.5t-50.5 20.5t-19.5 49.5q0 28 19.5 49t50.5 21t50.5 -21t19.5 -49z" />
    <glyph glyph-name="Agrave" unicode="&#xc0;" horiz-adv-x="784" 
d="M464.442 817.486l8.5 -9.34961l-73.0986 -57.7988l-8.49902 9.34961l11.0498 8.5l-139.396 116.446l-10.1992 -7.64941l-8.5 9.34961l91.7969 67.1484l8.5 -9.34961l-10.1992 -7.65039l119.846 -127.496zM0 0v15h17l316 670h-13v15h144v-15h-13l316 -670h17v-15h-157v15
h18l-83 185h-340l-83 -185h18v-15h-157zM392 581l-130 -291h260z" />
    <glyph glyph-name="Aacute" unicode="&#xc1;" horiz-adv-x="784" 
d="M314.299 817.486l10.1992 -8.5l119.847 127.496l-10.1992 7.65039l8.49902 9.34961l91.7979 -67.1484l-8.5 -9.34961l-10.1992 7.64941l-139.396 -116.446l11.0498 -8.5l-8.5 -9.34961l-73.0977 57.7988zM0 0v15h17l316 670h-13v15h144v-15h-13l316 -670h17v-15h-157v15
h18l-83 185h-340l-83 -185h18v-15h-157zM392 581l-130 -291h260z" />
    <glyph glyph-name="Acircumflex" unicode="&#xc2;" horiz-adv-x="784" 
d="M350 808v-15h-140v15h23l104 120h-17v15h140v-15h-17l104 -120h23v-15h-140v15h18l-58 76l-58 -76h18zM0 0v15h17l316 670h-13v15h144v-15h-13l316 -670h17v-15h-157v15h18l-83 185h-340l-83 -185h18v-15h-157zM392 581l-130 -291h260z" />
    <glyph glyph-name="Atilde" unicode="&#xc3;" horiz-adv-x="784" 
d="M169 780v15h22q-1 6 -1.5 15t-0.5 15q0 16 5 39t19 41q14 19 36.5 30.5t53.5 11.5q28 0 48.5 -10t36.5 -26q15 -16 34 -37.5t38 -21.5q20 0 25.5 13.5t5.5 35.5q0 8 -3 21h-21v15h124v-15h-20q3 -17 3 -32t-4.5 -39.5t-17.5 -41.5q-13 -18 -27 -27.5t-49 -9.5
q-33 0 -54.5 13.5t-36.5 29.5q-14 15 -34 33.5t-46 18.5q-23 0 -30.5 -17.5t-7.5 -36.5q0 -9 4 -18h22v-15h-124zM0 0v15h17l316 670h-13v15h144v-15h-13l316 -670h17v-15h-157v15h18l-83 185h-340l-83 -185h18v-15h-157zM392 581l-130 -291h260z" />
    <glyph glyph-name="Adieresis" unicode="&#xc4;" horiz-adv-x="784" 
d="M413.999 820.995q0 23.1992 15.5996 39.5996q15.5996 16.3994 40.3994 16.3994t40.3994 -16.3994q15.5996 -16.4004 15.5996 -39.5996q0 -22.3994 -15.5996 -39.1992t-40.3994 -16.7998t-40.3994 16.7998t-15.5996 39.1992zM253.999 820.995q0 23.1992 15.5996 39.5996
q15.5996 16.3994 40.3994 16.3994t40.3994 -16.3994q15.5996 -16.4004 15.5996 -39.5996q0 -22.3994 -15.5996 -39.1992t-40.3994 -16.7998t-40.3994 16.7998t-15.5996 39.1992zM0 0v15h17l316 670h-13v15h144v-15h-13l316 -670h17v-15h-157v15h18l-83 185h-340l-83 -185h18
v-15h-157zM392 581l-130 -291h260z" />
    <glyph glyph-name="Aring" unicode="&#xc5;" horiz-adv-x="784" 
d="M300 850q0 38 26 64t64 26t64 -26t26 -64t-26 -64t-64 -26t-64 26t-26 64zM340 850q0 -25 14.5 -39t35.5 -14t36 14t15 39q0 26 -15 40t-36 14t-35.5 -14t-14.5 -40zM0 0v15h17l316 670h-13v15h144v-15h-13l316 -670h17v-15h-157v15h18l-83 185h-340l-83 -185h18v-15
h-157zM392 581l-130 -291h260z" />
    <glyph glyph-name="AE" unicode="&#xc6;" horiz-adv-x="1196" 
d="M0 0v15h19l422 670h-23v15h718v15h15v-140h-15v25h-491v-195h321v15h15v-125h-15v15h-321v-210h491v30h15v-140h-15v10h-621v15h20v185h-277l-117 -185h16v-15h-157zM314 290h221v351z" />
    <glyph glyph-name="Ccedilla" unicode="&#xc7;" horiz-adv-x="875" 
d="M451 -168q0 31 -31.5 42.5t-80.5 11.5l90 120h44l-60 -80q77 -2 113 -20.5t36 -60.5q0 -25 -21 -47.5t-66.5 -37t-121.5 -14.5v36q44 0 71 14t27 36zM165 350q0 -74 36.5 -133t105.5 -93t168 -34q58 0 110 16t95 41t73 50l-8 11l13 8l77 -110l-13 -8l-8 12
q-35 -26 -84 -53.5t-112.5 -47t-142.5 -19.5q-131 0 -226.5 45.5t-147 126.5t-51.5 188t51.5 188t147 126.5t226.5 45.5q78 0 138.5 -16.5t105.5 -40t75 -43.5l6 9l13 -8l-76 -112l-13 8l9 14q-25 20 -63.5 40.5t-88 34.5t-106.5 14q-99 0 -168 -34t-105.5 -93t-36.5 -133z
" />
    <glyph glyph-name="Egrave" unicode="&#xc8;" horiz-adv-x="746" 
d="M471.442 817.486l8.5 -9.34961l-73.0986 -57.7988l-8.49902 9.34961l11.0498 8.5l-139.396 116.446l-10.1992 -7.64941l-8.5 9.34961l91.7969 67.1484l8.5 -9.34961l-10.1992 -7.65039l119.846 -127.496zM65 0v15h20v670h-20v15h621v15h15v-140h-15v25h-491v-195h321v15
h15v-125h-15v15h-321v-210h491v30h15v-140h-15v10h-621z" />
    <glyph glyph-name="Eacute" unicode="&#xc9;" horiz-adv-x="746" 
d="M341.299 817.486l10.1992 -8.5l119.847 127.496l-10.1992 7.65039l8.49902 9.34961l91.7979 -67.1484l-8.5 -9.34961l-10.1992 7.64941l-139.396 -116.446l11.0498 -8.5l-8.5 -9.34961l-73.0977 57.7988zM65 0v15h20v670h-20v15h621v15h15v-140h-15v25h-491v-195h321v15
h15v-125h-15v15h-321v-210h491v30h15v-140h-15v10h-621z" />
    <glyph glyph-name="Ecircumflex" unicode="&#xca;" horiz-adv-x="746" 
d="M367 808v-15h-140v15h23l104 120h-17v15h140v-15h-17l104 -120h23v-15h-140v15h18l-58 76l-58 -76h18zM65 0v15h20v670h-20v15h621v15h15v-140h-15v25h-491v-195h321v15h15v-125h-15v15h-321v-210h491v30h15v-140h-15v10h-621z" />
    <glyph glyph-name="Edieresis" unicode="&#xcb;" horiz-adv-x="746" 
d="M430.999 820.995q0 23.1992 15.5996 39.5996q15.5996 16.3994 40.3994 16.3994t40.3994 -16.3994q15.5996 -16.4004 15.5996 -39.5996q0 -22.3994 -15.5996 -39.1992t-40.3994 -16.7998t-40.3994 16.7998t-15.5996 39.1992zM270.999 820.995q0 23.1992 15.5996 39.5996
q15.5996 16.3994 40.3994 16.3994t40.3994 -16.3994q15.5996 -16.4004 15.5996 -39.5996q0 -22.3994 -15.5996 -39.1992t-40.3994 -16.7998t-40.3994 16.7998t-15.5996 39.1992zM65 0v15h20v670h-20v15h621v15h15v-140h-15v25h-491v-195h321v15h15v-125h-15v15h-321v-210
h491v30h15v-140h-15v10h-621z" />
    <glyph glyph-name="Igrave" unicode="&#xcc;" horiz-adv-x="290" 
d="M219.442 817.486l8.5 -9.34961l-73.0986 -57.7988l-8.49902 9.34961l11.0498 8.5l-139.396 116.446l-10.1992 -7.64941l-8.5 9.34961l91.7969 67.1484l8.5 -9.34961l-10.1992 -7.65039l119.846 -127.496zM65 0v15h20v670h-20v15h160v-15h-20v-670h20v-15h-160z" />
    <glyph glyph-name="Iacute" unicode="&#xcd;" horiz-adv-x="290" 
d="M69.2988 817.486l10.1992 -8.5l119.847 127.496l-10.1992 7.65039l8.49902 9.34961l91.7979 -67.1484l-8.5 -9.34961l-10.1992 7.64941l-139.396 -116.446l11.0498 -8.5l-8.5 -9.34961l-73.0977 57.7988zM65 0v15h20v670h-20v15h160v-15h-20v-670h20v-15h-160z" />
    <glyph glyph-name="Icircumflex" unicode="&#xce;" horiz-adv-x="290" 
d="M105 808v-15h-140v15h23l104 120h-17v15h140v-15h-17l104 -120h23v-15h-140v15h18l-58 76l-58 -76h18zM65 0v15h20v670h-20v15h160v-15h-20v-670h20v-15h-160z" />
    <glyph glyph-name="Idieresis" unicode="&#xcf;" horiz-adv-x="290" 
d="M168.999 820.995q0 23.1992 15.5996 39.5996q15.5996 16.3994 40.3994 16.3994t40.3994 -16.3994q15.5996 -16.4004 15.5996 -39.5996q0 -22.3994 -15.5996 -39.1992t-40.3994 -16.7998t-40.3994 16.7998t-15.5996 39.1992zM8.99902 820.995q0 23.1992 15.5996 39.5996
q15.5996 16.3994 40.3994 16.3994t40.3994 -16.3994q15.5996 -16.4004 15.5996 -39.5996q0 -22.3994 -15.5996 -39.1992t-40.3994 -16.7998t-40.3994 16.7998t-15.5996 39.1992zM65 0v15h20v670h-20v15h160v-15h-20v-670h20v-15h-160z" />
    <glyph glyph-name="Eth" unicode="&#xd0;" horiz-adv-x="751" 
d="M65 0v15h20v670h-20v15h382q102 0 181 -42t124 -120t45 -188q0 -109 -45 -187.5t-124 -120.5t-181 -42h-382zM437 600h-242v-500h242q119 0 179.5 64t60.5 186t-60.5 186t-179.5 64zM17.334 420h18.25v-15h304.168v15h18.25v-130h-18.25v15h-304.168v-15h-18.25v130z" />
    <glyph glyph-name="Ntilde" unicode="&#xd1;" horiz-adv-x="860" 
d="M248 780v15h22q-1 6 -1.5 15t-0.5 15q0 16 5 39t19 41q14 19 36.5 30.5t53.5 11.5q28 0 48.5 -10t36.5 -26q15 -16 34 -37.5t38 -21.5q20 0 25.5 13.5t5.5 35.5q0 8 -3 21h-21v15h124v-15h-20q3 -17 3 -32t-4.5 -39.5t-17.5 -41.5q-13 -18 -27 -27.5t-49 -9.5
q-33 0 -54.5 13.5t-36.5 29.5q-14 15 -34 33.5t-46 18.5q-23 0 -30.5 -17.5t-7.5 -36.5q0 -9 4 -18h22v-15h-124zM65 0v15h20v670h-20v15h200v-15h-27l427 -507v507h-20v15h150v-15h-20v-670h20v-15h-170v15h30l-460 553v-553h20v-15h-150z" />
    <glyph glyph-name="Ograve" unicode="&#xd2;" horiz-adv-x="910" 
d="M529.442 817.486l8.5 -9.34961l-73.0986 -57.7988l-8.49902 9.34961l11.0498 8.5l-139.396 116.446l-10.1992 -7.64941l-8.5 9.34961l91.7969 67.1484l8.5 -9.34961l-10.1992 -7.65039l119.846 -127.496zM50 350q0 88 32 155t88.5 112.5t129.5 69t155 23.5t155 -23.5
t129.5 -69t88.5 -112.5t32 -155t-32 -155t-88.5 -112.5t-129.5 -69t-155 -23.5t-155 23.5t-129.5 69t-88.5 112.5t-32 155zM165 350q0 -82 40.5 -140t107 -89t142.5 -31q77 0 143 31t106.5 89t40.5 140t-40.5 140t-106.5 89t-143 31q-76 0 -142.5 -31t-107 -89t-40.5 -140z
" />
    <glyph glyph-name="Oacute" unicode="&#xd3;" horiz-adv-x="910" 
d="M379.299 817.486l10.1992 -8.5l119.847 127.496l-10.1992 7.65039l8.49902 9.34961l91.7979 -67.1484l-8.5 -9.34961l-10.1992 7.64941l-139.396 -116.446l11.0498 -8.5l-8.5 -9.34961l-73.0977 57.7988zM50 350q0 88 32 155t88.5 112.5t129.5 69t155 23.5t155 -23.5
t129.5 -69t88.5 -112.5t32 -155t-32 -155t-88.5 -112.5t-129.5 -69t-155 -23.5t-155 23.5t-129.5 69t-88.5 112.5t-32 155zM165 350q0 -82 40.5 -140t107 -89t142.5 -31q77 0 143 31t106.5 89t40.5 140t-40.5 140t-106.5 89t-143 31q-76 0 -142.5 -31t-107 -89t-40.5 -140z
" />
    <glyph glyph-name="Ocircumflex" unicode="&#xd4;" horiz-adv-x="910" 
d="M415 808v-15h-140v15h23l104 120h-17v15h140v-15h-17l104 -120h23v-15h-140v15h18l-58 76l-58 -76h18zM50 350q0 88 32 155t88.5 112.5t129.5 69t155 23.5t155 -23.5t129.5 -69t88.5 -112.5t32 -155t-32 -155t-88.5 -112.5t-129.5 -69t-155 -23.5t-155 23.5t-129.5 69
t-88.5 112.5t-32 155zM165 350q0 -82 40.5 -140t107 -89t142.5 -31q77 0 143 31t106.5 89t40.5 140t-40.5 140t-106.5 89t-143 31q-76 0 -142.5 -31t-107 -89t-40.5 -140z" />
    <glyph glyph-name="Otilde" unicode="&#xd5;" horiz-adv-x="910" 
d="M234 780v15h22q-1 6 -1.5 15t-0.5 15q0 16 5 39t19 41q14 19 36.5 30.5t53.5 11.5q28 0 48.5 -10t36.5 -26q15 -16 34 -37.5t38 -21.5q20 0 25.5 13.5t5.5 35.5q0 8 -3 21h-21v15h124v-15h-20q3 -17 3 -32t-4.5 -39.5t-17.5 -41.5q-13 -18 -27 -27.5t-49 -9.5
q-33 0 -54.5 13.5t-36.5 29.5q-14 15 -34 33.5t-46 18.5q-23 0 -30.5 -17.5t-7.5 -36.5q0 -9 4 -18h22v-15h-124zM50 350q0 88 32 155t88.5 112.5t129.5 69t155 23.5t155 -23.5t129.5 -69t88.5 -112.5t32 -155t-32 -155t-88.5 -112.5t-129.5 -69t-155 -23.5t-155 23.5
t-129.5 69t-88.5 112.5t-32 155zM165 350q0 -82 40.5 -140t107 -89t142.5 -31q77 0 143 31t106.5 89t40.5 140t-40.5 140t-106.5 89t-143 31q-76 0 -142.5 -31t-107 -89t-40.5 -140z" />
    <glyph glyph-name="Odieresis" unicode="&#xd6;" horiz-adv-x="910" 
d="M478.999 820.995q0 23.1992 15.5996 39.5996q15.5996 16.3994 40.3994 16.3994t40.3994 -16.3994q15.5996 -16.4004 15.5996 -39.5996q0 -22.3994 -15.5996 -39.1992t-40.3994 -16.7998t-40.3994 16.7998t-15.5996 39.1992zM318.999 820.995q0 23.1992 15.5996 39.5996
q15.5996 16.3994 40.3994 16.3994t40.3994 -16.3994q15.5996 -16.4004 15.5996 -39.5996q0 -22.3994 -15.5996 -39.1992t-40.3994 -16.7998t-40.3994 16.7998t-15.5996 39.1992zM50 350q0 88 32 155t88.5 112.5t129.5 69t155 23.5t155 -23.5t129.5 -69t88.5 -112.5t32 -155
t-32 -155t-88.5 -112.5t-129.5 -69t-155 -23.5t-155 23.5t-129.5 69t-88.5 112.5t-32 155zM165 350q0 -82 40.5 -140t107 -89t142.5 -31q77 0 143 31t106.5 89t40.5 140t-40.5 140t-106.5 89t-143 31q-76 0 -142.5 -31t-107 -89t-40.5 -140z" />
    <glyph glyph-name="multiply" unicode="&#xd7;" horiz-adv-x="455" 
d="M8.36914 195.908l10.6064 10.6064l14.1416 -14.1426l127.276 127.277l-130.812 130.812l-14.1426 -14.1416l-10.6064 10.6064l98.9932 98.9932l10.6064 -10.6064l-14.1416 -14.1426l130.812 -130.812l130.812 130.812l-14.1416 14.1426l10.6064 10.6064l91.9219 -91.9229
l-10.6064 -10.6055l-14.1426 14.1416l-130.812 -130.812l130.812 -130.812l14.1426 14.1416l10.6064 -10.6064l-98.9932 -98.9932l-10.6064 10.6064l14.1416 14.1416l-130.812 130.812l-127.277 -127.276l14.1426 -14.1426l-10.6064 -10.6055z" />
    <glyph glyph-name="Oslash" unicode="&#xd8;" horiz-adv-x="910" 
d="M35 -35h33l100 119q-54 46 -86 112.5t-32 153.5q0 88 32 155t88.5 112.5t129.5 69t155 23.5q113 0 205 -43l57 68h-27v15h180v-15h-33l-98 -117q56 -45 88.5 -112.5t32.5 -155.5t-32 -155t-88.5 -112.5t-129.5 -69t-155 -23.5q-116 0 -209 44l-58 -69h27v-15h-180v15z
M165 350q0 -57 20.5 -102.5t54.5 -77.5l349 413q-62 27 -134 27q-76 0 -142.5 -31t-107 -89t-40.5 -140zM745 350q0 58 -21 104t-57 79l-350 -414q64 -29 138 -29q77 0 143 31t106.5 89t40.5 140z" />
    <glyph glyph-name="Ugrave" unicode="&#xd9;" 
d="M489.442 817.486l8.5 -9.34961l-73.0986 -57.7988l-8.49902 9.34961l11.0498 8.5l-139.396 116.446l-10.1992 -7.64941l-8.5 9.34961l91.7969 67.1484l8.5 -9.34961l-10.1992 -7.65039l119.846 -127.496zM55 685v15h155v-15h-20v-443q0 -79 59 -115.5t156 -36.5
q105 0 160 36.5t55 115.5v443h-20v15h155v-15h-20v-455q0 -63 -26.5 -108.5t-73 -74.5t-105.5 -43t-125 -14t-125 14t-105.5 43t-73 74.5t-26.5 108.5v455h-20z" />
    <glyph glyph-name="Uacute" unicode="&#xda;" 
d="M339.299 817.486l10.1992 -8.5l119.847 127.496l-10.1992 7.65039l8.49902 9.34961l91.7979 -67.1484l-8.5 -9.34961l-10.1992 7.64941l-139.396 -116.446l11.0498 -8.5l-8.5 -9.34961l-73.0977 57.7988zM55 685v15h155v-15h-20v-443q0 -79 59 -115.5t156 -36.5
q105 0 160 36.5t55 115.5v443h-20v15h155v-15h-20v-455q0 -63 -26.5 -108.5t-73 -74.5t-105.5 -43t-125 -14t-125 14t-105.5 43t-73 74.5t-26.5 108.5v455h-20z" />
    <glyph glyph-name="Ucircumflex" unicode="&#xdb;" 
d="M375 808v-15h-140v15h23l104 120h-17v15h140v-15h-17l104 -120h23v-15h-140v15h18l-58 76l-58 -76h18zM55 685v15h155v-15h-20v-443q0 -79 59 -115.5t156 -36.5q105 0 160 36.5t55 115.5v443h-20v15h155v-15h-20v-455q0 -63 -26.5 -108.5t-73 -74.5t-105.5 -43t-125 -14
t-125 14t-105.5 43t-73 74.5t-26.5 108.5v455h-20z" />
    <glyph glyph-name="Udieresis" unicode="&#xdc;" 
d="M438.999 820.995q0 23.1992 15.5996 39.5996q15.5996 16.3994 40.3994 16.3994t40.3994 -16.3994q15.5996 -16.4004 15.5996 -39.5996q0 -22.3994 -15.5996 -39.1992t-40.3994 -16.7998t-40.3994 16.7998t-15.5996 39.1992zM278.999 820.995q0 23.1992 15.5996 39.5996
q15.5996 16.3994 40.3994 16.3994t40.3994 -16.3994q15.5996 -16.4004 15.5996 -39.5996q0 -22.3994 -15.5996 -39.1992t-40.3994 -16.7998t-40.3994 16.7998t-15.5996 39.1992zM55 685v15h155v-15h-20v-443q0 -79 59 -115.5t156 -36.5q105 0 160 36.5t55 115.5v443h-20v15
h155v-15h-20v-455q0 -63 -26.5 -108.5t-73 -74.5t-105.5 -43t-125 -14t-125 14t-105.5 43t-73 74.5t-26.5 108.5v455h-20z" />
    <glyph glyph-name="Yacute" unicode="&#xdd;" horiz-adv-x="701" 
d="M312.299 817.486l10.1992 -8.5l119.847 127.496l-10.1992 7.65039l8.49902 9.34961l91.7979 -67.1484l-8.5 -9.34961l-10.1992 7.64941l-139.396 -116.446l11.0498 -8.5l-8.5 -9.34961l-73.0977 57.7988zM261 0v15h30v286l-285 384h-16v15h175v-15h-19l202 -289l212 289
h-24v15h175v-15h-16l-290 -383v-287h30v-15h-174z" />
    <glyph glyph-name="Thorn" unicode="&#xde;" horiz-adv-x="753" 
d="M65 0v15h20v670h-20v15h150v-15h-20v-114h285q63 0 117 -18t87.5 -61.5t33.5 -120.5q0 -76 -33.5 -120t-87.5 -62t-117 -18h-285v-156h20v-15h-150zM470 471h-275v-200h275q133 0 133 100t-133 100z" />
    <glyph glyph-name="germandbls" unicode="&#xdf;" horiz-adv-x="861" 
d="M55 0v15h20v415q0 82 28.5 136.5t78 86.5t114 45.5t135.5 13.5q84 0 152 -24.5t118.5 -60.5t81.5 -70l17 15l10 -12q-19 -17 -51 -39.5t-65 -46.5t-56 -47t-23 -43q0 -18 15.5 -29.5t40 -21t52.5 -20.5t52.5 -27.5t40 -42t15.5 -64.5q0 -57 -36.5 -100t-101 -67
t-148.5 -24q-76 0 -138.5 19.5t-104.5 44.5l-9 -19l-14 7l60 126l14 -7l-7 -16q25 -14 57 -27.5t65.5 -22.5t62.5 -9q40 0 80.5 7.5t68 27t27.5 53.5q0 26 -15.5 42t-40 27t-51.5 21t-51.5 23t-40 33t-15.5 51q0 32 18 58.5t43.5 47.5t49.5 37.5t35 28.5q-15 14 -45.5 30.5
t-73.5 28t-98 11.5q-65 0 -118 -15t-84.5 -56.5t-31.5 -120.5l2 -404h20v-15h-155z" />
    <glyph glyph-name="agrave" unicode="&#xe0;" horiz-adv-x="784" 
d="M464.442 817.486l8.5 -9.34961l-73.0986 -57.7988l-8.49902 9.34961l11.0498 8.5l-139.396 116.446l-10.1992 -7.64941l-8.5 9.34961l91.7969 67.1484l8.5 -9.34961l-10.1992 -7.65039l119.846 -127.496zM0 0v15h17l316 670h-13v15h144v-15h-13l316 -670h17v-15h-157v15
h18l-83 185h-340l-83 -185h18v-15h-157zM392 581l-130 -291h260z" />
    <glyph glyph-name="aacute" unicode="&#xe1;" horiz-adv-x="784" 
d="M314.299 817.486l10.1992 -8.5l119.847 127.496l-10.1992 7.65039l8.49902 9.34961l91.7979 -67.1484l-8.5 -9.34961l-10.1992 7.64941l-139.396 -116.446l11.0498 -8.5l-8.5 -9.34961l-73.0977 57.7988zM0 0v15h17l316 670h-13v15h144v-15h-13l316 -670h17v-15h-157v15
h18l-83 185h-340l-83 -185h18v-15h-157zM392 581l-130 -291h260z" />
    <glyph glyph-name="acircumflex" unicode="&#xe2;" horiz-adv-x="784" 
d="M350 808v-15h-140v15h23l104 120h-17v15h140v-15h-17l104 -120h23v-15h-140v15h18l-58 76l-58 -76h18zM0 0v15h17l316 670h-13v15h144v-15h-13l316 -670h17v-15h-157v15h18l-83 185h-340l-83 -185h18v-15h-157zM392 581l-130 -291h260z" />
    <glyph glyph-name="atilde" unicode="&#xe3;" horiz-adv-x="784" 
d="M169 780v15h22q-1 6 -1.5 15t-0.5 15q0 16 5 39t19 41q14 19 36.5 30.5t53.5 11.5q28 0 48.5 -10t36.5 -26q15 -16 34 -37.5t38 -21.5q20 0 25.5 13.5t5.5 35.5q0 8 -3 21h-21v15h124v-15h-20q3 -17 3 -32t-4.5 -39.5t-17.5 -41.5q-13 -18 -27 -27.5t-49 -9.5
q-33 0 -54.5 13.5t-36.5 29.5q-14 15 -34 33.5t-46 18.5q-23 0 -30.5 -17.5t-7.5 -36.5q0 -9 4 -18h22v-15h-124zM0 0v15h17l316 670h-13v15h144v-15h-13l316 -670h17v-15h-157v15h18l-83 185h-340l-83 -185h18v-15h-157zM392 581l-130 -291h260z" />
    <glyph glyph-name="adieresis" unicode="&#xe4;" horiz-adv-x="784" 
d="M413.999 820.995q0 23.1992 15.5996 39.5996q15.5996 16.3994 40.3994 16.3994t40.3994 -16.3994q15.5996 -16.4004 15.5996 -39.5996q0 -22.3994 -15.5996 -39.1992t-40.3994 -16.7998t-40.3994 16.7998t-15.5996 39.1992zM253.999 820.995q0 23.1992 15.5996 39.5996
q15.5996 16.3994 40.3994 16.3994t40.3994 -16.3994q15.5996 -16.4004 15.5996 -39.5996q0 -22.3994 -15.5996 -39.1992t-40.3994 -16.7998t-40.3994 16.7998t-15.5996 39.1992zM0 0v15h17l316 670h-13v15h144v-15h-13l316 -670h17v-15h-157v15h18l-83 185h-340l-83 -185h18
v-15h-157zM392 581l-130 -291h260z" />
    <glyph glyph-name="aring" unicode="&#xe5;" horiz-adv-x="784" 
d="M300 850q0 38 26 64t64 26t64 -26t26 -64t-26 -64t-64 -26t-64 26t-26 64zM340 850q0 -25 14.5 -39t35.5 -14t36 14t15 39q0 26 -15 40t-36 14t-35.5 -14t-14.5 -40zM0 0v15h17l316 670h-13v15h144v-15h-13l316 -670h17v-15h-157v15h18l-83 185h-340l-83 -185h18v-15
h-157zM392 581l-130 -291h260z" />
    <glyph glyph-name="ae" unicode="&#xe6;" horiz-adv-x="1196" 
d="M0 0v15h19l422 670h-23v15h718v15h15v-140h-15v25h-491v-195h321v15h15v-125h-15v15h-321v-210h491v30h15v-140h-15v10h-621v15h20v185h-277l-117 -185h16v-15h-157zM314 290h221v351z" />
    <glyph glyph-name="ccedilla" unicode="&#xe7;" horiz-adv-x="875" 
d="M451 -168q0 31 -31.5 42.5t-80.5 11.5l90 120h44l-60 -80q77 -2 113 -20.5t36 -60.5q0 -25 -21 -47.5t-66.5 -37t-121.5 -14.5v36q44 0 71 14t27 36zM165 350q0 -74 36.5 -133t105.5 -93t168 -34q58 0 110 16t95 41t73 50l-8 11l13 8l77 -110l-13 -8l-8 12
q-35 -26 -84 -53.5t-112.5 -47t-142.5 -19.5q-131 0 -226.5 45.5t-147 126.5t-51.5 188t51.5 188t147 126.5t226.5 45.5q78 0 138.5 -16.5t105.5 -40t75 -43.5l6 9l13 -8l-76 -112l-13 8l9 14q-25 20 -63.5 40.5t-88 34.5t-106.5 14q-99 0 -168 -34t-105.5 -93t-36.5 -133z
" />
    <glyph glyph-name="egrave" unicode="&#xe8;" horiz-adv-x="746" 
d="M471.442 817.486l8.5 -9.34961l-73.0986 -57.7988l-8.49902 9.34961l11.0498 8.5l-139.396 116.446l-10.1992 -7.64941l-8.5 9.34961l91.7969 67.1484l8.5 -9.34961l-10.1992 -7.65039l119.846 -127.496zM65 0v15h20v670h-20v15h621v15h15v-140h-15v25h-491v-195h321v15
h15v-125h-15v15h-321v-210h491v30h15v-140h-15v10h-621z" />
    <glyph glyph-name="eacute" unicode="&#xe9;" horiz-adv-x="746" 
d="M341.299 817.486l10.1992 -8.5l119.847 127.496l-10.1992 7.65039l8.49902 9.34961l91.7979 -67.1484l-8.5 -9.34961l-10.1992 7.64941l-139.396 -116.446l11.0498 -8.5l-8.5 -9.34961l-73.0977 57.7988zM65 0v15h20v670h-20v15h621v15h15v-140h-15v25h-491v-195h321v15
h15v-125h-15v15h-321v-210h491v30h15v-140h-15v10h-621z" />
    <glyph glyph-name="ecircumflex" unicode="&#xea;" horiz-adv-x="746" 
d="M367 808v-15h-140v15h23l104 120h-17v15h140v-15h-17l104 -120h23v-15h-140v15h18l-58 76l-58 -76h18zM65 0v15h20v670h-20v15h621v15h15v-140h-15v25h-491v-195h321v15h15v-125h-15v15h-321v-210h491v30h15v-140h-15v10h-621z" />
    <glyph glyph-name="edieresis" unicode="&#xeb;" horiz-adv-x="746" 
d="M430.999 820.995q0 23.1992 15.5996 39.5996q15.5996 16.3994 40.3994 16.3994t40.3994 -16.3994q15.5996 -16.4004 15.5996 -39.5996q0 -22.3994 -15.5996 -39.1992t-40.3994 -16.7998t-40.3994 16.7998t-15.5996 39.1992zM270.999 820.995q0 23.1992 15.5996 39.5996
q15.5996 16.3994 40.3994 16.3994t40.3994 -16.3994q15.5996 -16.4004 15.5996 -39.5996q0 -22.3994 -15.5996 -39.1992t-40.3994 -16.7998t-40.3994 16.7998t-15.5996 39.1992zM65 0v15h20v670h-20v15h621v15h15v-140h-15v25h-491v-195h321v15h15v-125h-15v15h-321v-210
h491v30h15v-140h-15v10h-621z" />
    <glyph glyph-name="igrave" unicode="&#xec;" horiz-adv-x="290" 
d="M219.442 817.486l8.5 -9.34961l-73.0986 -57.7988l-8.49902 9.34961l11.0498 8.5l-139.396 116.446l-10.1992 -7.64941l-8.5 9.34961l91.7969 67.1484l8.5 -9.34961l-10.1992 -7.65039l119.846 -127.496zM65 0v15h20v670h-20v15h160v-15h-20v-670h20v-15h-160z" />
    <glyph glyph-name="iacute" unicode="&#xed;" horiz-adv-x="290" 
d="M69.2988 817.486l10.1992 -8.5l119.847 127.496l-10.1992 7.65039l8.49902 9.34961l91.7979 -67.1484l-8.5 -9.34961l-10.1992 7.64941l-139.396 -116.446l11.0498 -8.5l-8.5 -9.34961l-73.0977 57.7988zM65 0v15h20v670h-20v15h160v-15h-20v-670h20v-15h-160z" />
    <glyph glyph-name="icircumflex" unicode="&#xee;" horiz-adv-x="290" 
d="M105 808v-15h-140v15h23l104 120h-17v15h140v-15h-17l104 -120h23v-15h-140v15h18l-58 76l-58 -76h18zM65 0v15h20v670h-20v15h160v-15h-20v-670h20v-15h-160z" />
    <glyph glyph-name="idieresis" unicode="&#xef;" horiz-adv-x="290" 
d="M168.999 820.995q0 23.1992 15.5996 39.5996q15.5996 16.3994 40.3994 16.3994t40.3994 -16.3994q15.5996 -16.4004 15.5996 -39.5996q0 -22.3994 -15.5996 -39.1992t-40.3994 -16.7998t-40.3994 16.7998t-15.5996 39.1992zM8.99902 820.995q0 23.1992 15.5996 39.5996
q15.5996 16.3994 40.3994 16.3994t40.3994 -16.3994q15.5996 -16.4004 15.5996 -39.5996q0 -22.3994 -15.5996 -39.1992t-40.3994 -16.7998t-40.3994 16.7998t-15.5996 39.1992zM65 0v15h20v670h-20v15h160v-15h-20v-670h20v-15h-160z" />
    <glyph glyph-name="eth" unicode="&#xf0;" horiz-adv-x="751" 
d="M65 0v15h20v670h-20v15h382q102 0 181 -42t124 -120t45 -188q0 -109 -45 -187.5t-124 -120.5t-181 -42h-382zM437 600h-242v-500h242q119 0 179.5 64t60.5 186t-60.5 186t-179.5 64zM17.334 420h18.25v-15h304.168v15h18.25v-130h-18.25v15h-304.168v-15h-18.25v130z" />
    <glyph glyph-name="ntilde" unicode="&#xf1;" horiz-adv-x="860" 
d="M248 780v15h22q-1 6 -1.5 15t-0.5 15q0 16 5 39t19 41q14 19 36.5 30.5t53.5 11.5q28 0 48.5 -10t36.5 -26q15 -16 34 -37.5t38 -21.5q20 0 25.5 13.5t5.5 35.5q0 8 -3 21h-21v15h124v-15h-20q3 -17 3 -32t-4.5 -39.5t-17.5 -41.5q-13 -18 -27 -27.5t-49 -9.5
q-33 0 -54.5 13.5t-36.5 29.5q-14 15 -34 33.5t-46 18.5q-23 0 -30.5 -17.5t-7.5 -36.5q0 -9 4 -18h22v-15h-124zM65 0v15h20v670h-20v15h200v-15h-27l427 -507v507h-20v15h150v-15h-20v-670h20v-15h-170v15h30l-460 553v-553h20v-15h-150z" />
    <glyph glyph-name="ograve" unicode="&#xf2;" horiz-adv-x="910" 
d="M529.442 817.486l8.5 -9.34961l-73.0986 -57.7988l-8.49902 9.34961l11.0498 8.5l-139.396 116.446l-10.1992 -7.64941l-8.5 9.34961l91.7969 67.1484l8.5 -9.34961l-10.1992 -7.65039l119.846 -127.496zM50 350q0 88 32 155t88.5 112.5t129.5 69t155 23.5t155 -23.5
t129.5 -69t88.5 -112.5t32 -155t-32 -155t-88.5 -112.5t-129.5 -69t-155 -23.5t-155 23.5t-129.5 69t-88.5 112.5t-32 155zM165 350q0 -82 40.5 -140t107 -89t142.5 -31q77 0 143 31t106.5 89t40.5 140t-40.5 140t-106.5 89t-143 31q-76 0 -142.5 -31t-107 -89t-40.5 -140z
" />
    <glyph glyph-name="oacute" unicode="&#xf3;" horiz-adv-x="910" 
d="M379.299 817.486l10.1992 -8.5l119.847 127.496l-10.1992 7.65039l8.49902 9.34961l91.7979 -67.1484l-8.5 -9.34961l-10.1992 7.64941l-139.396 -116.446l11.0498 -8.5l-8.5 -9.34961l-73.0977 57.7988zM50 350q0 88 32 155t88.5 112.5t129.5 69t155 23.5t155 -23.5
t129.5 -69t88.5 -112.5t32 -155t-32 -155t-88.5 -112.5t-129.5 -69t-155 -23.5t-155 23.5t-129.5 69t-88.5 112.5t-32 155zM165 350q0 -82 40.5 -140t107 -89t142.5 -31q77 0 143 31t106.5 89t40.5 140t-40.5 140t-106.5 89t-143 31q-76 0 -142.5 -31t-107 -89t-40.5 -140z
" />
    <glyph glyph-name="ocircumflex" unicode="&#xf4;" horiz-adv-x="910" 
d="M415 808v-15h-140v15h23l104 120h-17v15h140v-15h-17l104 -120h23v-15h-140v15h18l-58 76l-58 -76h18zM50 350q0 88 32 155t88.5 112.5t129.5 69t155 23.5t155 -23.5t129.5 -69t88.5 -112.5t32 -155t-32 -155t-88.5 -112.5t-129.5 -69t-155 -23.5t-155 23.5t-129.5 69
t-88.5 112.5t-32 155zM165 350q0 -82 40.5 -140t107 -89t142.5 -31q77 0 143 31t106.5 89t40.5 140t-40.5 140t-106.5 89t-143 31q-76 0 -142.5 -31t-107 -89t-40.5 -140z" />
    <glyph glyph-name="otilde" unicode="&#xf5;" horiz-adv-x="910" 
d="M234 780v15h22q-1 6 -1.5 15t-0.5 15q0 16 5 39t19 41q14 19 36.5 30.5t53.5 11.5q28 0 48.5 -10t36.5 -26q15 -16 34 -37.5t38 -21.5q20 0 25.5 13.5t5.5 35.5q0 8 -3 21h-21v15h124v-15h-20q3 -17 3 -32t-4.5 -39.5t-17.5 -41.5q-13 -18 -27 -27.5t-49 -9.5
q-33 0 -54.5 13.5t-36.5 29.5q-14 15 -34 33.5t-46 18.5q-23 0 -30.5 -17.5t-7.5 -36.5q0 -9 4 -18h22v-15h-124zM50 350q0 88 32 155t88.5 112.5t129.5 69t155 23.5t155 -23.5t129.5 -69t88.5 -112.5t32 -155t-32 -155t-88.5 -112.5t-129.5 -69t-155 -23.5t-155 23.5
t-129.5 69t-88.5 112.5t-32 155zM165 350q0 -82 40.5 -140t107 -89t142.5 -31q77 0 143 31t106.5 89t40.5 140t-40.5 140t-106.5 89t-143 31q-76 0 -142.5 -31t-107 -89t-40.5 -140z" />
    <glyph glyph-name="odieresis" unicode="&#xf6;" horiz-adv-x="910" 
d="M478.999 820.995q0 23.1992 15.5996 39.5996q15.5996 16.3994 40.3994 16.3994t40.3994 -16.3994q15.5996 -16.4004 15.5996 -39.5996q0 -22.3994 -15.5996 -39.1992t-40.3994 -16.7998t-40.3994 16.7998t-15.5996 39.1992zM318.999 820.995q0 23.1992 15.5996 39.5996
q15.5996 16.3994 40.3994 16.3994t40.3994 -16.3994q15.5996 -16.4004 15.5996 -39.5996q0 -22.3994 -15.5996 -39.1992t-40.3994 -16.7998t-40.3994 16.7998t-15.5996 39.1992zM50 350q0 88 32 155t88.5 112.5t129.5 69t155 23.5t155 -23.5t129.5 -69t88.5 -112.5t32 -155
t-32 -155t-88.5 -112.5t-129.5 -69t-155 -23.5t-155 23.5t-129.5 69t-88.5 112.5t-32 155zM165 350q0 -82 40.5 -140t107 -89t142.5 -31q77 0 143 31t106.5 89t40.5 140t-40.5 140t-106.5 89t-143 31q-76 0 -142.5 -31t-107 -89t-40.5 -140z" />
    <glyph glyph-name="divide" unicode="&#xf7;" horiz-adv-x="531" 
d="M200 485q0 29 19.5 49.5t50.5 20.5t50.5 -20.5t19.5 -49.5q0 -28 -19.5 -49t-50.5 -21t-50.5 21t-19.5 49zM200 125q0 29 19.5 49.5t50.5 20.5t50.5 -20.5t19.5 -49.5q0 -28 -19.5 -49t-50.5 -21t-50.5 21t-19.5 49zM20 370h15v-15h461v15h15v-130h-15v15h-461v-15h-15
v130z" />
    <glyph glyph-name="oslash" unicode="&#xf8;" horiz-adv-x="910" 
d="M35 -35h33l100 119q-54 46 -86 112.5t-32 153.5q0 88 32 155t88.5 112.5t129.5 69t155 23.5q113 0 205 -43l57 68h-27v15h180v-15h-33l-98 -117q56 -45 88.5 -112.5t32.5 -155.5t-32 -155t-88.5 -112.5t-129.5 -69t-155 -23.5q-116 0 -209 44l-58 -69h27v-15h-180v15z
M165 350q0 -57 20.5 -102.5t54.5 -77.5l349 413q-62 27 -134 27q-76 0 -142.5 -31t-107 -89t-40.5 -140zM745 350q0 58 -21 104t-57 79l-350 -414q64 -29 138 -29q77 0 143 31t106.5 89t40.5 140z" />
    <glyph glyph-name="ugrave" unicode="&#xf9;" 
d="M489.442 817.486l8.5 -9.34961l-73.0986 -57.7988l-8.49902 9.34961l11.0498 8.5l-139.396 116.446l-10.1992 -7.64941l-8.5 9.34961l91.7969 67.1484l8.5 -9.34961l-10.1992 -7.65039l119.846 -127.496zM55 685v15h155v-15h-20v-443q0 -79 59 -115.5t156 -36.5
q105 0 160 36.5t55 115.5v443h-20v15h155v-15h-20v-455q0 -63 -26.5 -108.5t-73 -74.5t-105.5 -43t-125 -14t-125 14t-105.5 43t-73 74.5t-26.5 108.5v455h-20z" />
    <glyph glyph-name="uacute" unicode="&#xfa;" 
d="M339.299 817.486l10.1992 -8.5l119.847 127.496l-10.1992 7.65039l8.49902 9.34961l91.7979 -67.1484l-8.5 -9.34961l-10.1992 7.64941l-139.396 -116.446l11.0498 -8.5l-8.5 -9.34961l-73.0977 57.7988zM55 685v15h155v-15h-20v-443q0 -79 59 -115.5t156 -36.5
q105 0 160 36.5t55 115.5v443h-20v15h155v-15h-20v-455q0 -63 -26.5 -108.5t-73 -74.5t-105.5 -43t-125 -14t-125 14t-105.5 43t-73 74.5t-26.5 108.5v455h-20z" />
    <glyph glyph-name="ucircumflex" unicode="&#xfb;" 
d="M375 808v-15h-140v15h23l104 120h-17v15h140v-15h-17l104 -120h23v-15h-140v15h18l-58 76l-58 -76h18zM55 685v15h155v-15h-20v-443q0 -79 59 -115.5t156 -36.5q105 0 160 36.5t55 115.5v443h-20v15h155v-15h-20v-455q0 -63 -26.5 -108.5t-73 -74.5t-105.5 -43t-125 -14
t-125 14t-105.5 43t-73 74.5t-26.5 108.5v455h-20z" />
    <glyph glyph-name="udieresis" unicode="&#xfc;" 
d="M438.999 820.995q0 23.1992 15.5996 39.5996q15.5996 16.3994 40.3994 16.3994t40.3994 -16.3994q15.5996 -16.4004 15.5996 -39.5996q0 -22.3994 -15.5996 -39.1992t-40.3994 -16.7998t-40.3994 16.7998t-15.5996 39.1992zM278.999 820.995q0 23.1992 15.5996 39.5996
q15.5996 16.3994 40.3994 16.3994t40.3994 -16.3994q15.5996 -16.4004 15.5996 -39.5996q0 -22.3994 -15.5996 -39.1992t-40.3994 -16.7998t-40.3994 16.7998t-15.5996 39.1992zM55 685v15h155v-15h-20v-443q0 -79 59 -115.5t156 -36.5q105 0 160 36.5t55 115.5v443h-20v15
h155v-15h-20v-455q0 -63 -26.5 -108.5t-73 -74.5t-105.5 -43t-125 -14t-125 14t-105.5 43t-73 74.5t-26.5 108.5v455h-20z" />
    <glyph glyph-name="yacute" unicode="&#xfd;" horiz-adv-x="701" 
d="M312.299 817.486l10.1992 -8.5l119.847 127.496l-10.1992 7.65039l8.49902 9.34961l91.7979 -67.1484l-8.5 -9.34961l-10.1992 7.64941l-139.396 -116.446l11.0498 -8.5l-8.5 -9.34961l-73.0977 57.7988zM261 0v15h30v286l-285 384h-16v15h175v-15h-19l202 -289l212 289
h-24v15h175v-15h-16l-290 -383v-287h30v-15h-174z" />
    <glyph glyph-name="thorn" unicode="&#xfe;" horiz-adv-x="753" 
d="M65 0v15h20v670h-20v15h150v-15h-20v-114h285q63 0 117 -18t87.5 -61.5t33.5 -120.5q0 -76 -33.5 -120t-87.5 -62t-117 -18h-285v-156h20v-15h-150zM470 471h-275v-200h275q133 0 133 100t-133 100z" />
    <glyph glyph-name="ydieresis" unicode="&#xff;" horiz-adv-x="701" 
d="M374.999 825.995q0 23.1992 15.5996 39.5996q15.5996 16.3994 40.3994 16.3994t40.3994 -16.3994q15.5996 -16.4004 15.5996 -39.5996q0 -22.3994 -15.5996 -39.1992t-40.3994 -16.7998t-40.3994 16.7998t-15.5996 39.1992zM214.999 825.995q0 23.1992 15.5996 39.5996
q15.5996 16.3994 40.3994 16.3994t40.3994 -16.3994q15.5996 -16.4004 15.5996 -39.5996q0 -22.3994 -15.5996 -39.1992t-40.3994 -16.7998t-40.3994 16.7998t-15.5996 39.1992zM261 0v15h30v286l-285 384h-16v15h175v-15h-19l202 -289l212 289h-24v15h175v-15h-16
l-290 -383v-287h30v-15h-174z" />
    <glyph glyph-name="Amacron" unicode="&#x100;" horiz-adv-x="784" 
d="M495 895h15v-110h-15v15h-210v-15h-15v110h15v-15h210v15zM0 0v15h17l316 670h-13v15h144v-15h-13l316 -670h17v-15h-157v15h18l-83 185h-340l-83 -185h18v-15h-157zM392 581l-130 -291h260z" />
    <glyph glyph-name="amacron" unicode="&#x101;" horiz-adv-x="784" 
d="M495 895h15v-110h-15v15h-210v-15h-15v110h15v-15h210v15zM0 0v15h17l316 670h-13v15h144v-15h-13l316 -670h17v-15h-157v15h18l-83 185h-340l-83 -185h18v-15h-157zM392 581l-130 -291h260z" />
    <glyph glyph-name="Abreve" unicode="&#x102;" horiz-adv-x="784" 
d="M220 919v15h115v-15h-20q0 -29 21 -44t54 -15t54 15t21 44h-20v15h115v-15h-20q0 -61 -37.5 -95t-112.5 -34t-112.5 34t-37.5 95h-20zM0 0v15h17l316 670h-13v15h144v-15h-13l316 -670h17v-15h-157v15h18l-83 185h-340l-83 -185h18v-15h-157zM392 581l-130 -291h260z" />
    <glyph glyph-name="abreve" unicode="&#x103;" horiz-adv-x="784" 
d="M220 919v15h115v-15h-20q0 -29 21 -44t54 -15t54 15t21 44h-20v15h115v-15h-20q0 -61 -37.5 -95t-112.5 -34t-112.5 34t-37.5 95h-20zM0 0v15h17l316 670h-13v15h144v-15h-13l316 -670h17v-15h-157v15h18l-83 185h-340l-83 -185h18v-15h-157zM392 581l-130 -291h260z" />
    <glyph glyph-name="Aogonek" unicode="&#x104;" horiz-adv-x="784" 
d="M815 -138q-7 -14 -21 -31t-39 -29t-65 -12q-53 0 -80.5 25t-27.5 70q0 40 24.5 66t59.5 42t65 26l12 -19q-23 -13 -40.5 -40t-17.5 -59q0 -28 16.5 -43.5t41.5 -15.5q21 0 37 6t26 20zM0 0v15h17l316 670h-13v15h144v-15h-13l316 -670h17v-15h-157v15h18l-83 185h-340
l-83 -185h18v-15h-157zM392 581l-130 -291h260z" />
    <glyph glyph-name="aogonek" unicode="&#x105;" horiz-adv-x="784" 
d="M815 -138q-7 -14 -21 -31t-39 -29t-65 -12q-53 0 -80.5 25t-27.5 70q0 40 24.5 66t59.5 42t65 26l12 -19q-23 -13 -40.5 -40t-17.5 -59q0 -28 16.5 -43.5t41.5 -15.5q21 0 37 6t26 20zM0 0v15h17l316 670h-13v15h144v-15h-13l316 -670h17v-15h-157v15h18l-83 185h-340
l-83 -185h18v-15h-157zM392 581l-130 -291h260z" />
    <glyph glyph-name="Cacute" unicode="&#x106;" horiz-adv-x="875" 
d="M399.299 817.486l10.1992 -8.5l119.847 127.496l-10.1992 7.65039l8.49902 9.34961l91.7979 -67.1484l-8.5 -9.34961l-10.1992 7.64941l-139.396 -116.446l11.0498 -8.5l-8.5 -9.34961l-73.0977 57.7988zM165 350q0 -74 36.5 -133t105.5 -93t168 -34q58 0 110 16t95 41
t73 50l-8 11l13 8l77 -110l-13 -8l-8 12q-35 -26 -84 -53.5t-112.5 -47t-142.5 -19.5q-131 0 -226.5 45.5t-147 126.5t-51.5 188t51.5 188t147 126.5t226.5 45.5q78 0 138.5 -16.5t105.5 -40t75 -43.5l6 9l13 -8l-76 -112l-13 8l9 14q-25 20 -63.5 40.5t-88 34.5t-106.5 14
q-99 0 -168 -34t-105.5 -93t-36.5 -133z" />
    <glyph glyph-name="cacute" unicode="&#x107;" horiz-adv-x="875" 
d="M399.299 817.486l10.1992 -8.5l119.847 127.496l-10.1992 7.65039l8.49902 9.34961l91.7979 -67.1484l-8.5 -9.34961l-10.1992 7.64941l-139.396 -116.446l11.0498 -8.5l-8.5 -9.34961l-73.0977 57.7988zM165 350q0 -74 36.5 -133t105.5 -93t168 -34q58 0 110 16t95 41
t73 50l-8 11l13 8l77 -110l-13 -8l-8 12q-35 -26 -84 -53.5t-112.5 -47t-142.5 -19.5q-131 0 -226.5 45.5t-147 126.5t-51.5 188t51.5 188t147 126.5t226.5 45.5q78 0 138.5 -16.5t105.5 -40t75 -43.5l6 9l13 -8l-76 -112l-13 8l9 14q-25 20 -63.5 40.5t-88 34.5t-106.5 14
q-99 0 -168 -34t-105.5 -93t-36.5 -133z" />
    <glyph glyph-name="Ccircumflex" unicode="&#x108;" horiz-adv-x="875" 
d="M435 808v-15h-140v15h23l104 120h-17v15h140v-15h-17l104 -120h23v-15h-140v15h18l-58 76l-58 -76h18zM165 350q0 -74 36.5 -133t105.5 -93t168 -34q58 0 110 16t95 41t73 50l-8 11l13 8l77 -110l-13 -8l-8 12q-35 -26 -84 -53.5t-112.5 -47t-142.5 -19.5
q-131 0 -226.5 45.5t-147 126.5t-51.5 188t51.5 188t147 126.5t226.5 45.5q78 0 138.5 -16.5t105.5 -40t75 -43.5l6 9l13 -8l-76 -112l-13 8l9 14q-25 20 -63.5 40.5t-88 34.5t-106.5 14q-99 0 -168 -34t-105.5 -93t-36.5 -133z" />
    <glyph glyph-name="ccircumflex" unicode="&#x109;" horiz-adv-x="875" 
d="M435 808v-15h-140v15h23l104 120h-17v15h140v-15h-17l104 -120h23v-15h-140v15h18l-58 76l-58 -76h18zM165 350q0 -74 36.5 -133t105.5 -93t168 -34q58 0 110 16t95 41t73 50l-8 11l13 8l77 -110l-13 -8l-8 12q-35 -26 -84 -53.5t-112.5 -47t-142.5 -19.5
q-131 0 -226.5 45.5t-147 126.5t-51.5 188t51.5 188t147 126.5t226.5 45.5q78 0 138.5 -16.5t105.5 -40t75 -43.5l6 9l13 -8l-76 -112l-13 8l9 14q-25 20 -63.5 40.5t-88 34.5t-106.5 14q-99 0 -168 -34t-105.5 -93t-36.5 -133z" />
    <glyph glyph-name="Cdotaccent" unicode="&#x10a;" horiz-adv-x="875" 
d="M418.999 829.999q0 23.2002 15.5996 39.5996t40.3994 16.3994t40.3994 -16.3994t15.5996 -39.5996q0 -22.3994 -15.5996 -39.1992t-40.3994 -16.7998t-40.3994 16.7998t-15.5996 39.1992zM165 350q0 -74 36.5 -133t105.5 -93t168 -34q58 0 110 16t95 41t73 50l-8 11l13 8
l77 -110l-13 -8l-8 12q-35 -26 -84 -53.5t-112.5 -47t-142.5 -19.5q-131 0 -226.5 45.5t-147 126.5t-51.5 188t51.5 188t147 126.5t226.5 45.5q78 0 138.5 -16.5t105.5 -40t75 -43.5l6 9l13 -8l-76 -112l-13 8l9 14q-25 20 -63.5 40.5t-88 34.5t-106.5 14q-99 0 -168 -34
t-105.5 -93t-36.5 -133z" />
    <glyph glyph-name="cdotaccent" unicode="&#x10b;" horiz-adv-x="875" 
d="M418.999 829.999q0 23.2002 15.5996 39.5996t40.3994 16.3994t40.3994 -16.3994t15.5996 -39.5996q0 -22.3994 -15.5996 -39.1992t-40.3994 -16.7998t-40.3994 16.7998t-15.5996 39.1992zM165 350q0 -74 36.5 -133t105.5 -93t168 -34q58 0 110 16t95 41t73 50l-8 11l13 8
l77 -110l-13 -8l-8 12q-35 -26 -84 -53.5t-112.5 -47t-142.5 -19.5q-131 0 -226.5 45.5t-147 126.5t-51.5 188t51.5 188t147 126.5t226.5 45.5q78 0 138.5 -16.5t105.5 -40t75 -43.5l6 9l13 -8l-76 -112l-13 8l9 14q-25 20 -63.5 40.5t-88 34.5t-106.5 14q-99 0 -168 -34
t-105.5 -93t-36.5 -133z" />
    <glyph glyph-name="Ccaron" unicode="&#x10c;" horiz-adv-x="875" 
d="M515 885v15h140v-15h-23l-104 -120h17v-15h-140v15h17l-104 120h-23v15h140v-15h-18l58 -76l58 76h-18zM165 350q0 -74 36.5 -133t105.5 -93t168 -34q58 0 110 16t95 41t73 50l-8 11l13 8l77 -110l-13 -8l-8 12q-35 -26 -84 -53.5t-112.5 -47t-142.5 -19.5
q-131 0 -226.5 45.5t-147 126.5t-51.5 188t51.5 188t147 126.5t226.5 45.5q78 0 138.5 -16.5t105.5 -40t75 -43.5l6 9l13 -8l-76 -112l-13 8l9 14q-25 20 -63.5 40.5t-88 34.5t-106.5 14q-99 0 -168 -34t-105.5 -93t-36.5 -133z" />
    <glyph glyph-name="ccaron" unicode="&#x10d;" horiz-adv-x="875" 
d="M515 885v15h140v-15h-23l-104 -120h17v-15h-140v15h17l-104 120h-23v15h140v-15h-18l58 -76l58 76h-18zM165 350q0 -74 36.5 -133t105.5 -93t168 -34q58 0 110 16t95 41t73 50l-8 11l13 8l77 -110l-13 -8l-8 12q-35 -26 -84 -53.5t-112.5 -47t-142.5 -19.5
q-131 0 -226.5 45.5t-147 126.5t-51.5 188t51.5 188t147 126.5t226.5 45.5q78 0 138.5 -16.5t105.5 -40t75 -43.5l6 9l13 -8l-76 -112l-13 8l9 14q-25 20 -63.5 40.5t-88 34.5t-106.5 14q-99 0 -168 -34t-105.5 -93t-36.5 -133z" />
    <glyph glyph-name="Dcaron" unicode="&#x10e;" horiz-adv-x="852" 
d="M427 885v15h140v-15h-23l-104 -120h17v-15h-140v15h17l-104 120h-23v15h140v-15h-18l58 -76l58 76h-18zM65 0v15h20v670h-20v15h382q102 0 181 -42t124 -120t45 -188q0 -109 -45 -187.5t-124 -120.5t-181 -42h-382zM437 600h-242v-500h242q119 0 179.5 64t60.5 186
t-60.5 186t-179.5 64z" />
    <glyph glyph-name="dcaron" unicode="&#x10f;" horiz-adv-x="852" 
d="M427 885v15h140v-15h-23l-104 -120h17v-15h-140v15h17l-104 120h-23v15h140v-15h-18l58 -76l58 76h-18zM65 0v15h20v670h-20v15h382q102 0 181 -42t124 -120t45 -188q0 -109 -45 -187.5t-124 -120.5t-181 -42h-382zM437 600h-242v-500h242q119 0 179.5 64t60.5 186
t-60.5 186t-179.5 64z" />
    <glyph glyph-name="Dcroat" unicode="&#x110;" horiz-adv-x="751" 
d="M65 0v15h20v670h-20v15h382q102 0 181 -42t124 -120t45 -188q0 -109 -45 -187.5t-124 -120.5t-181 -42h-382zM437 600h-242v-500h242q119 0 179.5 64t60.5 186t-60.5 186t-179.5 64zM17.334 420h18.25v-15h304.168v15h18.25v-130h-18.25v15h-304.168v-15h-18.25v130z" />
    <glyph glyph-name="dcroat" unicode="&#x111;" horiz-adv-x="751" 
d="M65 0v15h20v670h-20v15h382q102 0 181 -42t124 -120t45 -188q0 -109 -45 -187.5t-124 -120.5t-181 -42h-382zM437 600h-242v-500h242q119 0 179.5 64t60.5 186t-60.5 186t-179.5 64zM17.334 420h18.25v-15h304.168v15h18.25v-130h-18.25v15h-304.168v-15h-18.25v130z" />
    <glyph glyph-name="Emacron" unicode="&#x112;" horiz-adv-x="746" 
d="M492 895h15v-110h-15v15h-210v-15h-15v110h15v-15h210v15zM65 0v15h20v670h-20v15h621v15h15v-140h-15v25h-491v-195h321v15h15v-125h-15v15h-321v-210h491v30h15v-140h-15v10h-621z" />
    <glyph glyph-name="emacron" unicode="&#x113;" horiz-adv-x="746" 
d="M492 895h15v-110h-15v15h-210v-15h-15v110h15v-15h210v15zM65 0v15h20v670h-20v15h621v15h15v-140h-15v25h-491v-195h321v15h15v-125h-15v15h-321v-210h491v30h15v-140h-15v10h-621z" />
    <glyph glyph-name="Ebreve" unicode="&#x114;" horiz-adv-x="746" 
d="M217 919v15h115v-15h-20q0 -29 21 -44t54 -15t54 15t21 44h-20v15h115v-15h-20q0 -61 -37.5 -95t-112.5 -34t-112.5 34t-37.5 95h-20zM65 0v15h20v670h-20v15h621v15h15v-140h-15v25h-491v-195h321v15h15v-125h-15v15h-321v-210h491v30h15v-140h-15v10h-621z" />
    <glyph glyph-name="ebreve" unicode="&#x115;" horiz-adv-x="746" 
d="M217 919v15h115v-15h-20q0 -29 21 -44t54 -15t54 15t21 44h-20v15h115v-15h-20q0 -61 -37.5 -95t-112.5 -34t-112.5 34t-37.5 95h-20zM65 0v15h20v670h-20v15h621v15h15v-140h-15v25h-491v-195h321v15h15v-125h-15v15h-321v-210h491v30h15v-140h-15v10h-621z" />
    <glyph glyph-name="Edotaccent" unicode="&#x116;" horiz-adv-x="746" 
d="M330.999 829.999q0 23.2002 15.5996 39.5996t40.3994 16.3994t40.3994 -16.3994t15.5996 -39.5996q0 -22.3994 -15.5996 -39.1992t-40.3994 -16.7998t-40.3994 16.7998t-15.5996 39.1992zM65 0v15h20v670h-20v15h621v15h15v-140h-15v25h-491v-195h321v15h15v-125h-15v15
h-321v-210h491v30h15v-140h-15v10h-621z" />
    <glyph glyph-name="edotaccent" unicode="&#x117;" horiz-adv-x="746" 
d="M330.999 829.999q0 23.2002 15.5996 39.5996t40.3994 16.3994t40.3994 -16.3994t15.5996 -39.5996q0 -22.3994 -15.5996 -39.1992t-40.3994 -16.7998t-40.3994 16.7998t-15.5996 39.1992zM65 0v15h20v670h-20v15h621v15h15v-140h-15v25h-491v-195h321v15h15v-125h-15v15
h-321v-210h491v30h15v-140h-15v10h-621z" />
    <glyph glyph-name="Eogonek" unicode="&#x118;" horiz-adv-x="746" 
d="M684 -138q-7 -14 -21 -31t-39 -29t-65 -12q-53 0 -80.5 25t-27.5 70q0 40 24.5 66t59.5 42t65 26l12 -19q-23 -13 -40.5 -40t-17.5 -59q0 -28 16.5 -43.5t41.5 -15.5q21 0 37 6t26 20zM65 0v15h20v670h-20v15h621v15h15v-140h-15v25h-491v-195h321v15h15v-125h-15v15
h-321v-210h491v30h15v-140h-15v10h-621z" />
    <glyph glyph-name="eogonek" unicode="&#x119;" horiz-adv-x="746" 
d="M684 -138q-7 -14 -21 -31t-39 -29t-65 -12q-53 0 -80.5 25t-27.5 70q0 40 24.5 66t59.5 42t65 26l12 -19q-23 -13 -40.5 -40t-17.5 -59q0 -28 16.5 -43.5t41.5 -15.5q21 0 37 6t26 20zM65 0v15h20v670h-20v15h621v15h15v-140h-15v25h-491v-195h321v15h15v-125h-15v15
h-321v-210h491v30h15v-140h-15v10h-621z" />
    <glyph glyph-name="Ecaron" unicode="&#x11a;" horiz-adv-x="746" 
d="M427 885v15h140v-15h-23l-104 -120h17v-15h-140v15h17l-104 120h-23v15h140v-15h-18l58 -76l58 76h-18zM65 0v15h20v670h-20v15h621v15h15v-140h-15v25h-491v-195h321v15h15v-125h-15v15h-321v-210h491v30h15v-140h-15v10h-621z" />
    <glyph glyph-name="ecaron" unicode="&#x11b;" horiz-adv-x="746" 
d="M427 885v15h140v-15h-23l-104 -120h17v-15h-140v15h17l-104 120h-23v15h140v-15h-18l58 -76l58 76h-18zM65 0v15h20v670h-20v15h621v15h15v-140h-15v25h-491v-195h321v15h15v-125h-15v15h-321v-210h491v30h15v-140h-15v10h-621z" />
    <glyph glyph-name="Gcircumflex" unicode="&#x11c;" horiz-adv-x="875" 
d="M435 808v-15h-140v15h23l104 120h-17v15h140v-15h-17l104 -120h23v-15h-140v15h18l-58 76l-58 -76h18zM165 350q0 -79 36.5 -137.5t106 -90.5t167.5 -32q65 0 119 14t96 35v126h-203v-30h-15v140h15v-15h338v-15h-20v-245h20v-15h-20q-34 -21 -78 -43t-105 -37t-147 -15
q-122 0 -218 43.5t-151.5 124t-55.5 192.5t55.5 192.5t151.5 124t218 43.5q83 0 143.5 -16.5t103 -39.5t72.5 -44l6 9l13 -8l-77 -112l-13 8l9 14q-25 20 -63.5 40.5t-87.5 34.5t-106 14q-98 0 -167.5 -32t-106 -90.5t-36.5 -137.5z" />
    <glyph glyph-name="gcircumflex" unicode="&#x11d;" horiz-adv-x="875" 
d="M435 808v-15h-140v15h23l104 120h-17v15h140v-15h-17l104 -120h23v-15h-140v15h18l-58 76l-58 -76h18zM165 350q0 -79 36.5 -137.5t106 -90.5t167.5 -32q65 0 119 14t96 35v126h-203v-30h-15v140h15v-15h338v-15h-20v-245h20v-15h-20q-34 -21 -78 -43t-105 -37t-147 -15
q-122 0 -218 43.5t-151.5 124t-55.5 192.5t55.5 192.5t151.5 124t218 43.5q83 0 143.5 -16.5t103 -39.5t72.5 -44l6 9l13 -8l-77 -112l-13 8l9 14q-25 20 -63.5 40.5t-87.5 34.5t-106 14q-98 0 -167.5 -32t-106 -90.5t-36.5 -137.5z" />
    <glyph glyph-name="Gbreve" unicode="&#x11e;" horiz-adv-x="875" 
d="M305 919v15h115v-15h-20q0 -29 21 -44t54 -15t54 15t21 44h-20v15h115v-15h-20q0 -61 -37.5 -95t-112.5 -34t-112.5 34t-37.5 95h-20zM165 350q0 -79 36.5 -137.5t106 -90.5t167.5 -32q65 0 119 14t96 35v126h-203v-30h-15v140h15v-15h338v-15h-20v-245h20v-15h-20
q-34 -21 -78 -43t-105 -37t-147 -15q-122 0 -218 43.5t-151.5 124t-55.5 192.5t55.5 192.5t151.5 124t218 43.5q83 0 143.5 -16.5t103 -39.5t72.5 -44l6 9l13 -8l-77 -112l-13 8l9 14q-25 20 -63.5 40.5t-87.5 34.5t-106 14q-98 0 -167.5 -32t-106 -90.5t-36.5 -137.5z" />
    <glyph glyph-name="gbreve" unicode="&#x11f;" horiz-adv-x="875" 
d="M305 919v15h115v-15h-20q0 -29 21 -44t54 -15t54 15t21 44h-20v15h115v-15h-20q0 -61 -37.5 -95t-112.5 -34t-112.5 34t-37.5 95h-20zM165 350q0 -79 36.5 -137.5t106 -90.5t167.5 -32q65 0 119 14t96 35v126h-203v-30h-15v140h15v-15h338v-15h-20v-245h20v-15h-20
q-34 -21 -78 -43t-105 -37t-147 -15q-122 0 -218 43.5t-151.5 124t-55.5 192.5t55.5 192.5t151.5 124t218 43.5q83 0 143.5 -16.5t103 -39.5t72.5 -44l6 9l13 -8l-77 -112l-13 8l9 14q-25 20 -63.5 40.5t-87.5 34.5t-106 14q-98 0 -167.5 -32t-106 -90.5t-36.5 -137.5z" />
    <glyph glyph-name="Gdotaccent" unicode="&#x120;" horiz-adv-x="875" 
d="M418.999 829.999q0 23.2002 15.5996 39.5996t40.3994 16.3994t40.3994 -16.3994t15.5996 -39.5996q0 -22.3994 -15.5996 -39.1992t-40.3994 -16.7998t-40.3994 16.7998t-15.5996 39.1992zM165 350q0 -79 36.5 -137.5t106 -90.5t167.5 -32q65 0 119 14t96 35v126h-203v-30
h-15v140h15v-15h338v-15h-20v-245h20v-15h-20q-34 -21 -78 -43t-105 -37t-147 -15q-122 0 -218 43.5t-151.5 124t-55.5 192.5t55.5 192.5t151.5 124t218 43.5q83 0 143.5 -16.5t103 -39.5t72.5 -44l6 9l13 -8l-77 -112l-13 8l9 14q-25 20 -63.5 40.5t-87.5 34.5t-106 14
q-98 0 -167.5 -32t-106 -90.5t-36.5 -137.5z" />
    <glyph glyph-name="gdotaccent" unicode="&#x121;" horiz-adv-x="875" 
d="M418.999 829.999q0 23.2002 15.5996 39.5996t40.3994 16.3994t40.3994 -16.3994t15.5996 -39.5996q0 -22.3994 -15.5996 -39.1992t-40.3994 -16.7998t-40.3994 16.7998t-15.5996 39.1992zM165 350q0 -79 36.5 -137.5t106 -90.5t167.5 -32q65 0 119 14t96 35v126h-203v-30
h-15v140h15v-15h338v-15h-20v-245h20v-15h-20q-34 -21 -78 -43t-105 -37t-147 -15q-122 0 -218 43.5t-151.5 124t-55.5 192.5t55.5 192.5t151.5 124t218 43.5q83 0 143.5 -16.5t103 -39.5t72.5 -44l6 9l13 -8l-77 -112l-13 8l9 14q-25 20 -63.5 40.5t-87.5 34.5t-106 14
q-98 0 -167.5 -32t-106 -90.5t-36.5 -137.5z" />
    <glyph glyph-name="uni0122" unicode="&#x122;" horiz-adv-x="875" 
d="M450.999 -142.801q0 24.7998 18.3994 40.7998q18.4004 15.999 43.1992 15.999q28.7998 0 46.3994 -19.5996q17.6006 -19.5996 17.6006 -53.1992q0 -34.3994 -10 -65.1982q-10 -30.7998 -29.5996 -51.5996t-47.5996 -27.1992v29.5996q36 21.5996 42.3994 79.998
q-9.59961 -4.7998 -22.3994 -4.7998q-27.2002 0 -42.7998 15.2002q-15.5996 15.1992 -15.5996 39.999zM165 350q0 -79 36.5 -137.5t106 -90.5t167.5 -32q65 0 119 14t96 35v126h-203v-30h-15v140h15v-15h338v-15h-20v-245h20v-15h-20q-34 -21 -78 -43t-105 -37t-147 -15
q-122 0 -218 43.5t-151.5 124t-55.5 192.5t55.5 192.5t151.5 124t218 43.5q83 0 143.5 -16.5t103 -39.5t72.5 -44l6 9l13 -8l-77 -112l-13 8l9 14q-25 20 -63.5 40.5t-87.5 34.5t-106 14q-98 0 -167.5 -32t-106 -90.5t-36.5 -137.5z" />
    <glyph glyph-name="uni0123" unicode="&#x123;" horiz-adv-x="875" 
d="M450.999 -142.801q0 24.7998 18.3994 40.7998q18.4004 15.999 43.1992 15.999q28.7998 0 46.3994 -19.5996q17.6006 -19.5996 17.6006 -53.1992q0 -34.3994 -10 -65.1982q-10 -30.7998 -29.5996 -51.5996t-47.5996 -27.1992v29.5996q36 21.5996 42.3994 79.998
q-9.59961 -4.7998 -22.3994 -4.7998q-27.2002 0 -42.7998 15.2002q-15.5996 15.1992 -15.5996 39.999zM165 350q0 -79 36.5 -137.5t106 -90.5t167.5 -32q65 0 119 14t96 35v126h-203v-30h-15v140h15v-15h338v-15h-20v-245h20v-15h-20q-34 -21 -78 -43t-105 -37t-147 -15
q-122 0 -218 43.5t-151.5 124t-55.5 192.5t55.5 192.5t151.5 124t218 43.5q83 0 143.5 -16.5t103 -39.5t72.5 -44l6 9l13 -8l-77 -112l-13 8l9 14q-25 20 -63.5 40.5t-87.5 34.5t-106 14q-98 0 -167.5 -32t-106 -90.5t-36.5 -137.5z" />
    <glyph glyph-name="Hcircumflex" unicode="&#x124;" horiz-adv-x="835" 
d="M379 808v-15h-140v15h23l104 120h-17v15h140v-15h-17l104 -120h23v-15h-140v15h18l-58 76l-58 -76h18zM65 0v15h20v670h-20v15h155v-15h-20v-280h435v280h-20v15h155v-15h-20v-670h20v-15h-155v15h20v295h-435v-295h20v-15h-155z" />
    <glyph glyph-name="hcircumflex" unicode="&#x125;" horiz-adv-x="835" 
d="M379 808v-15h-140v15h23l104 120h-17v15h140v-15h-17l104 -120h23v-15h-140v15h18l-58 76l-58 -76h18zM65 0v15h20v670h-20v15h155v-15h-20v-280h435v280h-20v15h155v-15h-20v-670h20v-15h-155v15h20v295h-435v-295h20v-15h-155z" />
    <glyph glyph-name="Hbar" unicode="&#x126;" horiz-adv-x="835" 
d="M65 0v15h20v470h-65v-15h-15v130h15v-15h65v100h-20v15h155v-15h-20v-100h435v100h-20v15h155v-15h-20v-100h65v15h15v-130h-15v15h-65v-470h20v-15h-155v15h20v295h-435v-295h20v-15h-155zM200 405h435v80h-435v-80z" />
    <glyph glyph-name="hbar" unicode="&#x127;" horiz-adv-x="835" 
d="M65 0v15h20v470h-65v-15h-15v130h15v-15h65v100h-20v15h155v-15h-20v-100h435v100h-20v15h155v-15h-20v-100h65v15h15v-130h-15v15h-65v-470h20v-15h-155v15h20v295h-435v-295h20v-15h-155zM200 405h435v80h-435v-80z" />
    <glyph glyph-name="Itilde" unicode="&#x128;" horiz-adv-x="290" 
d="M-76 780v15h22q-1 6 -1.5 15t-0.5 15q0 16 5 39t19 41q14 19 36.5 30.5t53.5 11.5q28 0 48.5 -10t36.5 -26q15 -16 34 -37.5t38 -21.5q20 0 25.5 13.5t5.5 35.5q0 8 -3 21h-21v15h124v-15h-20q3 -17 3 -32t-4.5 -39.5t-17.5 -41.5q-13 -18 -27 -27.5t-49 -9.5
q-33 0 -54.5 13.5t-36.5 29.5q-14 15 -34 33.5t-46 18.5q-23 0 -30.5 -17.5t-7.5 -36.5q0 -9 4 -18h22v-15h-124zM65 0v15h20v670h-20v15h160v-15h-20v-670h20v-15h-160z" />
    <glyph glyph-name="itilde" unicode="&#x129;" horiz-adv-x="290" 
d="M-76 780v15h22q-1 6 -1.5 15t-0.5 15q0 16 5 39t19 41q14 19 36.5 30.5t53.5 11.5q28 0 48.5 -10t36.5 -26q15 -16 34 -37.5t38 -21.5q20 0 25.5 13.5t5.5 35.5q0 8 -3 21h-21v15h124v-15h-20q3 -17 3 -32t-4.5 -39.5t-17.5 -41.5q-13 -18 -27 -27.5t-49 -9.5
q-33 0 -54.5 13.5t-36.5 29.5q-14 15 -34 33.5t-46 18.5q-23 0 -30.5 -17.5t-7.5 -36.5q0 -9 4 -18h22v-15h-124zM65 0v15h20v670h-20v15h160v-15h-20v-670h20v-15h-160z" />
    <glyph glyph-name="Imacron" unicode="&#x12a;" horiz-adv-x="290" 
d="M250 895h15v-110h-15v15h-210v-15h-15v110h15v-15h210v15zM65 0v15h20v670h-20v15h160v-15h-20v-670h20v-15h-160z" />
    <glyph glyph-name="imacron" unicode="&#x12b;" horiz-adv-x="290" 
d="M250 895h15v-110h-15v15h-210v-15h-15v110h15v-15h210v15zM65 0v15h20v670h-20v15h160v-15h-20v-670h20v-15h-160z" />
    <glyph glyph-name="Ibreve" unicode="&#x12c;" horiz-adv-x="290" 
d="M-25 919v15h115v-15h-20q0 -29 21 -44t54 -15t54 15t21 44h-20v15h115v-15h-20q0 -61 -37.5 -95t-112.5 -34t-112.5 34t-37.5 95h-20zM65 0v15h20v670h-20v15h160v-15h-20v-670h20v-15h-160z" />
    <glyph glyph-name="ibreve" unicode="&#x12d;" horiz-adv-x="290" 
d="M-25 919v15h115v-15h-20q0 -29 21 -44t54 -15t54 15t21 44h-20v15h115v-15h-20q0 -61 -37.5 -95t-112.5 -34t-112.5 34t-37.5 95h-20zM65 0v15h20v670h-20v15h160v-15h-20v-670h20v-15h-160z" />
    <glyph glyph-name="Iogonek" unicode="&#x12e;" horiz-adv-x="290" 
d="M251 -138q-7 -14 -21 -31t-39 -29t-65 -12q-53 0 -80.5 25t-27.5 70q0 40 24.5 66t59.5 42t65 26l12 -19q-23 -13 -40.5 -40t-17.5 -59q0 -28 16.5 -43.5t41.5 -15.5q21 0 37 6t26 20zM65 0v15h20v670h-20v15h160v-15h-20v-670h20v-15h-160z" />
    <glyph glyph-name="iogonek" unicode="&#x12f;" horiz-adv-x="290" 
d="M251 -138q-7 -14 -21 -31t-39 -29t-65 -12q-53 0 -80.5 25t-27.5 70q0 40 24.5 66t59.5 42t65 26l12 -19q-23 -13 -40.5 -40t-17.5 -59q0 -28 16.5 -43.5t41.5 -15.5q21 0 37 6t26 20zM65 0v15h20v670h-20v15h160v-15h-20v-670h20v-15h-160z" />
    <glyph glyph-name="Idotaccent" unicode="&#x130;" horiz-adv-x="290" 
d="M88.999 829.999q0 23.2002 15.5996 39.5996t40.3994 16.3994t40.3994 -16.3994t15.5996 -39.5996q0 -22.3994 -15.5996 -39.1992t-40.3994 -16.7998t-40.3994 16.7998t-15.5996 39.1992zM65 0v15h20v670h-20v15h160v-15h-20v-670h20v-15h-160z" />
    <glyph glyph-name="IJ" unicode="&#x132;" horiz-adv-x="912" 
d="M65 0v15h20v670h-20v15h160v-15h-20v-670h20v-15h-160zM370 175l13 -8l-8 -11q18 -15 46.5 -33t66 -30.5t83.5 -12.5q68 0 107 25.5t39 99.5v480h-25v15h160v-15h-20v-505q0 -64 -35 -109t-95.5 -68t-137.5 -23q-49 0 -98 13t-89.5 32.5t-64.5 39.5l-9 -13l-13 8z" />
    <glyph glyph-name="ij" unicode="&#x133;" horiz-adv-x="912" 
d="M65 0v15h20v670h-20v15h160v-15h-20v-670h20v-15h-160zM370 175l13 -8l-8 -11q18 -15 46.5 -33t66 -30.5t83.5 -12.5q68 0 107 25.5t39 99.5v480h-25v15h160v-15h-20v-505q0 -64 -35 -109t-95.5 -68t-137.5 -23q-49 0 -98 13t-89.5 32.5t-64.5 39.5l-9 -13l-13 8z" />
    <glyph glyph-name="Jcircumflex" unicode="&#x134;" horiz-adv-x="622" 
d="M413 808v-15h-140v15h23l104 120h-17v15h140v-15h-17l104 -120h23v-15h-140v15h18l-58 76l-58 -76h18zM80 175l13 -8l-8 -11q18 -15 46.5 -33t66 -30.5t83.5 -12.5q68 0 107 25.5t39 99.5v480h-25v15h160v-15h-20v-505q0 -64 -35 -109t-95.5 -68t-137.5 -23q-49 0 -98 13
t-89.5 32.5t-64.5 39.5l-9 -13l-13 8z" />
    <glyph glyph-name="jcircumflex" unicode="&#x135;" horiz-adv-x="622" 
d="M413 808v-15h-140v15h23l104 120h-17v15h140v-15h-17l104 -120h23v-15h-140v15h18l-58 76l-58 -76h18zM80 175l13 -8l-8 -11q18 -15 46.5 -33t66 -30.5t83.5 -12.5q68 0 107 25.5t39 99.5v480h-25v15h160v-15h-20v-505q0 -64 -35 -109t-95.5 -68t-137.5 -23q-49 0 -98 13
t-89.5 32.5t-64.5 39.5l-9 -13l-13 8z" />
    <glyph glyph-name="uni0136" unicode="&#x136;" horiz-adv-x="765" 
d="M345.999 -142.801q0 24.7998 18.3994 40.7998q18.4004 15.999 43.1992 15.999q28.7998 0 46.3994 -19.5996q17.6006 -19.5996 17.6006 -53.1992q0 -34.3994 -10 -65.1982q-10 -30.7998 -29.5996 -51.5996t-47.5996 -27.1992v29.5996q36 21.5996 42.3994 79.998
q-9.59961 -4.7998 -22.3994 -4.7998q-27.2002 0 -42.7998 15.2002q-15.5996 15.1992 -15.5996 39.999zM65 0v15h20v670h-20v15h150v-15h-20v-318l398 318h-21v15h178v-15h-18l-324 -267l325 -403h22v-15h-179v15h18l-264 339l-135 -112v-227h20v-15h-150z" />
    <glyph glyph-name="uni0137" unicode="&#x137;" horiz-adv-x="765" 
d="M345.999 -142.801q0 24.7998 18.3994 40.7998q18.4004 15.999 43.1992 15.999q28.7998 0 46.3994 -19.5996q17.6006 -19.5996 17.6006 -53.1992q0 -34.3994 -10 -65.1982q-10 -30.7998 -29.5996 -51.5996t-47.5996 -27.1992v29.5996q36 21.5996 42.3994 79.998
q-9.59961 -4.7998 -22.3994 -4.7998q-27.2002 0 -42.7998 15.2002q-15.5996 15.1992 -15.5996 39.999zM65 0v15h20v670h-20v15h150v-15h-20v-318l398 318h-21v15h178v-15h-18l-324 -267l325 -403h22v-15h-179v15h18l-264 339l-135 -112v-227h20v-15h-150z" />
    <glyph glyph-name="Lacute" unicode="&#x139;" horiz-adv-x="720" 
d="M66.2988 817.486l10.1992 -8.5l119.847 127.496l-10.1992 7.65039l8.49902 9.34961l91.7979 -67.1484l-8.5 -9.34961l-10.1992 7.64941l-139.396 -116.446l11.0498 -8.5l-8.5 -9.34961l-73.0977 57.7988zM65 0v15h20v670h-20v15h155v-15h-20v-585h490v30h15v-140h-15v10
h-625z" />
    <glyph glyph-name="lacute" unicode="&#x13a;" horiz-adv-x="720" 
d="M66.2988 817.486l10.1992 -8.5l119.847 127.496l-10.1992 7.65039l8.49902 9.34961l91.7979 -67.1484l-8.5 -9.34961l-10.1992 7.64941l-139.396 -116.446l11.0498 -8.5l-8.5 -9.34961l-73.0977 57.7988zM65 0v15h20v670h-20v15h155v-15h-20v-585h490v30h15v-140h-15v10
h-625z" />
    <glyph glyph-name="uni013B" unicode="&#x13b;" horiz-adv-x="720" 
d="M373.999 -142.801q0 24.7998 18.3994 40.7998q18.4004 15.999 43.1992 15.999q28.7998 0 46.3994 -19.5996q17.6006 -19.5996 17.6006 -53.1992q0 -34.3994 -10 -65.1982q-10 -30.7998 -29.5996 -51.5996t-47.5996 -27.1992v29.5996q36 21.5996 42.3994 79.998
q-9.59961 -4.7998 -22.3994 -4.7998q-27.2002 0 -42.7998 15.2002q-15.5996 15.1992 -15.5996 39.999zM65 0v15h20v670h-20v15h155v-15h-20v-585h490v30h15v-140h-15v10h-625z" />
    <glyph glyph-name="uni013C" unicode="&#x13c;" horiz-adv-x="720" 
d="M373.999 -142.801q0 24.7998 18.3994 40.7998q18.4004 15.999 43.1992 15.999q28.7998 0 46.3994 -19.5996q17.6006 -19.5996 17.6006 -53.1992q0 -34.3994 -10 -65.1982q-10 -30.7998 -29.5996 -51.5996t-47.5996 -27.1992v29.5996q36 21.5996 42.3994 79.998
q-9.59961 -4.7998 -22.3994 -4.7998q-27.2002 0 -42.7998 15.2002q-15.5996 15.1992 -15.5996 39.999zM65 0v15h20v670h-20v15h155v-15h-20v-585h490v30h15v-140h-15v10h-625z" />
    <glyph glyph-name="Lcaron" unicode="&#x13d;" horiz-adv-x="720" 
d="M415 639q0 31 23 51t54 20q36 0 58 -24.5t22 -66.5q0 -43 -12.5 -81.5t-37 -64.5t-59.5 -34v37q45 27 53 100q-12 -6 -28 -6q-34 0 -53.5 19t-19.5 50zM65 0v15h20v670h-20v15h155v-15h-20v-585h490v30h15v-140h-15v10h-625z" />
    <glyph glyph-name="lcaron" unicode="&#x13e;" horiz-adv-x="720" 
d="M415 639q0 31 23 51t54 20q36 0 58 -24.5t22 -66.5q0 -43 -12.5 -81.5t-37 -64.5t-59.5 -34v37q45 27 53 100q-12 -6 -28 -6q-34 0 -53.5 19t-19.5 50zM65 0v15h20v670h-20v15h155v-15h-20v-585h490v30h15v-140h-15v10h-625z" />
    <glyph glyph-name="Ldot" unicode="&#x13f;" horiz-adv-x="720" 
d="M405 480q0 29 19.5 49.5t50.5 20.5t50.5 -20.5t19.5 -49.5q0 -28 -19.5 -49t-50.5 -21t-50.5 21t-19.5 49zM65 0v15h20v670h-20v15h155v-15h-20v-585h490v30h15v-140h-15v10h-625z" />
    <glyph glyph-name="ldot" unicode="&#x140;" horiz-adv-x="720" 
d="M405 480q0 29 19.5 49.5t50.5 20.5t50.5 -20.5t19.5 -49.5q0 -28 -19.5 -49t-50.5 -21t-50.5 21t-19.5 49zM65 0v15h20v670h-20v15h155v-15h-20v-585h490v30h15v-140h-15v10h-625z" />
    <glyph glyph-name="Lslash" unicode="&#x141;" horiz-adv-x="720" 
d="M65 0v15h20v287l-70 -44v-29h-15v180h15v-31l70 44v263h-20v15h155v-15h-20v-192l125 78v29h15v-180h-15v31l-125 -78v-273h490v30h15v-140h-15v10h-625z" />
    <glyph glyph-name="lslash" unicode="&#x142;" horiz-adv-x="720" 
d="M65 0v15h20v287l-70 -44v-29h-15v180h15v-31l70 44v263h-20v15h155v-15h-20v-192l125 78v29h15v-180h-15v31l-125 -78v-273h490v30h15v-140h-15v10h-625z" />
    <glyph glyph-name="Nacute" unicode="&#x143;" horiz-adv-x="860" 
d="M393.299 817.486l10.1992 -8.5l119.847 127.496l-10.1992 7.65039l8.49902 9.34961l91.7979 -67.1484l-8.5 -9.34961l-10.1992 7.64941l-139.396 -116.446l11.0498 -8.5l-8.5 -9.34961l-73.0977 57.7988zM65 0v15h20v670h-20v15h200v-15h-27l427 -507v507h-20v15h150v-15
h-20v-670h20v-15h-170v15h30l-460 553v-553h20v-15h-150z" />
    <glyph glyph-name="nacute" unicode="&#x144;" horiz-adv-x="860" 
d="M393.299 817.486l10.1992 -8.5l119.847 127.496l-10.1992 7.65039l8.49902 9.34961l91.7979 -67.1484l-8.5 -9.34961l-10.1992 7.64941l-139.396 -116.446l11.0498 -8.5l-8.5 -9.34961l-73.0977 57.7988zM65 0v15h20v670h-20v15h200v-15h-27l427 -507v507h-20v15h150v-15
h-20v-670h20v-15h-170v15h30l-460 553v-553h20v-15h-150z" />
    <glyph glyph-name="uni0145" unicode="&#x145;" horiz-adv-x="860" 
d="M404.999 -142.801q0 24.7998 18.3994 40.7998q18.4004 15.999 43.1992 15.999q28.7998 0 46.3994 -19.5996q17.6006 -19.5996 17.6006 -53.1992q0 -34.3994 -10 -65.1982q-10 -30.7998 -29.5996 -51.5996t-47.5996 -27.1992v29.5996q36 21.5996 42.3994 79.998
q-9.59961 -4.7998 -22.3994 -4.7998q-27.2002 0 -42.7998 15.2002q-15.5996 15.1992 -15.5996 39.999zM65 0v15h20v670h-20v15h200v-15h-27l427 -507v507h-20v15h150v-15h-20v-670h20v-15h-170v15h30l-460 553v-553h20v-15h-150z" />
    <glyph glyph-name="uni0146" unicode="&#x146;" horiz-adv-x="860" 
d="M404.999 -142.801q0 24.7998 18.3994 40.7998q18.4004 15.999 43.1992 15.999q28.7998 0 46.3994 -19.5996q17.6006 -19.5996 17.6006 -53.1992q0 -34.3994 -10 -65.1982q-10 -30.7998 -29.5996 -51.5996t-47.5996 -27.1992v29.5996q36 21.5996 42.3994 79.998
q-9.59961 -4.7998 -22.3994 -4.7998q-27.2002 0 -42.7998 15.2002q-15.5996 15.1992 -15.5996 39.999zM65 0v15h20v670h-20v15h200v-15h-27l427 -507v507h-20v15h150v-15h-20v-670h20v-15h-170v15h30l-460 553v-553h20v-15h-150z" />
    <glyph glyph-name="Ncaron" unicode="&#x147;" horiz-adv-x="860" 
d="M509 885v15h140v-15h-23l-104 -120h17v-15h-140v15h17l-104 120h-23v15h140v-15h-18l58 -76l58 76h-18zM65 0v15h20v670h-20v15h200v-15h-27l427 -507v507h-20v15h150v-15h-20v-670h20v-15h-170v15h30l-460 553v-553h20v-15h-150z" />
    <glyph glyph-name="ncaron" unicode="&#x148;" horiz-adv-x="860" 
d="M509 885v15h140v-15h-23l-104 -120h17v-15h-140v15h17l-104 120h-23v15h140v-15h-18l58 -76l58 76h-18zM65 0v15h20v670h-20v15h200v-15h-27l427 -507v507h-20v15h150v-15h-20v-670h20v-15h-170v15h30l-460 553v-553h20v-15h-150z" />
    <glyph glyph-name="Eng" unicode="&#x14a;" horiz-adv-x="792" 
d="M65 0v15h20v670h-20v15h155v-15h-20v-65q52 44 114 72t140 28q77 0 135 -23t90.5 -67.5t32.5 -109.5v-380q0 -54 -31 -89.5t-80.5 -53t-106.5 -17.5q-59 0 -108.5 22t-82.5 44l-10 -14l-13 8l77 111l13 -8l-7 -10q25 -20 58 -36.5t80 -16.5q45 0 70.5 20.5t25.5 64.5v330
q0 50 -22.5 77t-60.5 37.5t-83 10.5q-74 0 -135 -29.5t-96 -76.5v-499h20v-15h-155z" />
    <glyph glyph-name="eng" unicode="&#x14b;" horiz-adv-x="792" 
d="M65 0v15h20v670h-20v15h155v-15h-20v-65q52 44 114 72t140 28q77 0 135 -23t90.5 -67.5t32.5 -109.5v-380q0 -54 -31 -89.5t-80.5 -53t-106.5 -17.5q-59 0 -108.5 22t-82.5 44l-10 -14l-13 8l77 111l13 -8l-7 -10q25 -20 58 -36.5t80 -16.5q45 0 70.5 20.5t25.5 64.5v330
q0 50 -22.5 77t-60.5 37.5t-83 10.5q-74 0 -135 -29.5t-96 -76.5v-499h20v-15h-155z" />
    <glyph glyph-name="Omacron" unicode="&#x14c;" horiz-adv-x="910" 
d="M560 895h15v-110h-15v15h-210v-15h-15v110h15v-15h210v15zM50 350q0 88 32 155t88.5 112.5t129.5 69t155 23.5t155 -23.5t129.5 -69t88.5 -112.5t32 -155t-32 -155t-88.5 -112.5t-129.5 -69t-155 -23.5t-155 23.5t-129.5 69t-88.5 112.5t-32 155zM165 350
q0 -82 40.5 -140t107 -89t142.5 -31q77 0 143 31t106.5 89t40.5 140t-40.5 140t-106.5 89t-143 31q-76 0 -142.5 -31t-107 -89t-40.5 -140z" />
    <glyph glyph-name="omacron" unicode="&#x14d;" horiz-adv-x="910" 
d="M560 895h15v-110h-15v15h-210v-15h-15v110h15v-15h210v15zM50 350q0 88 32 155t88.5 112.5t129.5 69t155 23.5t155 -23.5t129.5 -69t88.5 -112.5t32 -155t-32 -155t-88.5 -112.5t-129.5 -69t-155 -23.5t-155 23.5t-129.5 69t-88.5 112.5t-32 155zM165 350
q0 -82 40.5 -140t107 -89t142.5 -31q77 0 143 31t106.5 89t40.5 140t-40.5 140t-106.5 89t-143 31q-76 0 -142.5 -31t-107 -89t-40.5 -140z" />
    <glyph glyph-name="Obreve" unicode="&#x14e;" horiz-adv-x="910" 
d="M285 919v15h115v-15h-20q0 -29 21 -44t54 -15t54 15t21 44h-20v15h115v-15h-20q0 -61 -37.5 -95t-112.5 -34t-112.5 34t-37.5 95h-20zM50 350q0 88 32 155t88.5 112.5t129.5 69t155 23.5t155 -23.5t129.5 -69t88.5 -112.5t32 -155t-32 -155t-88.5 -112.5t-129.5 -69
t-155 -23.5t-155 23.5t-129.5 69t-88.5 112.5t-32 155zM165 350q0 -82 40.5 -140t107 -89t142.5 -31q77 0 143 31t106.5 89t40.5 140t-40.5 140t-106.5 89t-143 31q-76 0 -142.5 -31t-107 -89t-40.5 -140z" />
    <glyph glyph-name="obreve" unicode="&#x14f;" horiz-adv-x="910" 
d="M285 919v15h115v-15h-20q0 -29 21 -44t54 -15t54 15t21 44h-20v15h115v-15h-20q0 -61 -37.5 -95t-112.5 -34t-112.5 34t-37.5 95h-20zM50 350q0 88 32 155t88.5 112.5t129.5 69t155 23.5t155 -23.5t129.5 -69t88.5 -112.5t32 -155t-32 -155t-88.5 -112.5t-129.5 -69
t-155 -23.5t-155 23.5t-129.5 69t-88.5 112.5t-32 155zM165 350q0 -82 40.5 -140t107 -89t142.5 -31q77 0 143 31t106.5 89t40.5 140t-40.5 140t-106.5 89t-143 31q-76 0 -142.5 -31t-107 -89t-40.5 -140z" />
    <glyph glyph-name="Ohungarumlaut" unicode="&#x150;" horiz-adv-x="910" 
d="M485.299 817.486l10.1992 -8.5l119.847 127.496l-10.1992 7.65039l8.49902 9.34961l91.7979 -67.1484l-8.5 -9.34961l-10.1992 7.64941l-139.396 -116.446l11.0498 -8.5l-8.5 -9.34961l-73.0977 57.7988zM280.299 817.486l10.1992 -8.5l119.847 127.496l-10.1992 7.65039
l8.49902 9.34961l91.7979 -67.1484l-8.5 -9.34961l-10.1992 7.64941l-139.396 -116.446l11.0498 -8.5l-8.5 -9.34961l-73.0977 57.7988zM50 350q0 88 32 155t88.5 112.5t129.5 69t155 23.5t155 -23.5t129.5 -69t88.5 -112.5t32 -155t-32 -155t-88.5 -112.5t-129.5 -69
t-155 -23.5t-155 23.5t-129.5 69t-88.5 112.5t-32 155zM165 350q0 -82 40.5 -140t107 -89t142.5 -31q77 0 143 31t106.5 89t40.5 140t-40.5 140t-106.5 89t-143 31q-76 0 -142.5 -31t-107 -89t-40.5 -140z" />
    <glyph glyph-name="ohungarumlaut" unicode="&#x151;" horiz-adv-x="910" 
d="M485.299 817.486l10.1992 -8.5l119.847 127.496l-10.1992 7.65039l8.49902 9.34961l91.7979 -67.1484l-8.5 -9.34961l-10.1992 7.64941l-139.396 -116.446l11.0498 -8.5l-8.5 -9.34961l-73.0977 57.7988zM280.299 817.486l10.1992 -8.5l119.847 127.496l-10.1992 7.65039
l8.49902 9.34961l91.7979 -67.1484l-8.5 -9.34961l-10.1992 7.64941l-139.396 -116.446l11.0498 -8.5l-8.5 -9.34961l-73.0977 57.7988zM50 350q0 88 32 155t88.5 112.5t129.5 69t155 23.5t155 -23.5t129.5 -69t88.5 -112.5t32 -155t-32 -155t-88.5 -112.5t-129.5 -69
t-155 -23.5t-155 23.5t-129.5 69t-88.5 112.5t-32 155zM165 350q0 -82 40.5 -140t107 -89t142.5 -31q77 0 143 31t106.5 89t40.5 140t-40.5 140t-106.5 89t-143 31q-76 0 -142.5 -31t-107 -89t-40.5 -140z" />
    <glyph glyph-name="OE" unicode="&#x152;" horiz-adv-x="1271" 
d="M405 700h806v15h15v-140h-15v25h-491v-195h321v15h15v-125h-15v15h-321v-210h491v30h15v-140h-15v10h-806q-102 0 -181 42t-124 120.5t-45 187.5q0 110 45 188t124 120t181 42zM415 100h195v500h-195q-118 0 -179 -64t-61 -186t61 -186t179 -64z" />
    <glyph glyph-name="oe" unicode="&#x153;" horiz-adv-x="1271" 
d="M405 700h806v15h15v-140h-15v25h-491v-195h321v15h15v-125h-15v15h-321v-210h491v30h15v-140h-15v10h-806q-102 0 -181 42t-124 120.5t-45 187.5q0 110 45 188t124 120t181 42zM415 100h195v500h-195q-118 0 -179 -64t-61 -186t61 -186t179 -64z" />
    <glyph glyph-name="Racute" unicode="&#x154;" horiz-adv-x="785" 
d="M287.299 817.486l10.1992 -8.5l119.847 127.496l-10.1992 7.65039l8.49902 9.34961l91.7979 -67.1484l-8.5 -9.34961l-10.1992 7.64941l-139.396 -116.446l11.0498 -8.5l-8.5 -9.34961l-73.0977 57.7988zM65 0v15h20v670h-20v15h440q63 0 117 -16.5t87.5 -59t33.5 -119.5
q0 -72 -29.5 -112.5t-78.5 -57.5t-107 -20l221 -300h21v-15h-175v15h20l-209 300h-211v-300h20v-15h-150zM495 600h-300v-190h300q67 0 100 23t33 72q0 50 -33 72.5t-100 22.5z" />
    <glyph glyph-name="racute" unicode="&#x155;" horiz-adv-x="785" 
d="M287.299 817.486l10.1992 -8.5l119.847 127.496l-10.1992 7.65039l8.49902 9.34961l91.7979 -67.1484l-8.5 -9.34961l-10.1992 7.64941l-139.396 -116.446l11.0498 -8.5l-8.5 -9.34961l-73.0977 57.7988zM65 0v15h20v670h-20v15h440q63 0 117 -16.5t87.5 -59t33.5 -119.5
q0 -72 -29.5 -112.5t-78.5 -57.5t-107 -20l221 -300h21v-15h-175v15h20l-209 300h-211v-300h20v-15h-150zM495 600h-300v-190h300q67 0 100 23t33 72q0 50 -33 72.5t-100 22.5z" />
    <glyph glyph-name="uni0156" unicode="&#x156;" horiz-adv-x="785" 
d="M373.999 -142.801q0 24.7998 18.3994 40.7998q18.4004 15.999 43.1992 15.999q28.7998 0 46.3994 -19.5996q17.6006 -19.5996 17.6006 -53.1992q0 -34.3994 -10 -65.1982q-10 -30.7998 -29.5996 -51.5996t-47.5996 -27.1992v29.5996q36 21.5996 42.3994 79.998
q-9.59961 -4.7998 -22.3994 -4.7998q-27.2002 0 -42.7998 15.2002q-15.5996 15.1992 -15.5996 39.999zM65 0v15h20v670h-20v15h440q63 0 117 -16.5t87.5 -59t33.5 -119.5q0 -72 -29.5 -112.5t-78.5 -57.5t-107 -20l221 -300h21v-15h-175v15h20l-209 300h-211v-300h20v-15
h-150zM495 600h-300v-190h300q67 0 100 23t33 72q0 50 -33 72.5t-100 22.5z" />
    <glyph glyph-name="uni0157" unicode="&#x157;" horiz-adv-x="785" 
d="M373.999 -142.801q0 24.7998 18.3994 40.7998q18.4004 15.999 43.1992 15.999q28.7998 0 46.3994 -19.5996q17.6006 -19.5996 17.6006 -53.1992q0 -34.3994 -10 -65.1982q-10 -30.7998 -29.5996 -51.5996t-47.5996 -27.1992v29.5996q36 21.5996 42.3994 79.998
q-9.59961 -4.7998 -22.3994 -4.7998q-27.2002 0 -42.7998 15.2002q-15.5996 15.1992 -15.5996 39.999zM65 0v15h20v670h-20v15h440q63 0 117 -16.5t87.5 -59t33.5 -119.5q0 -72 -29.5 -112.5t-78.5 -57.5t-107 -20l221 -300h21v-15h-175v15h20l-209 300h-211v-300h20v-15
h-150zM495 600h-300v-190h300q67 0 100 23t33 72q0 50 -33 72.5t-100 22.5z" />
    <glyph glyph-name="Rcaron" unicode="&#x158;" horiz-adv-x="785" 
d="M403 885v15h140v-15h-23l-104 -120h17v-15h-140v15h17l-104 120h-23v15h140v-15h-18l58 -76l58 76h-18zM65 0v15h20v670h-20v15h440q63 0 117 -16.5t87.5 -59t33.5 -119.5q0 -72 -29.5 -112.5t-78.5 -57.5t-107 -20l221 -300h21v-15h-175v15h20l-209 300h-211v-300h20
v-15h-150zM495 600h-300v-190h300q67 0 100 23t33 72q0 50 -33 72.5t-100 22.5z" />
    <glyph glyph-name="rcaron" unicode="&#x159;" horiz-adv-x="785" 
d="M403 885v15h140v-15h-23l-104 -120h17v-15h-140v15h17l-104 120h-23v15h140v-15h-18l58 -76l58 76h-18zM65 0v15h20v670h-20v15h440q63 0 117 -16.5t87.5 -59t33.5 -119.5q0 -72 -29.5 -112.5t-78.5 -57.5t-107 -20l221 -300h21v-15h-175v15h20l-209 300h-211v-300h20
v-15h-150zM495 600h-300v-190h300q67 0 100 23t33 72q0 50 -33 72.5t-100 22.5z" />
    <glyph glyph-name="Sacute" unicode="&#x15a;" horiz-adv-x="764" 
d="M304.299 817.486l10.1992 -8.5l119.847 127.496l-10.1992 7.65039l8.49902 9.34961l91.7979 -67.1484l-8.5 -9.34961l-10.1992 7.64941l-139.396 -116.446l11.0498 -8.5l-8.5 -9.34961l-73.0977 57.7988zM110 207l13 -8l-9 -14q32 -21 73 -43.5t94.5 -38t123.5 -15.5
q109 0 161 29.5t52 78.5t-51 74.5t-178 34.5q-160 11 -243.5 60t-83.5 144q0 67 42 114t114.5 72t161.5 25q79 0 140.5 -13.5t107.5 -34.5t78 -43l7 10l13 -8l-75 -109l-13 8l10 14q-25 19 -67 38t-94 31t-107 12q-94 0 -151 -27.5t-57 -81.5q0 -57 63 -79.5t183 -31.5
q153 -12 234.5 -62.5t81.5 -142.5q0 -64 -41.5 -112t-117 -73.5t-175.5 -24.5q-85 1 -152.5 19t-116.5 43t-77 47l-11 -16l-13 8z" />
    <glyph glyph-name="sacute" unicode="&#x15b;" horiz-adv-x="764" 
d="M304.299 817.486l10.1992 -8.5l119.847 127.496l-10.1992 7.65039l8.49902 9.34961l91.7979 -67.1484l-8.5 -9.34961l-10.1992 7.64941l-139.396 -116.446l11.0498 -8.5l-8.5 -9.34961l-73.0977 57.7988zM110 207l13 -8l-9 -14q32 -21 73 -43.5t94.5 -38t123.5 -15.5
q109 0 161 29.5t52 78.5t-51 74.5t-178 34.5q-160 11 -243.5 60t-83.5 144q0 67 42 114t114.5 72t161.5 25q79 0 140.5 -13.5t107.5 -34.5t78 -43l7 10l13 -8l-75 -109l-13 8l10 14q-25 19 -67 38t-94 31t-107 12q-94 0 -151 -27.5t-57 -81.5q0 -57 63 -79.5t183 -31.5
q153 -12 234.5 -62.5t81.5 -142.5q0 -64 -41.5 -112t-117 -73.5t-175.5 -24.5q-85 1 -152.5 19t-116.5 43t-77 47l-11 -16l-13 8z" />
    <glyph glyph-name="Scircumflex" unicode="&#x15c;" horiz-adv-x="764" 
d="M340 808v-15h-140v15h23l104 120h-17v15h140v-15h-17l104 -120h23v-15h-140v15h18l-58 76l-58 -76h18zM110 207l13 -8l-9 -14q32 -21 73 -43.5t94.5 -38t123.5 -15.5q109 0 161 29.5t52 78.5t-51 74.5t-178 34.5q-160 11 -243.5 60t-83.5 144q0 67 42 114t114.5 72
t161.5 25q79 0 140.5 -13.5t107.5 -34.5t78 -43l7 10l13 -8l-75 -109l-13 8l10 14q-25 19 -67 38t-94 31t-107 12q-94 0 -151 -27.5t-57 -81.5q0 -57 63 -79.5t183 -31.5q153 -12 234.5 -62.5t81.5 -142.5q0 -64 -41.5 -112t-117 -73.5t-175.5 -24.5q-85 1 -152.5 19
t-116.5 43t-77 47l-11 -16l-13 8z" />
    <glyph glyph-name="scircumflex" unicode="&#x15d;" horiz-adv-x="764" 
d="M340 808v-15h-140v15h23l104 120h-17v15h140v-15h-17l104 -120h23v-15h-140v15h18l-58 76l-58 -76h18zM110 207l13 -8l-9 -14q32 -21 73 -43.5t94.5 -38t123.5 -15.5q109 0 161 29.5t52 78.5t-51 74.5t-178 34.5q-160 11 -243.5 60t-83.5 144q0 67 42 114t114.5 72
t161.5 25q79 0 140.5 -13.5t107.5 -34.5t78 -43l7 10l13 -8l-75 -109l-13 8l10 14q-25 19 -67 38t-94 31t-107 12q-94 0 -151 -27.5t-57 -81.5q0 -57 63 -79.5t183 -31.5q153 -12 234.5 -62.5t81.5 -142.5q0 -64 -41.5 -112t-117 -73.5t-175.5 -24.5q-85 1 -152.5 19
t-116.5 43t-77 47l-11 -16l-13 8z" />
    <glyph glyph-name="Scedilla" unicode="&#x15e;" horiz-adv-x="764" 
d="M386 -168q0 31 -31.5 42.5t-80.5 11.5l90 120h44l-60 -80q77 -2 113 -20.5t36 -60.5q0 -25 -21 -47.5t-66.5 -37t-121.5 -14.5v36q44 0 71 14t27 36zM110 207l13 -8l-9 -14q32 -21 73 -43.5t94.5 -38t123.5 -15.5q109 0 161 29.5t52 78.5t-51 74.5t-178 34.5
q-160 11 -243.5 60t-83.5 144q0 67 42 114t114.5 72t161.5 25q79 0 140.5 -13.5t107.5 -34.5t78 -43l7 10l13 -8l-75 -109l-13 8l10 14q-25 19 -67 38t-94 31t-107 12q-94 0 -151 -27.5t-57 -81.5q0 -57 63 -79.5t183 -31.5q153 -12 234.5 -62.5t81.5 -142.5
q0 -64 -41.5 -112t-117 -73.5t-175.5 -24.5q-85 1 -152.5 19t-116.5 43t-77 47l-11 -16l-13 8z" />
    <glyph glyph-name="scedilla" unicode="&#x15f;" horiz-adv-x="764" 
d="M386 -168q0 31 -31.5 42.5t-80.5 11.5l90 120h44l-60 -80q77 -2 113 -20.5t36 -60.5q0 -25 -21 -47.5t-66.5 -37t-121.5 -14.5v36q44 0 71 14t27 36zM110 207l13 -8l-9 -14q32 -21 73 -43.5t94.5 -38t123.5 -15.5q109 0 161 29.5t52 78.5t-51 74.5t-178 34.5
q-160 11 -243.5 60t-83.5 144q0 67 42 114t114.5 72t161.5 25q79 0 140.5 -13.5t107.5 -34.5t78 -43l7 10l13 -8l-75 -109l-13 8l10 14q-25 19 -67 38t-94 31t-107 12q-94 0 -151 -27.5t-57 -81.5q0 -57 63 -79.5t183 -31.5q153 -12 234.5 -62.5t81.5 -142.5
q0 -64 -41.5 -112t-117 -73.5t-175.5 -24.5q-85 1 -152.5 19t-116.5 43t-77 47l-11 -16l-13 8z" />
    <glyph glyph-name="Scaron" unicode="&#x160;" horiz-adv-x="764" 
d="M420 885v15h140v-15h-23l-104 -120h17v-15h-140v15h17l-104 120h-23v15h140v-15h-18l58 -76l58 76h-18zM110 207l13 -8l-9 -14q32 -21 73 -43.5t94.5 -38t123.5 -15.5q109 0 161 29.5t52 78.5t-51 74.5t-178 34.5q-160 11 -243.5 60t-83.5 144q0 67 42 114t114.5 72
t161.5 25q79 0 140.5 -13.5t107.5 -34.5t78 -43l7 10l13 -8l-75 -109l-13 8l10 14q-25 19 -67 38t-94 31t-107 12q-94 0 -151 -27.5t-57 -81.5q0 -57 63 -79.5t183 -31.5q153 -12 234.5 -62.5t81.5 -142.5q0 -64 -41.5 -112t-117 -73.5t-175.5 -24.5q-85 1 -152.5 19
t-116.5 43t-77 47l-11 -16l-13 8z" />
    <glyph glyph-name="scaron" unicode="&#x161;" horiz-adv-x="764" 
d="M420 885v15h140v-15h-23l-104 -120h17v-15h-140v15h17l-104 120h-23v15h140v-15h-18l58 -76l58 76h-18zM110 207l13 -8l-9 -14q32 -21 73 -43.5t94.5 -38t123.5 -15.5q109 0 161 29.5t52 78.5t-51 74.5t-178 34.5q-160 11 -243.5 60t-83.5 144q0 67 42 114t114.5 72
t161.5 25q79 0 140.5 -13.5t107.5 -34.5t78 -43l7 10l13 -8l-75 -109l-13 8l10 14q-25 19 -67 38t-94 31t-107 12q-94 0 -151 -27.5t-57 -81.5q0 -57 63 -79.5t183 -31.5q153 -12 234.5 -62.5t81.5 -142.5q0 -64 -41.5 -112t-117 -73.5t-175.5 -24.5q-85 1 -152.5 19
t-116.5 43t-77 47l-11 -16l-13 8z" />
    <glyph glyph-name="uni0162" unicode="&#x162;" horiz-adv-x="685" 
d="M320 -168q0 31 -31.5 42.5t-80.5 11.5l90 120h44l-60 -80q77 -2 113 -20.5t36 -60.5q0 -25 -21 -47.5t-66.5 -37t-121.5 -14.5v36q44 0 71 14t27 36zM255 0v15h30v590h-260v-25h-15v135h15v-15h635v15h15v-135h-15v25h-260v-590h30v-15h-175z" />
    <glyph glyph-name="uni0163" unicode="&#x163;" horiz-adv-x="685" 
d="M320 -168q0 31 -31.5 42.5t-80.5 11.5l90 120h44l-60 -80q77 -2 113 -20.5t36 -60.5q0 -25 -21 -47.5t-66.5 -37t-121.5 -14.5v36q44 0 71 14t27 36zM255 0v15h30v590h-260v-25h-15v135h15v-15h635v15h15v-135h-15v25h-260v-590h30v-15h-175z" />
    <glyph glyph-name="Tcaron" unicode="&#x164;" horiz-adv-x="685" 
d="M381 885v15h140v-15h-23l-104 -120h17v-15h-140v15h17l-104 120h-23v15h140v-15h-18l58 -76l58 76h-18zM255 0v15h30v590h-260v-25h-15v135h15v-15h635v15h15v-135h-15v25h-260v-590h30v-15h-175z" />
    <glyph glyph-name="tcaron" unicode="&#x165;" horiz-adv-x="685" 
d="M381 885v15h140v-15h-23l-104 -120h17v-15h-140v15h17l-104 120h-23v15h140v-15h-18l58 -76l58 76h-18zM255 0v15h30v590h-260v-25h-15v135h15v-15h635v15h15v-135h-15v25h-260v-590h30v-15h-175z" />
    <glyph glyph-name="Tbar" unicode="&#x166;" horiz-adv-x="685" 
d="M255 0v15h30v290h-160v-15h-15v130h15v-15h160v200h-260v-25h-15v135h15v-15h635v15h15v-135h-15v25h-260v-200h160v15h15v-130h-15v15h-160v-290h30v-15h-175z" />
    <glyph glyph-name="tbar" unicode="&#x167;" horiz-adv-x="685" 
d="M255 0v15h30v290h-160v-15h-15v130h15v-15h160v200h-260v-25h-15v135h15v-15h635v15h15v-135h-15v25h-260v-200h160v15h15v-130h-15v15h-160v-290h30v-15h-175z" />
    <glyph glyph-name="Utilde" unicode="&#x168;" 
d="M194 780v15h22q-1 6 -1.5 15t-0.5 15q0 16 5 39t19 41q14 19 36.5 30.5t53.5 11.5q28 0 48.5 -10t36.5 -26q15 -16 34 -37.5t38 -21.5q20 0 25.5 13.5t5.5 35.5q0 8 -3 21h-21v15h124v-15h-20q3 -17 3 -32t-4.5 -39.5t-17.5 -41.5q-13 -18 -27 -27.5t-49 -9.5
q-33 0 -54.5 13.5t-36.5 29.5q-14 15 -34 33.5t-46 18.5q-23 0 -30.5 -17.5t-7.5 -36.5q0 -9 4 -18h22v-15h-124zM55 685v15h155v-15h-20v-443q0 -79 59 -115.5t156 -36.5q105 0 160 36.5t55 115.5v443h-20v15h155v-15h-20v-455q0 -63 -26.5 -108.5t-73 -74.5t-105.5 -43
t-125 -14t-125 14t-105.5 43t-73 74.5t-26.5 108.5v455h-20z" />
    <glyph glyph-name="utilde" unicode="&#x169;" 
d="M194 780v15h22q-1 6 -1.5 15t-0.5 15q0 16 5 39t19 41q14 19 36.5 30.5t53.5 11.5q28 0 48.5 -10t36.5 -26q15 -16 34 -37.5t38 -21.5q20 0 25.5 13.5t5.5 35.5q0 8 -3 21h-21v15h124v-15h-20q3 -17 3 -32t-4.5 -39.5t-17.5 -41.5q-13 -18 -27 -27.5t-49 -9.5
q-33 0 -54.5 13.5t-36.5 29.5q-14 15 -34 33.5t-46 18.5q-23 0 -30.5 -17.5t-7.5 -36.5q0 -9 4 -18h22v-15h-124zM55 685v15h155v-15h-20v-443q0 -79 59 -115.5t156 -36.5q105 0 160 36.5t55 115.5v443h-20v15h155v-15h-20v-455q0 -63 -26.5 -108.5t-73 -74.5t-105.5 -43
t-125 -14t-125 14t-105.5 43t-73 74.5t-26.5 108.5v455h-20z" />
    <glyph glyph-name="Umacron" unicode="&#x16a;" 
d="M520 895h15v-110h-15v15h-210v-15h-15v110h15v-15h210v15zM55 685v15h155v-15h-20v-443q0 -79 59 -115.5t156 -36.5q105 0 160 36.5t55 115.5v443h-20v15h155v-15h-20v-455q0 -63 -26.5 -108.5t-73 -74.5t-105.5 -43t-125 -14t-125 14t-105.5 43t-73 74.5t-26.5 108.5
v455h-20z" />
    <glyph glyph-name="umacron" unicode="&#x16b;" 
d="M520 895h15v-110h-15v15h-210v-15h-15v110h15v-15h210v15zM55 685v15h155v-15h-20v-443q0 -79 59 -115.5t156 -36.5q105 0 160 36.5t55 115.5v443h-20v15h155v-15h-20v-455q0 -63 -26.5 -108.5t-73 -74.5t-105.5 -43t-125 -14t-125 14t-105.5 43t-73 74.5t-26.5 108.5
v455h-20z" />
    <glyph glyph-name="Ubreve" unicode="&#x16c;" 
d="M245 919v15h115v-15h-20q0 -29 21 -44t54 -15t54 15t21 44h-20v15h115v-15h-20q0 -61 -37.5 -95t-112.5 -34t-112.5 34t-37.5 95h-20zM55 685v15h155v-15h-20v-443q0 -79 59 -115.5t156 -36.5q105 0 160 36.5t55 115.5v443h-20v15h155v-15h-20v-455q0 -63 -26.5 -108.5
t-73 -74.5t-105.5 -43t-125 -14t-125 14t-105.5 43t-73 74.5t-26.5 108.5v455h-20z" />
    <glyph glyph-name="ubreve" unicode="&#x16d;" 
d="M245 919v15h115v-15h-20q0 -29 21 -44t54 -15t54 15t21 44h-20v15h115v-15h-20q0 -61 -37.5 -95t-112.5 -34t-112.5 34t-37.5 95h-20zM55 685v15h155v-15h-20v-443q0 -79 59 -115.5t156 -36.5q105 0 160 36.5t55 115.5v443h-20v15h155v-15h-20v-455q0 -63 -26.5 -108.5
t-73 -74.5t-105.5 -43t-125 -14t-125 14t-105.5 43t-73 74.5t-26.5 108.5v455h-20z" />
    <glyph glyph-name="Uring" unicode="&#x16e;" 
d="M325 850q0 38 26 64t64 26t64 -26t26 -64t-26 -64t-64 -26t-64 26t-26 64zM365 850q0 -25 14.5 -39t35.5 -14t36 14t15 39q0 26 -15 40t-36 14t-35.5 -14t-14.5 -40zM55 685v15h155v-15h-20v-443q0 -79 59 -115.5t156 -36.5q105 0 160 36.5t55 115.5v443h-20v15h155v-15
h-20v-455q0 -63 -26.5 -108.5t-73 -74.5t-105.5 -43t-125 -14t-125 14t-105.5 43t-73 74.5t-26.5 108.5v455h-20z" />
    <glyph glyph-name="uring" unicode="&#x16f;" 
d="M325 850q0 38 26 64t64 26t64 -26t26 -64t-26 -64t-64 -26t-64 26t-26 64zM365 850q0 -25 14.5 -39t35.5 -14t36 14t15 39q0 26 -15 40t-36 14t-35.5 -14t-14.5 -40zM55 685v15h155v-15h-20v-443q0 -79 59 -115.5t156 -36.5q105 0 160 36.5t55 115.5v443h-20v15h155v-15
h-20v-455q0 -63 -26.5 -108.5t-73 -74.5t-105.5 -43t-125 -14t-125 14t-105.5 43t-73 74.5t-26.5 108.5v455h-20z" />
    <glyph glyph-name="Uhungarumlaut" unicode="&#x170;" 
d="M445.299 817.486l10.1992 -8.5l119.847 127.496l-10.1992 7.65039l8.49902 9.34961l91.7979 -67.1484l-8.5 -9.34961l-10.1992 7.64941l-139.396 -116.446l11.0498 -8.5l-8.5 -9.34961l-73.0977 57.7988zM240.299 817.486l10.1992 -8.5l119.847 127.496l-10.1992 7.65039
l8.49902 9.34961l91.7979 -67.1484l-8.5 -9.34961l-10.1992 7.64941l-139.396 -116.446l11.0498 -8.5l-8.5 -9.34961l-73.0977 57.7988zM55 685v15h155v-15h-20v-443q0 -79 59 -115.5t156 -36.5q105 0 160 36.5t55 115.5v443h-20v15h155v-15h-20v-455q0 -63 -26.5 -108.5
t-73 -74.5t-105.5 -43t-125 -14t-125 14t-105.5 43t-73 74.5t-26.5 108.5v455h-20z" />
    <glyph glyph-name="uhungarumlaut" unicode="&#x171;" 
d="M445.299 817.486l10.1992 -8.5l119.847 127.496l-10.1992 7.65039l8.49902 9.34961l91.7979 -67.1484l-8.5 -9.34961l-10.1992 7.64941l-139.396 -116.446l11.0498 -8.5l-8.5 -9.34961l-73.0977 57.7988zM240.299 817.486l10.1992 -8.5l119.847 127.496l-10.1992 7.65039
l8.49902 9.34961l91.7979 -67.1484l-8.5 -9.34961l-10.1992 7.64941l-139.396 -116.446l11.0498 -8.5l-8.5 -9.34961l-73.0977 57.7988zM55 685v15h155v-15h-20v-443q0 -79 59 -115.5t156 -36.5q105 0 160 36.5t55 115.5v443h-20v15h155v-15h-20v-455q0 -63 -26.5 -108.5
t-73 -74.5t-105.5 -43t-125 -14t-125 14t-105.5 43t-73 74.5t-26.5 108.5v455h-20z" />
    <glyph glyph-name="Uogonek" unicode="&#x172;" 
d="M511 -138q-7 -14 -21 -31t-39 -29t-65 -12q-53 0 -80.5 25t-27.5 70q0 40 24.5 66t59.5 42t65 26l12 -19q-23 -13 -40.5 -40t-17.5 -59q0 -28 16.5 -43.5t41.5 -15.5q21 0 37 6t26 20zM55 685v15h155v-15h-20v-443q0 -79 59 -115.5t156 -36.5q105 0 160 36.5t55 115.5
v443h-20v15h155v-15h-20v-455q0 -63 -26.5 -108.5t-73 -74.5t-105.5 -43t-125 -14t-125 14t-105.5 43t-73 74.5t-26.5 108.5v455h-20z" />
    <glyph glyph-name="uogonek" unicode="&#x173;" 
d="M511 -138q-7 -14 -21 -31t-39 -29t-65 -12q-53 0 -80.5 25t-27.5 70q0 40 24.5 66t59.5 42t65 26l12 -19q-23 -13 -40.5 -40t-17.5 -59q0 -28 16.5 -43.5t41.5 -15.5q21 0 37 6t26 20zM55 685v15h155v-15h-20v-443q0 -79 59 -115.5t156 -36.5q105 0 160 36.5t55 115.5
v443h-20v15h155v-15h-20v-455q0 -63 -26.5 -108.5t-73 -74.5t-105.5 -43t-125 -14t-125 14t-105.5 43t-73 74.5t-26.5 108.5v455h-20z" />
    <glyph glyph-name="Wcircumflex" unicode="&#x174;" horiz-adv-x="1140" 
d="M508 808v-15h-140v15h23l104 120h-17v15h140v-15h-17l104 -120h23v-15h-140v15h18l-58 76l-58 -76h18zM320 131l190 554h-20v15h160v-15h-20l190 -554l185 554h-20v15h150v-15h-15l-240 -670h15v-15h-150v15h14l-189 513l-189 -513h14v-15h-150v15h15l-240 670h-15v15
h150v-15h-20z" />
    <glyph glyph-name="wcircumflex" unicode="&#x175;" horiz-adv-x="1140" 
d="M508 808v-15h-140v15h23l104 120h-17v15h140v-15h-17l104 -120h23v-15h-140v15h18l-58 76l-58 -76h18zM320 131l190 554h-20v15h160v-15h-20l190 -554l185 554h-20v15h150v-15h-15l-240 -670h15v-15h-150v15h14l-189 513l-189 -513h14v-15h-150v15h15l-240 670h-15v15
h150v-15h-20z" />
    <glyph glyph-name="Ycircumflex" unicode="&#x176;" horiz-adv-x="701" 
d="M348 808v-15h-140v15h23l104 120h-17v15h140v-15h-17l104 -120h23v-15h-140v15h18l-58 76l-58 -76h18zM261 0v15h30v286l-285 384h-16v15h175v-15h-19l202 -289l212 289h-24v15h175v-15h-16l-290 -383v-287h30v-15h-174z" />
    <glyph glyph-name="ycircumflex" unicode="&#x177;" horiz-adv-x="701" 
d="M348 808v-15h-140v15h23l104 120h-17v15h140v-15h-17l104 -120h23v-15h-140v15h18l-58 76l-58 -76h18zM261 0v15h30v286l-285 384h-16v15h175v-15h-19l202 -289l212 289h-24v15h175v-15h-16l-290 -383v-287h30v-15h-174z" />
    <glyph glyph-name="Ydieresis" unicode="&#x178;" horiz-adv-x="701" 
d="M411.999 820.995q0 23.1992 15.5996 39.5996q15.5996 16.3994 40.3994 16.3994t40.3994 -16.3994q15.5996 -16.4004 15.5996 -39.5996q0 -22.3994 -15.5996 -39.1992t-40.3994 -16.7998t-40.3994 16.7998t-15.5996 39.1992zM251.999 820.995q0 23.1992 15.5996 39.5996
q15.5996 16.3994 40.3994 16.3994t40.3994 -16.3994q15.5996 -16.4004 15.5996 -39.5996q0 -22.3994 -15.5996 -39.1992t-40.3994 -16.7998t-40.3994 16.7998t-15.5996 39.1992zM261 0v15h30v286l-285 384h-16v15h175v-15h-19l202 -289l212 289h-24v15h175v-15h-16
l-290 -383v-287h30v-15h-174z" />
    <glyph glyph-name="Zacute" unicode="&#x179;" horiz-adv-x="744" 
d="M262.299 817.486l10.1992 -8.5l119.847 127.496l-10.1992 7.65039l8.49902 9.34961l91.7979 -67.1484l-8.5 -9.34961l-10.1992 7.64941l-139.396 -116.446l11.0498 -8.5l-8.5 -9.34961l-73.0977 57.7988zM670 125h15v-140h-15v15h-640v15l472 585h-447v-25h-15v140h15
v-15h644v-15l-469 -585h440v25z" />
    <glyph glyph-name="zacute" unicode="&#x17a;" horiz-adv-x="744" 
d="M262.299 817.486l10.1992 -8.5l119.847 127.496l-10.1992 7.65039l8.49902 9.34961l91.7979 -67.1484l-8.5 -9.34961l-10.1992 7.64941l-139.396 -116.446l11.0498 -8.5l-8.5 -9.34961l-73.0977 57.7988zM670 125h15v-140h-15v15h-640v15l472 585h-447v-25h-15v140h15
v-15h644v-15l-469 -585h440v25z" />
    <glyph glyph-name="Zdotaccent" unicode="&#x17b;" horiz-adv-x="744" 
d="M281.999 829.999q0 23.2002 15.5996 39.5996t40.3994 16.3994t40.3994 -16.3994t15.5996 -39.5996q0 -22.3994 -15.5996 -39.1992t-40.3994 -16.7998t-40.3994 16.7998t-15.5996 39.1992zM670 125h15v-140h-15v15h-640v15l472 585h-447v-25h-15v140h15v-15h644v-15
l-469 -585h440v25z" />
    <glyph glyph-name="zdotaccent" unicode="&#x17c;" horiz-adv-x="744" 
d="M281.999 829.999q0 23.2002 15.5996 39.5996t40.3994 16.3994t40.3994 -16.3994t15.5996 -39.5996q0 -22.3994 -15.5996 -39.1992t-40.3994 -16.7998t-40.3994 16.7998t-15.5996 39.1992zM670 125h15v-140h-15v15h-640v15l472 585h-447v-25h-15v140h15v-15h644v-15
l-469 -585h440v25z" />
    <glyph glyph-name="Zcaron" unicode="&#x17d;" horiz-adv-x="744" 
d="M378 885v15h140v-15h-23l-104 -120h17v-15h-140v15h17l-104 120h-23v15h140v-15h-18l58 -76l58 76h-18zM670 125h15v-140h-15v15h-640v15l472 585h-447v-25h-15v140h15v-15h644v-15l-469 -585h440v25z" />
    <glyph glyph-name="zcaron" unicode="&#x17e;" horiz-adv-x="744" 
d="M378 885v15h140v-15h-23l-104 -120h17v-15h-140v15h17l-104 120h-23v15h140v-15h-18l58 -76l58 76h-18zM670 125h15v-140h-15v15h-640v15l472 585h-447v-25h-15v140h15v-15h644v-15l-469 -585h440v25z" />
    <glyph glyph-name="circumflex" unicode="&#x2c6;" horiz-adv-x="384" 
d="M152 808v-15h-140v15h23l104 120h-17v15h140v-15h-17l104 -120h23v-15h-140v15h18l-58 76l-58 -76h18z" />
    <glyph glyph-name="caron" unicode="&#x2c7;" horiz-adv-x="384" 
d="M232 935v15h140v-15h-23l-104 -120h17v-15h-140v15h17l-104 120h-23v15h140v-15h-18l58 -76l58 76h-18z" />
    <glyph glyph-name="breve" unicode="&#x2d8;" horiz-adv-x="279" 
d="M-30 919v15h115v-15h-20q0 -29 21 -44t54 -15t54 15t21 44h-20v15h115v-15h-20q0 -61 -37.5 -95t-112.5 -34t-112.5 34t-37.5 95h-20z" />
    <glyph glyph-name="dotaccent" unicode="&#x2d9;" horiz-adv-x="171" 
d="M29.999 829.999q0 23.2002 15.5996 39.5996t40.3994 16.3994t40.3994 -16.3994t15.5996 -39.5996q0 -22.3994 -15.5996 -39.1992t-40.3994 -16.7998t-40.3994 16.7998t-15.5996 39.1992z" />
    <glyph glyph-name="ring" unicode="&#x2da;" horiz-adv-x="319" 
d="M70 850q0 38 26 64t64 26t64 -26t26 -64t-26 -64t-64 -26t-64 26t-26 64zM110 850q0 -25 14.5 -39t35.5 -14t36 14t15 39q0 26 -15 40t-36 14t-35.5 -14t-14.5 -40z" />
    <glyph glyph-name="ogonek" unicode="&#x2db;" horiz-adv-x="549" 
d="M388 -114q-7 -14 -21 -31t-39 -29t-65 -12q-53 0 -80.5 25t-27.5 70q0 40 24.5 66t59.5 42t65 26l12 -19q-23 -13 -40.5 -40t-17.5 -59q0 -28 16.5 -43.5t41.5 -15.5q21 0 37 6t26 20z" />
    <glyph glyph-name="tilde" unicode="&#x2dc;" horiz-adv-x="447" 
d="M13 830v15h22q-1 6 -1.5 15t-0.5 15q0 16 5 39t19 41q14 19 36.5 30.5t53.5 11.5q28 0 48.5 -10t36.5 -26q15 -16 34 -37.5t38 -21.5q20 0 25.5 13.5t5.5 35.5q0 8 -3 21h-21v15h124v-15h-20q3 -17 3 -32t-4.5 -39.5t-17.5 -41.5q-13 -18 -27 -27.5t-49 -9.5
q-33 0 -54.5 13.5t-36.5 29.5q-14 15 -34 33.5t-46 18.5q-23 0 -30.5 -17.5t-7.5 -36.5q0 -9 4 -18h22v-15h-124z" />
    <glyph glyph-name="hungarumlaut" unicode="&#x2dd;" horiz-adv-x="0" 
d="M-165.701 817.486l10.1992 -8.5l119.847 127.496l-10.1992 7.65039l8.49902 9.34961l91.7979 -67.1484l-8.5 -9.34961l-10.1992 7.64941l-139.396 -116.446l11.0498 -8.5l-8.5 -9.34961l-73.0977 57.7988zM-370.701 817.486l10.1992 -8.5l119.847 127.496
l-10.1992 7.65039l8.49902 9.34961l91.7979 -67.1484l-8.5 -9.34961l-10.1992 7.64941l-139.396 -116.446l11.0498 -8.5l-8.5 -9.34961l-73.0977 57.7988z" />
    <glyph glyph-name="gravecomb" unicode="&#x300;" horiz-adv-x="0" 
d="M-8.55762 817.486l8.5 -9.34961l-73.0986 -57.7988l-8.49902 9.34961l11.0498 8.5l-139.396 116.446l-10.1992 -7.64941l-8.5 9.34961l91.7969 67.1484l8.5 -9.34961l-10.1992 -7.65039l119.846 -127.496z" />
    <glyph glyph-name="acutecomb" unicode="&#x301;" horiz-adv-x="0" 
d="M-220.701 817.486l10.1992 -8.5l119.847 127.496l-10.1992 7.65039l8.49902 9.34961l91.7979 -67.1484l-8.5 -9.34961l-10.1992 7.64941l-139.396 -116.446l11.0498 -8.5l-8.5 -9.34961l-73.0977 57.7988z" />
    <glyph glyph-name="uni0302" unicode="&#x302;" horiz-adv-x="0" 
d="M-40 808v-15h-140v15h23l104 120h-17v15h140v-15h-17l104 -120h23v-15h-140v15h18l-58 76l-58 -76h18z" />
    <glyph glyph-name="tildecomb" unicode="&#x303;" horiz-adv-x="0" 
d="M-211 830v15h22q-1 6 -1.5 15t-0.5 15q0 16 5 39t19 41q14 19 36.5 30.5t53.5 11.5q28 0 48.5 -10t36.5 -26q15 -16 34 -37.5t38 -21.5q20 0 25.5 13.5t5.5 35.5q0 8 -3 21h-21v15h124v-15h-20q3 -17 3 -32t-4.5 -39.5t-17.5 -41.5q-13 -18 -27 -27.5t-49 -9.5
q-33 0 -54.5 13.5t-36.5 29.5q-14 15 -34 33.5t-46 18.5q-23 0 -30.5 -17.5t-7.5 -36.5q0 -9 4 -18h22v-15h-124z" />
    <glyph glyph-name="uni0304" unicode="&#x304;" horiz-adv-x="0" 
d="M-104 895h15v-110h-15v15h-210v-15h-15v110h15v-15h210v15z" />
    <glyph glyph-name="uni0306" unicode="&#x306;" horiz-adv-x="0" 
d="M-170 919v15h115v-15h-20q0 -29 21 -44t54 -15t54 15t21 44h-20v15h115v-15h-20q0 -61 -37.5 -95t-112.5 -34t-112.5 34t-37.5 95h-20z" />
    <glyph glyph-name="uni0307" unicode="&#x307;" horiz-adv-x="0" 
d="M-230 576q0 18 17 33t35 15q20 0 34 -17t14 -35q0 -16 -15.5 -32t-36.5 -16q-18 0 -33 16.5t-15 35.5z" />
    <glyph glyph-name="uni0308" unicode="&#x308;" horiz-adv-x="0" 
d="M41.999 820.995q0 23.1992 15.5996 39.5996q15.5996 16.3994 40.3994 16.3994t40.3994 -16.3994q15.5996 -16.4004 15.5996 -39.5996q0 -22.3994 -15.5996 -39.1992t-40.3994 -16.7998t-40.3994 16.7998t-15.5996 39.1992zM-118.001 820.995q0 23.1992 15.5996 39.5996
q15.5996 16.3994 40.3994 16.3994t40.3994 -16.3994q15.5996 -16.4004 15.5996 -39.5996q0 -22.3994 -15.5996 -39.1992t-40.3994 -16.7998t-40.3994 16.7998t-15.5996 39.1992z" />
    <glyph glyph-name="uni030A" unicode="&#x30a;" horiz-adv-x="0" 
d="M-90 850q0 38 26 64t64 26t64 -26t26 -64t-26 -64t-64 -26t-64 26t-26 64zM-50 850q0 -25 14.5 -39t35.5 -14t36 14t15 39q0 26 -15 40t-36 14t-35.5 -14t-14.5 -40z" />
    <glyph glyph-name="uni030B" unicode="&#x30b;" horiz-adv-x="0" 
d="M-165.701 817.486l10.1992 -8.5l119.847 127.496l-10.1992 7.65039l8.49902 9.34961l91.7979 -67.1484l-8.5 -9.34961l-10.1992 7.64941l-139.396 -116.446l11.0498 -8.5l-8.5 -9.34961l-73.0977 57.7988zM-370.701 817.486l10.1992 -8.5l119.847 127.496
l-10.1992 7.65039l8.49902 9.34961l91.7979 -67.1484l-8.5 -9.34961l-10.1992 7.64941l-139.396 -116.446l11.0498 -8.5l-8.5 -9.34961l-73.0977 57.7988z" />
    <glyph glyph-name="uni030C" unicode="&#x30c;" horiz-adv-x="0" 
d="M0 935v15h140v-15h-23l-104 -120h17v-15h-140v15h17l-104 120h-23v15h140v-15h-18l58 -76l58 76h-18z" />
    <glyph glyph-name="uni0311" unicode="&#x311;" horiz-adv-x="0" 
d="M171 890v-15h-115v15h20q0 29 -21 44t-54 15t-54 -15t-21 -44h20v-15h-115v15h20q0 61 37.5 95t112.5 34t112.5 -34t37.5 -95h20z" />
    <glyph glyph-name="uni0312" unicode="&#x312;" horiz-adv-x="0" 
d="M26.001 882.801q0 -24.7998 -18.3994 -40.7998q-18.4004 -15.999 -43.1992 -15.999q-28.7998 0 -46.3994 19.5996q-17.6006 19.5996 -17.6006 53.1992q0 34.3994 10 65.1982q10 30.7998 29.5996 51.5996t47.5996 27.1992v-29.5996q-36 -21.5996 -42.3994 -79.998
q9.59961 4.7998 22.3994 4.7998q27.2002 0 42.7998 -15.2002q15.5996 -15.1992 15.5996 -39.999z" />
    <glyph glyph-name="uni0326" unicode="&#x326;" horiz-adv-x="0" 
d="M-26.001 -142.801q0 24.7998 18.3994 40.7998q18.4004 15.999 43.1992 15.999q28.7998 0 46.3994 -19.5996q17.6006 -19.5996 17.6006 -53.1992q0 -34.3994 -10 -65.1982q-10 -30.7998 -29.5996 -51.5996t-47.5996 -27.1992v29.5996q36 21.5996 42.3994 79.998
q-9.59961 -4.7998 -22.3994 -4.7998q-27.2002 0 -42.7998 15.2002q-15.5996 15.1992 -15.5996 39.999z" />
    <glyph glyph-name="uni0327" unicode="&#x327;" horiz-adv-x="0" 
d="M13 -168q0 31 -31.5 42.5t-80.5 11.5l90 120h44l-60 -80q77 -2 113 -20.5t36 -60.5q0 -25 -21 -47.5t-66.5 -37t-121.5 -14.5v36q44 0 71 14t27 36z" />
    <glyph glyph-name="uni0328" unicode="&#x328;" horiz-adv-x="549" 
d="M388 -114q-7 -14 -21 -31t-39 -29t-65 -12q-53 0 -80.5 25t-27.5 70q0 40 24.5 66t59.5 42t65 26l12 -19q-23 -13 -40.5 -40t-17.5 -59q0 -28 16.5 -43.5t41.5 -15.5q21 0 37 6t26 20z" />
    <glyph glyph-name="uni1E9E" unicode="&#x1e9e;" horiz-adv-x="861" 
d="M55 0v15h20v415q0 82 28.5 136.5t78 86.5t114 45.5t135.5 13.5q84 0 152 -24.5t118.5 -60.5t81.5 -70l17 15l10 -12q-19 -17 -51 -39.5t-65 -46.5t-56 -47t-23 -43q0 -18 15.5 -29.5t40 -21t52.5 -20.5t52.5 -27.5t40 -42t15.5 -64.5q0 -57 -36.5 -100t-101 -67
t-148.5 -24q-76 0 -138.5 19.5t-104.5 44.5l-9 -19l-14 7l60 126l14 -7l-7 -16q25 -14 57 -27.5t65.5 -22.5t62.5 -9q40 0 80.5 7.5t68 27t27.5 53.5q0 26 -15.5 42t-40 27t-51.5 21t-51.5 23t-40 33t-15.5 51q0 32 18 58.5t43.5 47.5t49.5 37.5t35 28.5q-15 14 -45.5 30.5
t-73.5 28t-98 11.5q-65 0 -118 -15t-84.5 -56.5t-31.5 -120.5l2 -404h20v-15h-155z" />
    <glyph glyph-name="uni2000" unicode="&#x2000;" horiz-adv-x="1000" 
 />
    <glyph glyph-name="uni2001" unicode="&#x2001;" horiz-adv-x="2000" 
 />
    <glyph glyph-name="uni2002" unicode="&#x2002;" horiz-adv-x="1000" 
 />
    <glyph glyph-name="uni2003" unicode="&#x2003;" horiz-adv-x="2000" 
 />
    <glyph glyph-name="uni2004" unicode="&#x2004;" horiz-adv-x="666" 
 />
    <glyph glyph-name="uni2005" unicode="&#x2005;" horiz-adv-x="500" 
 />
    <glyph glyph-name="uni2006" unicode="&#x2006;" horiz-adv-x="333" 
 />
    <glyph glyph-name="uni2007" unicode="&#x2007;" horiz-adv-x="1160" 
 />
    <glyph glyph-name="uni2008" unicode="&#x2008;" horiz-adv-x="400" 
 />
    <glyph glyph-name="uni2009" unicode="&#x2009;" horiz-adv-x="333" 
 />
    <glyph glyph-name="uni200A" unicode="&#x200a;" horiz-adv-x="200" 
 />
    <glyph glyph-name="uni200B" unicode="&#x200b;" horiz-adv-x="0" 
 />
    <glyph glyph-name="uni2010" unicode="&#x2010;" horiz-adv-x="320" 
d="M20 350h15v-15h250v15h15v-130h-15v15h-250v-15h-15v130z" />
    <glyph glyph-name="uni2011" unicode="&#x2011;" horiz-adv-x="320" 
d="M20 350h15v-15h250v15h15v-130h-15v15h-250v-15h-15v130z" />
    <glyph glyph-name="figuredash" unicode="&#x2012;" horiz-adv-x="446" 
d="M20 350h15v-15h376v15h15v-130h-15v15h-376v-15h-15v130z" />
    <glyph glyph-name="endash" unicode="&#x2013;" horiz-adv-x="531" 
d="M20 350h15v-15h461v15h15v-130h-15v15h-461v-15h-15v130z" />
    <glyph glyph-name="emdash" unicode="&#x2014;" horiz-adv-x="815" 
d="M20 350h15v-15h745v15h15v-130h-15v15h-745v-15h-15v130z" />
    <glyph glyph-name="uni2015" unicode="&#x2015;" horiz-adv-x="901" 
d="M20 350h16v-15h830v15h15v-130h-15v15h-830v-15h-16v130z" />
    <glyph glyph-name="quoteleft" unicode="&#x2018;" horiz-adv-x="307" 
d="M232 516q0 -31 -23 -51t-54 -20q-36 0 -58 24.5t-22 66.5q0 43 12.5 81.5t37 64.5t59.5 34v-37q-45 -27 -53 -100q12 6 28 6q34 0 53.5 -19t19.5 -50z" />
    <glyph glyph-name="quoteright" unicode="&#x2019;" horiz-adv-x="307" 
d="M75 644q0 31 23 51t54 20q36 0 58 -24.5t22 -66.5q0 -43 -12.5 -81.5t-37 -64.5t-59.5 -34v37q45 27 53 100q-12 -6 -28 -6q-34 0 -53.5 19t-19.5 50z" />
    <glyph glyph-name="quotesinglbase" unicode="&#x201a;" horiz-adv-x="307" 
d="M75 54q0 31 23 51t54 20q36 0 58 -24.5t22 -66.5q0 -43 -12.5 -81.5t-37 -64.5t-59.5 -34v37q45 27 53 100q-12 -6 -28 -6q-34 0 -53.5 19t-19.5 50z" />
    <glyph glyph-name="quotedblleft" unicode="&#x201c;" horiz-adv-x="502" 
d="M427 516q0 -31 -23 -51t-54 -20q-36 0 -58 24.5t-22 66.5q0 43 12.5 81.5t37 64.5t59.5 34v-37q-45 -27 -53 -100q12 6 28 6q34 0 53.5 -19t19.5 -50zM232 516q0 -31 -23 -51t-54 -20q-36 0 -58 24.5t-22 66.5q0 43 12.5 81.5t37 64.5t59.5 34v-37q-45 -27 -53 -100
q12 6 28 6q34 0 53.5 -19t19.5 -50z" />
    <glyph glyph-name="quotedblright" unicode="&#x201d;" horiz-adv-x="502" 
d="M75 644q0 31 23 51t54 20q36 0 58 -24.5t22 -66.5q0 -43 -12.5 -81.5t-37 -64.5t-59.5 -34v37q45 27 53 100q-12 -6 -28 -6q-34 0 -53.5 19t-19.5 50zM270 644q0 31 23 51t54 20q36 0 58 -24.5t22 -66.5q0 -43 -12.5 -81.5t-37 -64.5t-59.5 -34v37q45 27 53 100
q-12 -6 -28 -6q-34 0 -53.5 19t-19.5 50z" />
    <glyph glyph-name="quotedblbase" unicode="&#x201e;" horiz-adv-x="502" 
d="M75 108q0 31 23 51t54 20q36 0 58 -24.5t22 -66.5q0 -43 -12.5 -81.5t-37 -64.5t-59.5 -34v37q45 27 53 100q-12 -6 -28 -6q-34 0 -53.5 19t-19.5 50zM270 108q0 31 23 51t54 20q36 0 58 -24.5t22 -66.5q0 -43 -12.5 -81.5t-37 -64.5t-59.5 -34v37q45 27 53 100
q-12 -6 -28 -6q-34 0 -53.5 19t-19.5 50z" />
    <glyph glyph-name="dagger" unicode="&#x2020;" horiz-adv-x="594" 
d="M225 -150v15h20v585h-140v-20h-15v130h15v-20h140v145h-20v15h145v-15h-20v-145h140v20h15v-130h-15v20h-140v-585h20v-15h-145z" />
    <glyph glyph-name="daggerdbl" unicode="&#x2021;" horiz-adv-x="594" 
d="M90 150h15v-15h140v310h-140v-15h-15v130h15v-20h140v145h-20v15h145v-15h-20v-145h140v20h15v-130h-15v15h-140v-310h140v15h15v-130h-15v20h-140v-175h20v-15h-145v15h20v175h-140v-20h-15v130z" />
    <glyph glyph-name="bullet" unicode="&#x2022;" horiz-adv-x="300" 
d="M84 426q0 29 20 49.5t50 20.5t50.5 -20.5t20.5 -49.5q0 -28 -20.5 -49t-50.5 -21t-50 21t-20 49z" />
    <glyph glyph-name="ellipsis" unicode="&#x2026;" horiz-adv-x="900" 
d="M80 55q0 29 19.5 49.5t50.5 20.5t50.5 -20.5t19.5 -49.5q0 -28 -19.5 -49t-50.5 -21t-50.5 21t-19.5 49zM680 55q0 29 19.5 49.5t50.5 20.5t50.5 -20.5t19.5 -49.5q0 -28 -19.5 -49t-50.5 -21t-50.5 21t-19.5 49zM380 55q0 29 19.5 49.5t50.5 20.5t50.5 -20.5t19.5 -49.5
q0 -28 -19.5 -49t-50.5 -21t-50.5 21t-19.5 49z" />
    <glyph glyph-name="perthousand" unicode="&#x2030;" horiz-adv-x="1317" 
d="M35 530q0 47 20.5 88t60.5 66.5t97 25.5q58 0 97.5 -25.5t60 -66.5t20.5 -88t-20.5 -88t-60 -66.5t-97.5 -25.5q-57 0 -97 25.5t-60.5 66.5t-20.5 88zM98 0v15h27l536 670h-28v15h170v-15h-27l-536 -670h28v-15h-170zM126 530q0 -38 23 -66.5t64 -28.5t64 28.5t23 66.5
t-23 66.5t-64 28.5t-64 -28.5t-23 -66.5zM926 170q0 47 20.5 88t60.5 66.5t97 25.5q58 0 97.5 -25.5t60 -66.5t20.5 -88t-20.5 -88t-60 -66.5t-97.5 -25.5q-57 0 -97 25.5t-60.5 66.5t-20.5 88zM510 170q0 47 20.5 88t60.5 66.5t97 25.5q58 0 97.5 -25.5t60 -66.5t20.5 -88
t-20.5 -88t-60 -66.5t-97.5 -25.5q-57 0 -97 25.5t-60.5 66.5t-20.5 88zM1017 170q0 -38 23 -66.5t64 -28.5t64 28.5t23 66.5t-23 66.5t-64 28.5t-64 -28.5t-23 -66.5zM601 170q0 -38 23 -66.5t64 -28.5t64 28.5t23 66.5t-23 66.5t-64 28.5t-64 -28.5t-23 -66.5z" />
    <glyph glyph-name="uni2031" unicode="&#x2031;" horiz-adv-x="1733" 
d="M35 530q0 47 20.5 88t60.5 66.5t97 25.5q58 0 97.5 -25.5t60 -66.5t20.5 -88t-20.5 -88t-60 -66.5t-97.5 -25.5q-57 0 -97 25.5t-60.5 66.5t-20.5 88zM98 0v15h27l536 670h-28v15h170v-15h-27l-536 -670h28v-15h-170zM126 530q0 -38 23 -66.5t64 -28.5t64 28.5t23 66.5
t-23 66.5t-64 28.5t-64 -28.5t-23 -66.5zM1342 170q0 47 20.5 88t60.5 66.5t97 25.5q58 0 97.5 -25.5t60 -66.5t20.5 -88t-20.5 -88t-60 -66.5t-97.5 -25.5q-57 0 -97 25.5t-60.5 66.5t-20.5 88zM926 170q0 47 20.5 88t60.5 66.5t97 25.5q58 0 97.5 -25.5t60 -66.5t20.5 -88
t-20.5 -88t-60 -66.5t-97.5 -25.5q-57 0 -97 25.5t-60.5 66.5t-20.5 88zM510 170q0 47 20.5 88t60.5 66.5t97 25.5q58 0 97.5 -25.5t60 -66.5t20.5 -88t-20.5 -88t-60 -66.5t-97.5 -25.5q-57 0 -97 25.5t-60.5 66.5t-20.5 88zM1433 170q0 -38 23 -66.5t64 -28.5t64 28.5
t23 66.5t-23 66.5t-64 28.5t-64 -28.5t-23 -66.5zM1017 170q0 -38 23 -66.5t64 -28.5t64 28.5t23 66.5t-23 66.5t-64 28.5t-64 -28.5t-23 -66.5zM601 170q0 -38 23 -66.5t64 -28.5t64 28.5t23 66.5t-23 66.5t-64 28.5t-64 -28.5t-23 -66.5z" />
    <glyph glyph-name="guilsinglleft" unicode="&#x2039;" horiz-adv-x="344" 
d="M213 4l10 8l-185 243l185 243l-10 8l8 9l88 -71l-8 -9l-11 9l-149 -185l149 -193l11 9l8 -9l-88 -71z" />
    <glyph glyph-name="guilsinglright" unicode="&#x203a;" horiz-adv-x="344" 
d="M131 4l-8 -9l-88 71l8 9l11 -9l149 185l-149 193l-11 -9l-8 9l88 71l8 -9l-10 -8l185 -243l-185 -243z" />
    <glyph glyph-name="fraction" unicode="&#x2044;" horiz-adv-x="665" 
d="M35 15h29l417 670h-31v15h180v-15h-29l-417 -670h31v-15h-180v15z" />
    <glyph glyph-name="Euro" unicode="&#x20ac;" horiz-adv-x="900" 
d="M5 279v40h71q-1 15 -1 31q0 25 3 49h-73v40h80q20 82 75 143t141.5 94.5t198.5 33.5q78 0 138.5 -16.5t105.5 -40t75 -43.5l6 9l13 -8l-76 -112l-13 8l9 14q-25 20 -63.5 40.5t-88 34.5t-106.5 14q-117 0 -192 -47.5t-103 -123.5h270v-40h-281q-4 -24 -4 -49q0 -16 2 -31
h283v-40h-276q23 -84 100 -136.5t201 -52.5q58 0 110 16t95 41t73 50l-8 11l13 8l77 -110l-13 -8l-8 12q-35 -26 -84 -53.5t-112.5 -47t-142.5 -19.5q-116 0 -204.5 36t-143.5 101t-71 152h-76z" />
    <glyph glyph-name="trademark" unicode="&#x2122;" horiz-adv-x="611" 
d="M293.399 448v5.39941h7.19922v241.19h-7.19922v5.40039h68.3965v-5.40039h-6.47949l82.0771 -173.513l82.0762 173.513h-6.47949v5.40039h68.3975v-5.40039h-7.2002v-241.19h7.2002v-5.39941h-53.998v5.39941h7.19922v188.993l-97.1953 -197.992l-97.1963 197.992
v-188.993h7.19922v-5.39941h-53.9971zM108.796 448v5.39941h10.7998v212.392h-93.5957v-9h-5.40039v48.5986h5.40039v-5.39941h228.59v5.39941h5.40039v-48.5986h-5.40039v9h-93.5957v-212.392h10.7998v-5.39941h-62.998z" />
    </font>
</defs>
</svg>
