<?xml version="1.0" standalone="no"?>
<!DOCTYPE svg PUBLIC "-//W3C//DTD SVG 1.1//EN" "http://www.w3.org/Graphics/SVG/1.1/DTD/svg11.dtd" >
<svg xmlns="http://www.w3.org/2000/svg" xmlns:xlink="http://www.w3.org/1999/xlink" version="1.1">
<metadata>
Created by FontForge 20201107 at Thu Nov 28 11:39:04 2024
 By 
1.2, Copyright Copr. Castcraft Software, Inc. 1990.
</metadata>
<defs>
<font id="OPTICopperplate" horiz-adv-x="1867" >
  <font-face 
    font-family="OPTICopperplate"
    font-weight="500"
    font-stretch="normal"
    units-per-em="2048"
    panose-1="0 0 0 0 0 0 0 0 0 0"
    ascent="1638"
    descent="-410"
    x-height="1362"
    cap-height="1628"
    bbox="-68 -569 2587 2514.12"
    underline-thickness="122"
    underline-position="-286"
    unicode-range="U+0020-222B"
  />
<missing-glyph horiz-adv-x="573" 
 />
    <glyph glyph-name=".notdef" horiz-adv-x="573" 
 />
    <glyph glyph-name=".null" horiz-adv-x="0" 
 />
    <glyph glyph-name="nonmarkingreturn" horiz-adv-x="682" 
 />
    <glyph glyph-name="space" unicode=" " horiz-adv-x="786" 
d="M0 0z" />
    <glyph glyph-name="exclam" unicode="!" horiz-adv-x="696" 
d="M182 111q-13 46 5.5 94t68.5 76q66 36 139 0q77 -41 84 -121q8 -84 -61 -137q-60 -47 -135 -23q-81 30 -101 111zM530 1618q-22 -8 -36 -39q-13 -16 -13 -59l-90 -1018l35 -21l-6 -28h-187l-6 26l31 23l-92 1009q-6 42 -6 60q-7 23 -14.5 30t-26.5 13v28h411v-24z" />
    <glyph glyph-name="quotedbl" unicode="&#x22;" horiz-adv-x="782" 
d="M276 1372l-43 -371h-47l-47 361q0 2 -4 23.5t-6 34t-4.5 38t-3 42.5t0.5 40t5.5 39t13 30.5t21.5 22.5q47 24 92 -2q12 -8 19.5 -23t10.5 -37t4.5 -41t-0.5 -47t-3.5 -42.5t-5 -40t-3.5 -27.5zM600 1368l-39 -367h-53l-47 367q-1 4 -7 40.5t-8 62.5t-2 61.5t10.5 61
t30.5 38.5q48 29 93 -2q9 -6 15.5 -17.5t10 -25.5t6 -31.5t2.5 -35t-0.5 -36t-2 -35t-3 -31.5t-3 -26t-2.5 -18z" />
    <glyph glyph-name="numbersign" unicode="#" horiz-adv-x="1863" 
d="M676 1042l176 498h139l8 -2l9 2l10 -2h8l-164 -496h322l172 496h174l-164 -496h334l-41 -147h-344l-113 -336h338l-53 -153h-342l-168 -498h-176l160 498h-320l-172 -498h-174l158 498h-334l47 155h342l113 334h-332l49 147h338zM809 895l-119 -332h332l111 332h-324z
" />
    <glyph glyph-name="dollar" unicode="$" 
d="M889 1620v168h164v-139q0 -24 8 -35h33q155 -15 244.5 -36.5t234.5 -78.5l39 -14l10 -6l12 -2h27l20 22l29 -14l-143 -332l-35 10q0 7 1 16.5t0.5 13t-3 10t-9.5 13t-20 15.5q-14 14 -67 41q-68 29 -140 49q-3 1 -30.5 6.5t-55 10.5t-70.5 11t-81 9v-408q158 -18 237 -37
q335 -81 416 -295q25 -69 27 -145.5t-27 -160.5t-90 -148q-33 -35 -73 -63.5t-73.5 -47t-83 -34t-78.5 -23.5t-86 -16t-79.5 -10.5t-81.5 -8.5v-254h-170v260q-226 18 -356 60q-88 27 -181 71q-3 0 -20 8.5t-23 12.5l-47 22l-45 19q-29 6 -43 -19l-28 19l163 348l29 -10
q-8 -21 -3.5 -38t28.5 -42q11 -11 21 -19t16.5 -11.5t20 -10.5t22.5 -12q96 -57 157 -76q29 -11 129 -34t162 -28v435q-37 2 -73 6t-106.5 14.5t-133 30t-129 47t-119 72t-80.5 98.5q-47 91 -41.5 195.5t64.5 201.5q46 75 124 131.5t170 88.5t165 48t151 25zM893 1358
q-64 -4 -110.5 -10.5t-116 -33.5t-107.5 -71q-69 -78 -37 -153q8 -20 24.5 -37t39.5 -29.5t47.5 -22t54 -16t53.5 -11t52.5 -7t44.5 -3.5t36 -2l19 -1v397zM1063 651v-424q267 17 346 119q30 39 37.5 85t-8.5 77q-13 29 -45.5 53t-70.5 38t-84 25t-80.5 15.5t-64 8
t-30.5 3.5z" />
    <glyph glyph-name="percent" unicode="%" horiz-adv-x="1949" 
d="M377 -33l997 1673h166l-1001 -1673h-162zM252 1526q58 52 139 82q56 14 115.5 16t127 -19.5t122.5 -64.5q86 -67 123 -161.5t30 -186.5q-5 -93 -53 -176t-143 -137q-88 -50 -185 -53t-184 40q-193 96 -223 303q-11 85 19 183.5t112 173.5zM1087 625q64 79 152 116
q77 32 178 22.5t182 -61.5q91 -59 137 -148t48 -177q3 -87 -37.5 -180t-132.5 -158q-74 -55 -175.5 -67.5t-178.5 18.5q-199 70 -254 278q-13 55 -13 113.5t24 124.5t70 119zM430 1405q-54 -30 -81 -77.5t-27 -102.5q-3 -110 96 -174q42 -23 91.5 -24t94.5 22
q103 55 107 163q3 116 -97 181q-43 27 -96.5 29.5t-87.5 -17.5zM1378 567q-66 -3 -118 -47t-64 -112q-20 -104 57 -181q42 -39 88 -51t86 -2q50 9 88 43.5t56 83.5q17 44 11 92t-34 86q-34 47 -80.5 68.5t-89.5 19.5z" />
    <glyph glyph-name="ampersand" unicode="&#x26;" horiz-adv-x="2041" 
d="M1368 1202q-13 -102 -57.5 -167t-157.5 -122q90 -42 137.5 -84.5t102.5 -132.5q96 156 215 260q60 52 131 95q18 12 31.5 18.5t33.5 20.5q22 6 30 15t17 38h23v-457l-21 -2l-10 23q-17 14 -26 16t-50 -12q-56 -24 -135.5 -115t-89.5 -135q-6 -25 5.5 -49t45.5 -58
q58 -58 133 -78q50 -8 68 -4q19 0 35 9t16 28h31v-315q-67 0 -107.5 2t-102 13t-108.5 32t-104 61.5t-111 98.5q-63 -71 -139 -121.5t-147 -76t-149 -36.5t-140.5 -10t-126.5 10q-338 38 -467 299q-50 99 -53 213.5t53 222.5q52 93 116.5 145t174.5 105q-193 148 -164 340
q27 204 268 301q90 37 208.5 45t242 -19.5t205.5 -90.5q171 -129 143 -326zM696 1389q-40 -19 -75 -64q-53 -70 -27 -151q37 -107 158 -142q61 -19 140 -5.5t130 56.5q80 68 70 160q-8 86 -107 141q-57 29 -147.5 31t-141.5 -26zM702 782q-93 -14 -167 -71t-99 -148
q-16 -60 1 -129t63 -117q40 -41 96.5 -66t115 -31.5t110 -4.5t96.5 12q80 19 153.5 61t93.5 101q16 42 -14.5 121t-77.5 133q-76 90 -180 121.5t-191 17.5z" />
    <glyph glyph-name="quotesingle" unicode="'" horiz-adv-x="645" 
d="M440 1262q-42 -89 -123 -145.5t-198 -98.5v72q113 47 165.5 101t63.5 161q-36 -2 -65.5 -3t-59 14.5t-51.5 49.5q-20 28 -22.5 71t14.5 77q39 76 129 79q98 4 156 -84q35 -61 31.5 -141t-40.5 -153z" />
    <glyph glyph-name="parenleft" unicode="(" horiz-adv-x="925" 
d="M530 1540q98 67 226 107v-58q-89 -46 -155 -117.5t-102.5 -144.5t-59 -166t-30 -162.5t-10.5 -154.5v-305q8 -196 28 -289q47 -221 224 -398q42 -42 92 -83v-52q-112 39 -207.5 103t-164 141t-120 168t-81 183.5t-41.5 187.5q-10 73 -10.5 152t9 174t38.5 190.5t74 188
t119.5 180t170.5 155.5z" />
    <glyph glyph-name="parenright" unicode=")" horiz-adv-x="925" 
d="M135 1587v55q234 -86 375.5 -241.5t210.5 -401.5q28 -102 32 -233.5t-15.5 -266.5t-68.5 -267t-122 -224q-80 -101 -196 -179t-232 -112v58q67 34 121.5 82t90.5 97t63 111.5t42 115t24.5 119t13 112.5t5.5 106v301q-2 54 -3.5 83.5t-6.5 82t-12 86t-19.5 84t-29.5 87.5
t-43 85t-58 88t-75.5 85t-96.5 87z" />
    <glyph glyph-name="asterisk" unicode="*" horiz-adv-x="1112" 
d="M473 1315l-53 327h203l-39 -329l290 151l72 -204l-338 -48l250 -241l-168 -125l-158 307l-145 -307l-172 125l217 213l19 18l8 8l-6 4l-332 46l59 204z" />
    <glyph glyph-name="plus" unicode="+" horiz-adv-x="1607" 
d="M705 745v592h147v-592h588v-151h-584v-594h-143v594h-594v151h586z" />
    <glyph glyph-name="comma" unicode="," horiz-adv-x="651" 
d="M438 -121q-51 -89 -128.5 -143.5t-190.5 -93.5v69q10 5 32.5 16t35 17.5t30.5 17.5t34 23.5t32 28.5q41 41 61 77q0 1 4.5 13t6.5 19t4.5 18.5t1.5 20t-5 15.5q-25 -2 -51.5 0t-49.5 6.5t-44.5 21t-36.5 42.5q-17 31 -18.5 73t18.5 83q43 73 129 73q102 0 156 -92
q29 -51 22.5 -145t-43.5 -160z" />
    <glyph glyph-name="hyphen" unicode="-" horiz-adv-x="827" 
d="M119 598v219h545v-219h-545z" />
    <glyph glyph-name="period" unicode="." horiz-adv-x="587" 
d="M119 109q-6 53 20.5 99.5t83.5 65.5q26 12 64.5 5.5t70.5 -31.5q69 -54 60 -133q-7 -81 -78 -123q-71 -39 -135 -2q-37 19 -60 50.5t-26 68.5z" />
    <glyph glyph-name="slash" unicode="/" horiz-adv-x="935" 
d="M119 -33l471 1673h182l-477 -1673h-176z" />
    <glyph glyph-name="zero" unicode="0" 
d="M567 1561q127 62 246 77q69 6 141 5.5t152.5 -20.5t156 -52t152.5 -89.5t141 -133.5q72 -82 118 -191.5t62 -219t10.5 -214.5t-30.5 -191q-63 -216 -178.5 -344.5t-327.5 -193.5q-75 -23 -175 -28.5t-207.5 7t-215 53.5t-184.5 105q-77 63 -135.5 143t-91.5 160.5
t-53.5 168t-21.5 165t5 152.5q23 207 129.5 373.5t306.5 267.5zM760 1348q-83 -29 -145.5 -84t-97.5 -125.5t-53.5 -140t-25.5 -146.5q-3 -54 5.5 -121.5t31 -145t70 -151t112.5 -119.5q62 -44 152 -67.5t176 -21.5t143 26q68 29 123.5 79t92 109.5t59 121t31.5 122.5
q4 46 4 103t-13.5 126.5t-34 133.5t-58 125t-85.5 100q-65 54 -157.5 80t-177.5 23t-152 -27z" />
    <glyph glyph-name="one" unicode="1" 
d="M805 1597l4 31h430v-37q-22 0 -28.5 -6t-26.5 -39q-4 -13 -4 -69v-1342q0 -11 1 -33t1 -34q3 -10 6 -16.5t9.5 -10.5t11 -6t16.5 -5.5t20 -6.5v-23h-450v27q15 0 24 1.5t20.5 9t18.5 21.5q6 8 6 70v1081q-104 -5 -119 -8q-4 -1 -13.5 -2.5t-15.5 -3t-14.5 -5t-15.5 -9.5
q-1 -1 -4 -5t-9 -11t-11 -13l-7 -31l-30 2v361h34v-25q6 -10 10 -15t11 -7.5t11 -2.5t18 0.5t24 0.5q35 4 80 30q53 34 53 74q0 17 -5 26.5t-11 12.5t-20.5 7.5t-24.5 10.5z" />
    <glyph glyph-name="two" unicode="2" 
d="M817 508q-75 -37 -112.5 -58.5t-90 -67t-92.5 -106.5h1032q4 2 12.5 2t24 -1t27.5 -1q4 1 11.5 3.5t9.5 3.5t6.5 2.5t5.5 4t3.5 5t3.5 7.5l2 10t3 14h29v-379h-29q0 21 -7 28.5t-36 16.5q-15 6 -64 6h-1388q0 180 52.5 308.5t165.5 228.5t312 200l281 139q9 4 39 19
t43 22t41.5 22.5t43.5 26t38 27.5t36 32t27.5 34.5t22 40t10.5 43.5q14 107 -76 176q-48 40 -124.5 56t-146.5 10t-130 -25q-111 -37 -205 -115q-66 -58 -90 -102q-13 -27 -21 -51v-12q0 -13 1.5 -17.5t8.5 -15.5q3 -4 5 -7l-25 -22l-256 309l29 25l18 -15l58 35
q151 129 270 194t218.5 80.5t234.5 2.5q48 -4 106.5 -19t129 -42.5t136.5 -76.5t107 -112q52 -75 64 -179.5t-15 -177.5q-17 -54 -40.5 -99t-59.5 -82t-68 -63.5t-85.5 -55t-91 -46.5t-104.5 -47z" />
    <glyph glyph-name="three" unicode="3" 
d="M1620 1118q-18 -91 -64.5 -141.5t-148.5 -97.5q84 -35 135 -65t90 -72t57.5 -96t24.5 -132q12 -115 -36 -230t-171 -196q-137 -90 -345.5 -116.5t-410 7t-345.5 111.5q-12 4 -34.5 16.5t-25.5 14.5l-57 35q-44 26 -58 26q-16 5 -25.5 0.5t-24.5 -19.5l-3 -3l-26 14
l172 377l30 -10q1 -75 42 -118t130 -89q168 -89 391.5 -107t362.5 56q114 65 117 182q8 128 -103 199q-87 59 -278 71q-105 5 -144 0q-48 0 -69 -8q-27 -7 -39 -17.5t-12 -33.5h-29v364l27 -2q1 -3 2.5 -8t2 -7t3 -6t6 -6t9 -5.5t13.5 -6.5q11 -6 52 -14q20 -4 108 -4
q106 3 213 29q53 16 96.5 50t55.5 85q17 88 -51 151q-49 46 -142.5 66.5t-184 17.5t-161.5 -22q-100 -27 -188 -82q-71 -45 -92 -72q-27 -31 -31 -45q-6 -25 10 -49l-31 -20l-229 303l25 20q9 -1 18 -6t12.5 -5.5t20.5 3.5q4 1 12.5 7t19.5 14t17 12q78 61 94 69
q98 56 199 86q78 25 188.5 36t233 5t242.5 -45.5t196 -109.5q85 -74 117 -173t14 -188z" />
    <glyph glyph-name="four" unicode="4" 
d="M1155 1266l-663 -715h663v715zM1657 295q-6 2 -54.5 2.5t-93.5 0.5l-45 -1v-37v-127q1 -4 1 -19t1 -27.5t4 -16.5q7 -24 13 -29t37 -14l-4 -27h-404v29q45 0 45 53v72v71v76h-876q-7 0 -30.5 -2t-35.5 -2q-25 -7 -32 -17t-7 -34h-31v301l906 975l8 9q8 9 10.5 12t7.5 10
t6.5 12.5t1.5 11.5l-41 22v29h467v-31q-23 0 -30 -7t-16 -36q-2 -5 -3 -8q0 -9 -1 -34.5t-1 -38.5v-924h72h67q10 0 31 1t33 1q17 9 22 16.5t6.5 20.5t6.5 24h28v-364h-28q0 47 -41 47z" />
    <glyph glyph-name="five" unicode="5" 
d="M1532 1628q28 0 41 47l29 -4v-383h-29q0 39 -35 53q-13 5 -63 5h-910v-318q151 65 317.5 86t337.5 -13.5t296 -129.5q134 -104 178.5 -241t21.5 -279q-24 -160 -125.5 -266t-277.5 -171q-113 -41 -266.5 -51t-278.5 10q-167 27 -274 76q-61 24 -138 74l-34 27l-9 4l-10 8
l-16 12q-7 5 -19 14t-16.5 11.5t-13 5t-19.5 2.5l-29 -21l-24 25l240 317l26 -20q-3 -7 -5 -23.5t1 -27.5q11 -28 35 -56q25 -28 98 -75q137 -80 337.5 -96t330.5 44q81 37 121.5 91.5t52.5 136.5q9 66 -9.5 137t-78.5 125q-62 55 -156.5 79.5t-183.5 20.5t-172 -26
q-84 -22 -133 -50q-55 -31 -64 -40q-2 -2 -7 -6t-7 -6t-6.5 -6t-6.5 -6.5t-5.5 -6.5t-5 -6.5t-3.5 -6t-2 -7t0.5 -7t1.5 -6.5l10 -18l-28 -25l-336 297v33q34 0 45 22q0 5 -1 23t-1 26v99v241v74v37q0 60 -8 70.5t-70 27.5v31h1299q49 0 57 6z" />
    <glyph glyph-name="six" unicode="6" 
d="M1501 1526l64 -21l26 23l25 -17l-164 -346l-29 11q0 12 2.5 24t2.5 17t-5 15.5t-18 27.5q-26 30 -86 63q-122 65 -286.5 69t-301.5 -69q-65 -38 -110.5 -85.5t-72.5 -104t-41 -112t-20 -124.5q134 107 301.5 152.5t319 34t283.5 -65.5q148 -62 222.5 -167.5t92.5 -256.5
q34 -313 -221 -494q-114 -81 -285.5 -114.5t-335 -17.5t-278.5 71q-377 175 -408 663q-2 51 -2.5 106t9.5 119t24.5 127t43 128.5t65 124.5t90.5 114.5t120 98.5q129 83 303.5 107t344.5 -4.5t325 -96.5zM809 803q-92 -25 -162 -79.5t-92 -133.5q-40 -139 70 -246
q46 -46 118 -74t145 -35.5t138.5 -4t110.5 15.5q100 27 162 76.5t85 138.5q40 151 -71 262q-58 55 -159 80t-190.5 22t-154.5 -22z" />
    <glyph glyph-name="seven" unicode="7" 
d="M176 1296v379h29q0 -22 8 -31.5t33 -15.5q0 -2 14.5 -2t32.5 1l18 1h1258q2 0 15.5 -1.5t24.5 -1.5t15 3q20 0 27 10t14 37h23v-286l-736 -1256q-22 -34 -34 -65q0 -23 11.5 -31t39.5 -8v-29h-496v29q9 0 28 9t31 23q15 10 52 62l733 1225h-1006q-10 0 -31.5 1t-31.5 1
q-11 -4 -15.5 -6l-9 -4t-6 -6.5t-3 -7t-4.5 -12.5t-5 -18h-29z" />
    <glyph glyph-name="eight" unicode="8" 
d="M1495 913q-3 -2 -19.5 -10t-30.5 -16.5t-18 -12.5q142 -57 206 -122.5t91 -198.5q19 -98 -14.5 -207t-120.5 -194q-70 -67 -173 -111.5t-211 -63t-222.5 -21.5t-210 7t-172.5 29q-352 82 -442 344q-20 57 -24.5 123t15 141.5t64.5 132.5q52 64 107.5 97.5t125.5 56.5
q-114 49 -156.5 107.5t-53.5 164.5q-8 92 34 190.5t142 168.5q108 73 300.5 99.5t377 6t292.5 -73.5q130 -64 191 -151.5t67 -206.5q2 -73 -31.5 -151.5t-113.5 -127.5zM766 1374q-87 -14 -141 -51q-80 -58 -80 -141q3 -80 84 -133q50 -32 168.5 -45t235 -4.5t171.5 30.5
q107 47 123 129q15 70 -47 129q-37 38 -113.5 61t-157 28.5t-145.5 4t-98 -7.5zM805 741q-3 -2 -40 -7.5t-38 -6.5q-85 -14 -161.5 -59t-104.5 -119q-39 -103 31 -189q34 -43 98 -73.5t132.5 -44.5t141.5 -20t126 -5t85 6q41 5 81.5 14.5t92 28.5t93 54t61.5 81q22 47 16 98
t-37 91q-33 45 -92.5 77.5t-125 47t-136.5 23t-126.5 6t-96.5 -2.5z" />
    <glyph glyph-name="nine" unicode="9" 
d="M342 92q0 1 -13 8t-30.5 12.5t-26.5 2.5l-18 -23l-27 12l162 353l29 -11q-6 -20 -6 -24t6 -23q14 -32 33 -51q32 -28 96 -61q75 -37 188.5 -54t237 -2.5t203.5 64.5q106 67 157 176t56 234q-141 -96 -297.5 -140.5t-301.5 -36.5t-274 62q-144 59 -224 145t-108 226
q-23 118 13.5 254t128.5 225q74 73 179.5 119t216.5 60.5t212.5 11.5t189.5 -21q386 -82 521 -424q50 -125 59 -287.5t-30.5 -331t-123.5 -291.5q-220 -322 -733 -317q-54 0 -137.5 13t-134.5 28q-81 25 -135 53q-9 7 -34.5 20.5t-33.5 18.5zM821 1368q-82 -7 -166 -48.5
t-131 -117.5q-32 -52 -33 -124.5t29 -121.5q28 -50 79 -86t108.5 -52.5t104.5 -23.5t85 -6q42 1 95 10t117 28t118.5 57t79.5 88q29 57 24.5 127.5t-41.5 124.5q-29 42 -78.5 73t-102.5 45t-110 23.5t-101.5 7.5t-76.5 -4z" />
    <glyph glyph-name="colon" unicode=":" horiz-adv-x="593" 
d="M123 809q-11 46 9.5 93t74.5 75q73 34 147 -8q68 -47 74 -117q4 -71 -55 -119q-65 -51 -146 -26q-35 11 -64 37.5t-40 64.5zM121 111q-2 49 28 88.5t84 54.5q33 10 74 2t72 -33q58 -55 49 -129q-13 -76 -88 -108q-70 -34 -143 6q-73 44 -76 119z" />
    <glyph glyph-name="semicolon" unicode=";" horiz-adv-x="651" 
d="M152 819q-8 55 18.5 100.5t83.5 65.5q78 24 137 -27q66 -48 60 -133q-2 -36 -22.5 -69.5t-55.5 -53.5q-30 -18 -67.5 -19.5t-69.5 13.5q-76 40 -84 123zM457 -98q-44 -88 -129 -147.5t-209 -108.5v71q109 40 168 95.5t67 154.5q-68 -7 -112 3.5t-76 58.5q-37 62 -2 131
q20 38 55.5 60t75.5 24q42 2 85 -18t73 -66q31 -48 31 -125t-27 -133z" />
    <glyph glyph-name="less" unicode="&#x3c;" horiz-adv-x="1712" 
d="M119 733l1427 567v-155l-1198 -481l1200 -480v-155l-1429 569v135z" />
    <glyph glyph-name="equal" unicode="=" horiz-adv-x="1609" 
d="M119 813v152h1321v-152h-1321zM121 369v149h1323v-149h-1323z" />
    <glyph glyph-name="greater" unicode="&#x3e;" horiz-adv-x="1720" 
d="M119 1155v148l1431 -551q4 -76 4 -134l-1421 -585q-2 29 -2 157l1192 486z" />
    <glyph glyph-name="question" unicode="?" horiz-adv-x="1300" 
d="M768 508q9 -25 35 -35v-22h-301v26l18 4l12 51q21 158 34 205q26 97 104 193l30 35q92 108 112 138q53 81 35 158q-2 9 -5 19q-17 47 -58 80t-94 45q-68 14 -149.5 -12t-134.5 -86q-15 -16 -22.5 -24.5t-9.5 -17.5t-1 -13t5 -17.5t7 -24.5l-27 -20l-239 237l24 17h33
q134 105 249.5 156.5t217.5 54t205 -32.5q227 -74 276 -299q18 -76 19.5 -123t-22.5 -101t-66 -103t-129 -136l-37 -37q-53 -56 -75.5 -92t-37.5 -88q-12 -46 -12 -90q0 -16 2 -31zM506 133q0 56 35.5 100.5t93.5 53.5q33 5 69 -7.5t64 -43.5q56 -56 37 -136
q-13 -75 -94 -108q-76 -28 -138 14q-67 46 -67 127z" />
    <glyph glyph-name="at" unicode="@" horiz-adv-x="2213" 
d="M1460 195q-76 21 -118.5 64.5t-65.5 129.5q-86 -125 -168 -172t-203 -37q-187 11 -270 180q-53 126 -28.5 284.5t106.5 285.5q94 142 192 205t225 57q43 -2 81.5 -14.5t77.5 -43.5t63 -77q8 -16 12.5 -27.5t9 -26.5t8.5 -26l52 184h122q44 0 54 -2l-115 -448
q0 -2 -11.5 -42.5t-16.5 -61.5t-12.5 -63t-7.5 -69t7 -56t23 -46q24 -27 66.5 -36t84.5 1q179 35 277 280q31 81 37.5 193t-20.5 237t-89 212q-63 85 -156.5 147t-193.5 93t-193.5 43.5t-175.5 6.5q-109 -8 -208.5 -37t-198 -84t-185.5 -146.5t-153 -213.5
q-103 -191 -108 -425.5t104 -440.5q57 -104 142 -184t181.5 -127t193.5 -72t195 -31q212 -12 390.5 44.5t404.5 195.5l53 -78q-202 -142 -424 -212t-425 -64.5t-376 79.5q-262 113 -397.5 292t-171.5 441q-11 59 -8.5 135.5t12 155.5t37 166t65.5 166.5t98 157.5t134 139
q113 94 253 153.5t279 79.5t272.5 10.5t244.5 -48.5q222 -75 342 -200t170 -349q18 -76 18 -171.5t-18.5 -198t-66.5 -202t-120 -168.5q-70 -69 -184 -105t-199 -13zM1057 1047q-39 -20 -86 -76q-87 -106 -137 -277.5t-21 -267.5q21 -89 107 -117q96 -29 192 47
q64 51 114 157t71.5 205.5t17.5 162.5q-6 62 -25.5 98.5t-66.5 62.5q-84 47 -166 5z" />
    <glyph glyph-name="A" unicode="A" horiz-adv-x="2140" 
d="M768 1597v27h483v-18q-7 -5 -21.5 -12t-20 -14.5t-7.5 -23.5q-1 -3 5 -16.5t12.5 -28t7.5 -16.5l665 -1386q6 -28 27 -58q20 -20 57 -20v-31h-442v27l41 24l-180 398h-754l-147 -328q-4 -10 -7.5 -18t-4.5 -11t-2 -10t-1 -21l35 -22v-39h-395v33q9 0 26.5 8t26.5 20
q4 5 8.5 14t9.5 22t7 18l591 1368q25 63 25 65q4 19 -5.5 28.5t-39.5 20.5zM993 1268l-252 -568h521z" />
    <glyph glyph-name="B" unicode="B" horiz-adv-x="1980" 
d="M1720 1020q-29 -50 -68.5 -85t-107.5 -75q51 -27 74.5 -41t59 -37.5t52.5 -42.5t37.5 -47.5t31.5 -62t18 -76.5q17 -88 -2.5 -189t-83.5 -178q-35 -43 -76 -75t-89 -51.5t-85.5 -31.5t-91 -17.5t-78 -7t-72.5 -3.5l-1094 -2v31q34 0 58 34q2 2 2 56v1376q0 49 -6 59
q-17 27 -58 39l4 35h1088q40 0 69.5 -1.5t81.5 -7t94.5 -19.5t89.5 -35.5t86 -59t66 -86.5q43 -78 43 -201.5t-43 -197.5zM1120 1362h-600v-377h588q2 0 24 -0.5t38 -0.5t45 1.5t51 4.5t49.5 9.5t47.5 15.5t38.5 23.5t28.5 32.5q19 36 23 97t-17 106q-12 21 -30.5 37.5
t-44.5 25.5t-48 15t-55 8t-50.5 2.5t-49.5 0t-38 -0.5zM522 719v-438h602h22h31.5t35.5 1t41 3t42 5.5t44 9t40.5 14t38.5 19t32 25t26 31.5q30 48 30.5 114t-26.5 111q-18 32 -59.5 55t-87 32t-94 14.5t-80 4t-45.5 -0.5h-3h-590z" />
    <glyph glyph-name="C" unicode="C" horiz-adv-x="2113" 
d="M1806 1487q14 0 20 0.5t16 6t18 17.5l20 -10l-217 -342l-16 6q0 21 -1 28t-8 19.5t-24 30.5q-12 16 -74 49q-73 37 -151 56q-107 32 -243.5 37t-287.5 -30.5t-246 -115.5q-56 -46 -95.5 -114t-57 -138t-23 -131t-0.5 -111q29 -286 291 -423q100 -53 242 -71t293 4.5
t266 84.5q89 51 133 92q40 42 45.5 67t-4.5 70l22 13l205 -289q1 -2 7 -10.5t8 -10.5q6 -9 5 -12.5t-10 -11.5q-12 0 -21.5 2.5t-12.5 3.5t-10.5 -2.5t-22.5 -15.5q-6 -3 -34.5 -23t-37.5 -27q-105 -70 -145 -92q-126 -66 -289 -94q-118 -21 -246 -21.5t-264.5 21t-268 81.5
t-229.5 152q-63 59 -109.5 130.5t-72 141.5t-40.5 144.5t-14 139.5t7 126q45 391 401 594q136 78 289 114.5t306 31.5t299.5 -38.5t289.5 -94.5l41 -17z" />
    <glyph glyph-name="D" unicode="D" horiz-adv-x="2078" 
d="M119 1597v31h942q49 -1 78 -2t82 -5t89 -10.5t88.5 -19t91 -29.5t86 -44t84.5 -60t75 -79t69 -101q63 -110 87.5 -287.5t1 -362t-92.5 -304.5q-30 -52 -66 -94.5t-70.5 -74t-78 -56t-80 -41t-85.5 -28t-85.5 -17t-90 -9t-88 -4t-89.5 -0.5h-938v29q43 0 53 30q4 8 4 64
v1360v22q1 40 -7 51t-55 38q-3 2 -5 3zM508 1368v-1112h571q145 0 195 8q147 22 228 138l16 26q85 145 86 365t-82 366q-24 44 -58.5 78t-67 56t-79 37t-77.5 22.5t-81.5 11.5t-72 4h-66.5h-23h-489z" />
    <glyph glyph-name="E" unicode="E" horiz-adv-x="1861" 
d="M1608 1630q11 5 16 7t9 6t5.5 6.5t5.5 12t9 17.5l18 -4v-364h-18q-1 3 -4 8.5t-4 7.5t-3.5 6.5t-4 6.5t-4.5 5.5t-6 6t-7.5 6t-9.5 6.5q-5 2 -62 2h-1050v-395h676q51 0 59 4q32 9 43 53h24v-377h-24q-10 27 -20 35q-8 6 -23 10q-15 6 -59 6h-676v-442h1085h57
q13 6 18.5 13.5t9 20t7.5 19.5h17v-372h-17q-5 10 -8.5 22t-8 17t-18.5 12q-16 8 -57 8h-1464v29q44 15 55 39q6 11 6 63v1385q0 51 -4 59q-5 12 -11 18.5t-10.5 7.5t-15 2.5t-18.5 4.5v20h1425h10q9 -1 18 -1.5t19.5 0.5t14.5 3z" />
    <glyph glyph-name="F" unicode="F" horiz-adv-x="1783" 
d="M1554 1630q22 6 28.5 15t6.5 34h31v-372h-31q0 23 -8.5 33t-32.5 18q-15 6 -63 6h-985v-395h608q2 0 19.5 -1t29.5 0t23 5q14 6 21 9.5t12.5 8.5t6.5 7t6 11.5t9 16.5h25v-367h-25q0 2 -1.5 6.5l-2 6t-1.5 5t-2 5t-2.5 4.5t-3.5 4.5t-4.5 3.5t-5.5 3.5l-7 3.5t-9 4
q-13 6 -61 6h-629v-500v-31v-51q0 -10 -0.5 -25.5t-1 -19.5t2 -13t5 -11.5t11 -9.5t17.5 -12l27 -15v-23h-444v27q8 3 21.5 4.5t20 7t11.5 22.5q6 11 6 62v1382q0 7 -3 29t-3 33q-7 15 -15 20t-21 7t-21 5v29h1378q2 0 11 -0.5t17 -1t17 0.5t12 3z" />
    <glyph glyph-name="G" unicode="G" horiz-adv-x="2117" 
d="M1806 1464q26 0 52 29l28 -14l-215 -365l-29 8q0 11 2 23.5t2 18.5t-5.5 16.5t-18.5 25.5q-16 26 -84 66q-152 86 -405 92.5t-408 -70.5q-138 -68 -206.5 -170.5t-86.5 -238.5q-2 -39 -2 -84.5t13.5 -101.5t33.5 -109t56.5 -107t84.5 -94q95 -80 239 -117t276 -33t241 35
q57 17 106.5 40t116.5 73v182h-370h-45q-5 -1 -12 -2.5t-10 -2.5t-7 -3.5t-7 -7.5t-7 -14l-4 -29l-27 4v387l25 -4q3 -4 6 -13t9.5 -17.5t20.5 -14.5h56h725v-33h-17q-9 -5 -14.5 -12t-7.5 -16.5t-2.5 -15t0 -18t0.5 -14.5v-442q0 -17 6 -35l39 -20v-25q-104 -62 -137 -78
l-43 -14q-157 -70 -324 -110.5t-337.5 -50t-336.5 29t-299 125.5q-100 66 -172 149t-111.5 173t-57.5 178t-17 180q1 97 17.5 180.5t55.5 171.5t113.5 169t181.5 149q128 80 289.5 119.5t325 36.5t323.5 -36.5t299 -95.5l31 -12q3 -1 15.5 -7t22.5 -10t13 -4z" />
    <glyph glyph-name="H" unicode="H" horiz-adv-x="2062" 
d="M119 1606v22h440l-6 -29q-16 0 -26 -5t-21 -23q-6 -11 -6 -55v-113v-410h1001v410v53v60q0 5 -2.5 28.5t-3.5 26.5q-7 10 -14 15t-12.5 6t-14.5 2t-16 3v31h434v-31q-8 -2 -21.5 -3t-17.5 -6t-10 -21q-2 -5 -2 -60v-1368q0 -54 9.5 -68t65.5 -38v-33h-438v39l49 31v643
h-999v-582q0 -51 6 -63q0 -11 1.5 -17t6.5 -9.5t10 -4.5t15.5 -3t19.5 -5v-29h-428v31q33 0 51 30q7 10 7 58v1370q0 32 -15 72q-4 10 -8 16.5t-11 11t-11 6.5t-15.5 5.5t-17.5 5.5z" />
    <glyph glyph-name="I" unicode="I" horiz-adv-x="772" 
d="M119 1599v29h473v-26q-57 -19 -64.5 -28.5t-7.5 -68.5v-1372q0 -55 13 -70t75 -30v-33h-475v31q59 21 67 29q8 9 7 48v25v1286v92v27q-1 10 -5 17.5t-14.5 13.5t-17 9.5t-25 10.5t-26.5 10z" />
    <glyph glyph-name="J" unicode="J" horiz-adv-x="1628" 
d="M1020 1597v31h440v-33q-30 -3 -41.5 -10.5t-21.5 -36.5q-4 -74 -4 -78v-921q-1 -49 -2 -70.5t-6 -70.5t-12.5 -77.5t-23 -72.5t-37 -74t-54.5 -63.5t-76 -59.5q-122 -76 -290 -93.5t-333.5 14t-322.5 100.5l-56 16l-30 -28l-31 20l168 367l28 -8q-1 -13 -3.5 -25
t-2.5 -16.5t5.5 -14t19.5 -26.5q14 -21 78 -58q82 -43 177 -67t196.5 -19t172.5 49q24 14 42 30.5t30 29.5t20.5 35t12.5 34t6 40t2.5 39t0 46t-0.5 47v934v60q-10 16 -13 19.5t-11.5 7t-26.5 3.5z" />
    <glyph glyph-name="K" unicode="K" horiz-adv-x="2021" 
d="M131 1606v22h420v-35q-41 0 -49 -28q-2 -10 -2 -60v-585l798 659l-28 16v33h540v-29q-51 -19 -79.5 -35t-85.5 -59l-623 -518l717 -887q21 -24 28.5 -32.5t18 -17t13.5 -9t19.5 -6t30.5 -10.5v-27h-512v35l37 16l-598 744l-282 -232v-346v-59v-41v-62q10 -16 17 -20.5
t19 -5.5t21 -4l-2 -23h-430v29q7 3 20.5 5t18 7t8.5 20q6 8 6 58v1397v55q-8 19 -13.5 23t-27.5 12z" />
    <glyph glyph-name="L" unicode="L" horiz-adv-x="1792" 
d="M1589 281q2 4 3.5 11.5t3 13t3.5 7.5h29v-372h-35v7v7t-0.5 6t-1.5 6.5t-3 5.5t-4.5 6.5t-7 6t-9.5 6.5q-12 6 -60 6l-1388 2l2 29q14 0 22 1t17 8t14 21q2 3 2 60v1388q0 1 0.5 10.5t1 20t0 20t-1.5 11.5q-10 28 -53 28v31h438v-33q-42 0 -55 -30q-6 -12 -6 -68v-1237
h1007q66 -4 82 21z" />
    <glyph glyph-name="M" unicode="M" horiz-adv-x="2179" 
d="M129 1597v31h492v-29q-2 -1 -9 -2.5t-11 -3t-10 -4t-11 -6.5t-9 -10q-6 -9 -7.5 -15t-0.5 -9.5t4.5 -12t5.5 -16.5l60 -111l430 -825l508 950q12 24 12 37l-57 31v26h489v-33q-28 0 -36.5 -8.5t-22.5 -44.5l-6 -80v-1329q0 -62 4 -70q9 -19 21.5 -26.5t39.5 -7.5v-29
h-432v25q37 0 49 36q6 12 6 60v969l-585 -1090h-27l-573 1102v-979q0 -52 6 -64q8 -25 23 -32t38 -7v-20h-401v23q45 0 57 40q2 6 2.5 36.5t1.5 35.5v1374q0 51 -4 60q-14 28 -47 28z" />
    <glyph glyph-name="N" unicode="N" horiz-adv-x="2037" 
d="M119 1599l2 31q17 0 33 -2h440v-35l-53 -14v-16l989 -1061v1001q0 61 -2 64q-4 13 -21.5 20.5t-36.5 7.5v33h398v-33q-36 0 -53 -30q-3 -6 -3 -62v-1370q0 -52 5 -65q6 -15 12 -22.5t10.5 -10t14.5 -5.5t18 -7v-25h-418v31l47 12q6 16 -1 26.5t-30 32.5l-1011 1076v-1055
q0 -52 2 -60q9 -18 15.5 -22.5t37.5 -15.5l-4 -23h-391v27q4 1 15 3.5t16.5 4.5t12.5 8.5t11 17.5q6 9 6 62v1366q0 55 -6 67q-6 14 -12.5 22t-10 10t-15.5 5.5t-17 5.5z" />
    <glyph glyph-name="O" unicode="O" horiz-adv-x="2138" 
d="M571 1542q150 72 338 92q55 9 129 5.5t151.5 -13t162 -35.5t162 -60.5t151.5 -88.5t129 -121q66 -80 109 -183t58 -207.5t9 -207.5t-33 -191q-127 -403 -555 -530q-106 -30 -231 -38t-258.5 8t-267.5 71t-238 143q-56 49 -102 111t-75 126t-51 133.5t-29.5 132.5
t-11 123.5t4.5 105.5q28 212 132 366t316 258zM969 1374q-68 -6 -132 -24.5t-127 -51t-117.5 -85t-92.5 -121.5q-43 -79 -59 -187t2 -223.5t71 -200.5q37 -58 86.5 -103.5t101.5 -72.5t109.5 -47t110.5 -26t103.5 -10t88.5 1q92 4 184 39.5t176.5 108.5t133.5 172
q54 112 40.5 298.5t-85.5 288.5q-53 76 -133.5 130t-164.5 78.5t-159 33.5t-137 2z" />
    <glyph glyph-name="P" unicode="P" horiz-adv-x="1873" 
d="M123 1602v26h37h973q169 -7 241 -23q191 -43 281 -204q55 -105 51 -259t-57 -247q-18 -31 -42 -56.5t-47.5 -44.5t-56.5 -34.5t-58 -25.5t-63 -17.5t-60 -11.5t-61.5 -7t-55 -3.5t-51.5 -1.5t-42 -1h-612v-563q0 -61 2 -66q6 -20 17 -28t34 -8v-27h-432v29q15 0 22 1
t15.5 4.5t12 12.5t3.5 25q2 8 2 71v1366v62q0 8 -4 13t-9.5 6.5t-18 5t-21.5 6.5zM1061 1362h-561v-406h542q6 0 38 -1.5t50 -1.5t51.5 1t56.5 6.5t49.5 14.5t46 25t32.5 38q24 40 27 120.5t-21 121.5q-12 21 -34 37t-49 24.5t-54.5 14t-58 7t-51 1.5t-41.5 -1t-23 -1z" />
    <glyph glyph-name="Q" unicode="Q" horiz-adv-x="2174" 
d="M1954 991q92 -430 -193 -760q29 -21 56 -45q12 -9 29.5 -22.5t27.5 -20.5q5 -3 30 -22t29 -21q18 -3 21.5 -2t13 7.5t21.5 9.5l20 -23q-6 -7 -21.5 -22.5t-21.5 -22.5l-174 -207l-25 19q2 5 7.5 14.5t6.5 13.5t-2.5 12.5t-13.5 18.5q-2 3 -28.5 25t-30.5 26
q-27 24 -117 90l-33 19q-155 -78 -331.5 -107t-359.5 -0.5t-333 117.5q-116 68 -196 143.5t-125.5 160.5t-66 171.5t-25.5 194.5q-3 83 9.5 168.5t45 181.5t100.5 188t164 162q139 101 319 146t352 34.5t321 -67.5q236 -88 355 -221.5t169 -358.5zM1516 410
q102 128 126.5 244.5t6.5 246.5q-42 287 -301 412q-89 42 -205 56.5t-236.5 -5t-210.5 -72.5q-245 -143 -264 -456q-4 -82 9.5 -162.5t61.5 -170t128 -149.5q93 -73 213.5 -104.5t233 -24.5t216.5 43q-69 48 -104.5 71t-80.5 45t-80 25t-79 -1t-102 -21q-4 17 3 31.5
t28 42.5q14 21 71 57q67 36 135 44t141.5 -14t137 -53t152.5 -85z" />
    <glyph glyph-name="R" unicode="R" horiz-adv-x="2027" 
d="M121 1602v26h1024q68 0 117 -2.5t125 -17t133 -40.5t116.5 -77t98.5 -123q55 -92 51.5 -229.5t-66.5 -241.5q-62 -96 -155.5 -144.5t-212.5 -76.5l409 -578q5 -7 13 -18t10.5 -14t8 -9.5t6.5 -7.5t6 -5t7 -4.5t8.5 -3t11 -3.5t14 -4t18.5 -6l-4 -23h-494v23l37 20
q0 8 -6 20l-15 25l-426 602h-450v-567q0 -56 2 -60q12 -19 24 -26.5t35 -7.5v-29h-446v29q13 4 21.5 2.5t19 2.5t20.5 19q2 4 2 66v1370q-2 8 -2 74q-6 21 -12.5 27t-22.5 7t-26 5zM1073 1358h-571v-402h590q4 0 33 -1t50 -0.5t56 2.5t63 10t58 19.5t55 33t41 49.5
q24 38 23 94t-27 97q-13 20 -34.5 36.5t-44.5 26.5t-55 17.5t-56.5 11t-58 5.5t-50.5 2t-43.5 -0.5t-28.5 -0.5z" />
    <glyph glyph-name="S" unicode="S" horiz-adv-x="1947" 
d="M1628 1487l55 -21l21 19l29 -15l-170 -327l-21 10v37q-81 71 -198 116.5t-234.5 59t-222.5 9.5t-182 -23q-43 -11 -73.5 -22.5t-66.5 -30.5t-61.5 -47.5t-38.5 -65.5q-23 -69 12 -117q12 -17 36 -30.5t50.5 -21.5t59.5 -13.5t55 -7.5l44 -4l23 -1h332q177 -13 265 -31
q277 -60 380 -235q51 -87 58 -204t-37 -212q-147 -286 -621 -338q-251 -28 -487 11q-126 22 -246 67q-49 20 -61 23q-4 3 -30.5 16t-29.5 16q-52 26 -61 29q-3 1 -11 4t-11 3.5t-9 1t-9 -1.5t-8 -6t-9 -11l-29 10l188 373l29 -12q-1 -15 -5.5 -25t-3.5 -18.5t11 -30.5
q20 -36 66 -66q86 -68 246.5 -99t310.5 -25.5t249 34.5q40 9 82 28t85.5 55t58.5 79q27 74 -13 135q-14 21 -34.5 37.5t-47 27t-48.5 17.5t-53.5 11t-47.5 5.5t-44.5 3t-31.5 1.5l-350 18q-44 2 -73.5 4.5t-79.5 8.5t-87 14.5t-84.5 24.5t-84.5 37t-74.5 52t-65.5 70
q-102 146 -53 330q33 118 109 196.5t202 132.5q140 62 333 78.5t411 -20t407 -123.5z" />
    <glyph glyph-name="T" unicode="T" horiz-adv-x="1888" 
d="M119 1307v372h33v-20q16 -29 43 -29q6 -3 13 -3.5t18.5 0.5t17.5 1h1353h58q12 5 17 7t9 6t4.5 6.5t2.5 12t4 17.5h30v-372h-22q0 14 -9 27.5t-26 19.5q-2 2 -53 10q-41 2 -113 2h-409v-1235q0 -62 2 -66q15 -24 23.5 -30t29.5 -6l-2 -27h-422v29q24 0 29 5t14 27
q0 10 1 29t1 29v1245h-438h-33h-57q-52 0 -58 -2q-18 -8 -23 -18t-5 -37h-33z" />
    <glyph glyph-name="U" unicode="U" horiz-adv-x="2045" 
d="M119 1597v31h442v-31q-26 0 -38.5 -5.5t-20.5 -28.5q-2 -5 -2 -66v-854q2 -43 0 -79.5t3 -71.5t16.5 -65.5t41.5 -62t78 -59.5q80 -47 226 -63.5t292 0.5t227 63q29 17 51 40t34.5 50.5t20.5 52t10 57.5t2.5 53t-0.5 51.5t-1 41.5v842q0 52 -6 68q-11 18 -18 23.5t-20 7
t-23 5.5v31h442v-35q-7 0 -16 1t-13 1t-9.5 -2.5t-9 -10t-7.5 -21.5q-4 -10 -4 -72v-825q1 -63 1.5 -123.5t-12.5 -123t-36 -118t-69.5 -110t-113.5 -99.5q-117 -77 -345.5 -105t-457.5 -1t-352 98q-40 23 -72.5 49t-56 50t-42 56t-30.5 56t-20 60.5t-12 59.5t-6.5 63.5
t-2.5 61v63.5v17v879q0 3 -5.5 32t-8.5 34q-10 34 -57 34z" />
    <glyph glyph-name="V" unicode="V" horiz-adv-x="2088" 
d="M119 1597l2 31h467v-33l-41 -26q0 -31 14 -51l492 -1092l473 1077q1 5 12 28t10 32q0 14 -6 26l-20 6h-15v33h381h37v-33h-6h-6.5h-6t-7 -1t-6.5 -2t-7 -3t-6.5 -4.5t-7 -6t-6.5 -7.5q-14 -23 -31 -66l-592 -1364q-5 -7 -17 -34.5t-12 -34.5q0 -12 1 -18t5 -13.5
t14 -10.5t26 -3v-27h-437l-2 23l27 8q11 15 11.5 26t-7.5 29t-10 29l-623 1392q-5 12 -12.5 28t-9 21t-8 13.5t-9.5 10.5t-13.5 6t-19.5 6t-28 5z" />
    <glyph glyph-name="W" unicode="W" horiz-adv-x="2457" 
d="M119 1597l2 31h399v-35q-29 0 -35 -6q-6 -7 -6 -24q13 -58 13 -62l256 -979l284 983q1 4 5.5 17.5t8.5 26t3 16.5q-4 13 -8.5 19.5t-8 8.5t-12 4t-14.5 5l2 26h419v-33h-4q-9 0 -13 -1t-8.5 -7t-8.5 -20q-4 -17 10 -56l287 -1005l264 1010q6 24 6 59l-43 31v22h377v-31
q-30 -7 -47 -36q-4 -5 -6.5 -15t-5 -22.5t-3.5 -16.5l-372 -1392q-4 -8 -6 -13.5t-2.5 -12t-0.5 -10v-13v-15.5l41 -28l-4 -23h-428v27q30 10 35.5 18t5.5 25q1 4 -2 16t-7 26t-5 17l-287 989l-291 -1009q0 -9 -2 -28t-2 -28l41 -26v-27h-432v29l35 12q10 35 -6 82
l-369 1395q-1 2 -6.5 22t-7.5 27q-13 30 -41 30z" />
    <glyph glyph-name="X" unicode="X" horiz-adv-x="2007" 
d="M172 1597v31h520v-37h-33q-7 -7 -9.5 -14t-2 -10.5t3.5 -10.5t4 -10q3 -4 16.5 -21.5t16.5 -23.5l297 -401l352 465v20l-39 12v31h494v-31q-61 -8 -79 -19t-60 -69l-494 -641l584 -770q23 -38 45 -55q4 -1 8.5 -3t6.5 -3t5 -2t5 -1.5t5.5 -1t6.5 -1t7.5 -0.5h10.5v-31
h-520v31h35l8 12q0 37 -33 70l-377 493l-282 -364q-8 -12 -45 -60t-45 -61q-40 -46 -37 -60q1 -16 8 -22t20 -8.5t19 -7.5l-4 -23h-471v29q28 0 55 20q11 11 41 51l567 740l-514 690q-36 48 -43 52q-2 1 -38 11q-7 2 -15 4z" />
    <glyph glyph-name="Y" unicode="Y" horiz-adv-x="2015" 
d="M119 1597v31h485l-4 -31l-27 -10v-20l428 -594l402 559q4 9 9 17t7.5 11.5t4 10t1.5 16.5l-34 19v22h452v-31q-51 -18 -67 -29.5t-56 -64.5l-557 -796v-594q0 -50 2 -60q6 -14 10.5 -18.5t17.5 -6.5t21 -5l-2 -23h-424v23q36 0 50 30q2 6 2.5 31.5t1.5 28.5v557l-617 852
q-7 9 -15 20.5t-11 15.5l-7.5 10t-7.5 7.5t-6.5 4.5t-9 3.5t-11.5 2.5t-16.5 5t-21.5 6z" />
    <glyph glyph-name="Z" unicode="Z" horiz-adv-x="1925" 
d="M121 1319v360h29q1 -5 3 -14t3 -11t3 -7.5t4.5 -6.5t7 -3.5t11.5 -4.5q6 -4 56 -4h1507v-22l-1032 -1346h907q55 0 63 6q17 0 25 11t18 40h29v-370h-29v4q0 12 -1 18t-8.5 14.5t-22.5 14.5q-6 2 -60 2h-1503v20l1032 1352h-911q-56 0 -66 -2q-9 -3 -14.5 -5.5t-9 -8
t-4.5 -8.5t-3.5 -14.5t-4.5 -18.5z" />
    <glyph glyph-name="bracketleft" unicode="[" horiz-adv-x="868" 
d="M131 -266l-2 1894h571v-127h-338l3 -1642h340v-125h-574z" />
    <glyph glyph-name="backslash" unicode="\" horiz-adv-x="1060" 
d="M121 1634v6h133l641 -1689h-135z" />
    <glyph glyph-name="bracketright" unicode="]" horiz-adv-x="860" 
d="M121 1497v131h575v-1902h-575v124h344v1610q0 1 0.5 8t0 11t-2.5 9.5t-6 8.5h-336z" />
    <glyph glyph-name="asciicircum" unicode="^" horiz-adv-x="1062" 
d="M119 1493l250 330h278l250 -330h-246l-143 182l-143 -182h-246z" />
    <glyph glyph-name="underscore" unicode="_" horiz-adv-x="1431" 
d="M119 0v111h1147v-111h-1147z" />
    <glyph glyph-name="grave" unicode="`" horiz-adv-x="835" 
d="M449 1497l-330 328h338l207 -328h-215z" />
    <glyph glyph-name="a" unicode="a" horiz-adv-x="1826" 
d="M690 1327v35h387v-35l-24 -12q0 -27 16 -53l539 -1170q2 -3 9.5 -19.5t12 -24.5t14 -16.5t19.5 -8.5l-2 -23h-358v23l24 24q0 10 -2 19.5t-6 23t-6 21.5l-45 92q-15 31 -17 39l-61 123h-631l-53 -111l-53 -121q-5 -12 -11 -26.5t-9.5 -24t-4.5 -10.5q-7 -17 3 -30t30 -13
v-29h-342v29q24 0 34.5 13t26.5 50l522 1180q4 8 7 18.5t3 17.5l1 7zM866 1071l-213 -493h437z" />
    <glyph glyph-name="b" unicode="b" horiz-adv-x="1691" 
d="M121 1341l2 23h842q46 0 69.5 -0.5t71.5 -4.5t80.5 -13.5t74 -25t77 -42.5t65.5 -64q49 -57 66 -132.5t6 -149.5q-14 -70 -47 -114.5t-115 -96.5q104 -56 146.5 -104.5t60.5 -145.5q15 -78 -5.5 -175.5t-76.5 -162.5q-29 -35 -71 -60.5t-80.5 -38.5t-96.5 -21t-93 -9.5
t-96 -3.5h-882v29q33 0 43 39q2 4 2 53v1139q0 6 -1 23t-1 24q-3 10 -4 14.5t-4.5 7.5t-6 3.5t-11 3t-15.5 5.5zM438 1153v-334h428h17.5h28t34.5 0.5t40 2t42 5t44 7.5t40.5 11t38 16t30.5 21t23 27q18 33 18 77t-18 75q-16 27 -44 46.5t-55 28.5t-67 14t-63 5t-62 -1
t-47 -1h-428zM440 606v-383h486q11 0 43.5 -1.5t55 -1.5t56.5 3.5t59.5 11.5t51.5 26t43 44q28 41 29 100t-21 95q-14 26 -37.5 46t-52.5 31.5t-57 18.5t-62.5 9t-55.5 2.5t-49.5 -0.5t-33.5 -1h-455z" />
    <glyph glyph-name="c" unicode="c" horiz-adv-x="1837" 
d="M1546 1235h33l14 12l35 -16q-36 -56 -41 -68l-47 -84q-6 -7 -12.5 -21.5t-9.5 -19.5l-52 -92l-18 10v35q-68 59 -158 99.5t-181.5 58t-180.5 16.5t-162 -22q-268 -72 -350 -307q-38 -99 -25 -225t82 -222q161 -212 498 -199q139 7 280 58q80 34 142 76q55 37 67 55
q5 7 14 18t10.5 13t3 9.5t-1 13t-7.5 18.5l22 14l170 -260l-24 -21l-17 13q-268 -178 -578 -216t-546 78q-366 174 -387 574q-4 76 10 153.5t48.5 160t103.5 160.5t165 138q124 77 265.5 110t284.5 22.5t277.5 -46t272.5 -96.5z" />
    <glyph glyph-name="d" unicode="d" horiz-adv-x="1714" 
d="M119 1335v27h645q56 0 92 -1t99.5 -7t109.5 -17.5t107 -34t107.5 -54.5t94.5 -82t84 -113q84 -142 87 -380t-81 -386q-25 -43 -52.5 -78.5t-60 -62.5t-61.5 -48.5t-68 -36.5t-67.5 -26t-72.5 -17.5t-70.5 -10t-74.5 -5t-70.5 -2t-71.5 -0.5h-676v27q7 2 18 4.5t13 4
t5.5 7.5t6.5 18q2 4 2 58v1132l-4 52q-5 12 -10 17.5t-15.5 8.5t-15.5 6zM436 1139v-918h346q9 0 51.5 -0.5t59.5 0t58.5 3.5t63.5 8.5t58 17.5t59.5 28.5t49.5 42t45 58.5q52 88 51.5 290.5t-51.5 295.5q-16 30 -38 55t-49 42t-51.5 30.5t-58.5 21.5t-56 13t-57.5 7.5
t-50.5 3t-47.5 1t-36.5 0.5h-346z" />
    <glyph glyph-name="e" unicode="e" horiz-adv-x="1607" 
d="M1389 1364l8 14h22v-276h-24l-6 18q-20 15 -72 15h-885v-338h586q41 0 53 12l6 16h25v-274l-31 16q-19 17 -65 17h-570v-361h899q2 0 11 -0.5t15.5 0t15.5 1t16.5 3t13.5 6.5l8 19l25 -4v-277h-25l-8 19q-30 10 -55 10h-1229v29q39 0 39 34q2 5 2 52v1110q0 7 -2 28
t-2 31q-1 1 -3.5 15.5t-4.5 17.5q-18 10 -33 16l2 25h1220q35 0 48 6z" />
    <glyph glyph-name="f" unicode="f" horiz-adv-x="1529" 
d="M1327 1366l14 20l25 -2v-270l-31 16q-17 15 -82 15h-821v-332h533q1 0 11.5 -0.5t18 -0.5t18.5 2t19.5 7t14.5 13l4 12h28v-297h-28l-4 20q-17 17 -78 17h-531v-447q0 -8 1 -31.5t1 -35.5l6 -13l11 -18l8 -8l8 -2l8 -2l6 -2v-27h-366l8 29q19 0 26 8t17 35v5
q-1 5 -1.5 9.5t0 10t1.5 7.5q4 17 2 35v1088l-10 65q-1 4 -3 11q-4 16 -9 20.5t-26 11.5q-5 1 -7 2l2 29h1206z" />
    <glyph glyph-name="g" unicode="g" horiz-adv-x="1800" 
d="M1466 1282q28 -16 54 -16l18 14l25 -18l-148 -293l-29 10l3 27q-149 121 -349.5 152t-351.5 -34q-122 -45 -202 -140.5t-99 -215.5q-42 -287 162 -453q78 -64 185 -95t215.5 -27.5t209.5 25t187 58.5v218h-172q-15 0 -42 -1t-40 -1h-45h-50q-8 -2 -12.5 -4t-8.5 -5.5
t-5 -5t-4.5 -9t-5.5 -11.5l-29 2v289h26q10 -27 41 -27q16 -6 50 -6h583l-2 -29l-20 -12q0 -7 -1 -21t-1 -20v-336q0 -4 -0.5 -16t0 -18.5t2.5 -16t8 -16t16 -9.5v-31q-152 -108 -356.5 -165t-404.5 -52t-347 70q-351 156 -403 541q-5 57 -5.5 117t16.5 129t44.5 133
t78.5 129.5t120 119.5q101 80 248.5 121.5t294 42t276 -19t221.5 -53.5q15 -8 49 -21z" />
    <glyph glyph-name="h" unicode="h" horiz-adv-x="1761" 
d="M129 1335l-6 27h358v-29q-18 0 -32.5 -11t-14.5 -19q-2 -25 -2 -50v-102v-334h850v430q0 3 1 14.5t0.5 18.5t-3 16.5t-8.5 17t-17 13.5h-16l-4 31h362v-31q-7 4 -13.5 0t-10 -5t-7.5 -8.5t-5 -10t-3.5 -10t-3.5 -9.5q0 -10 -2 -31t-2 -28v-1106q0 -50 4 -58
q4 -11 7 -17.5t8 -10.5t6.5 -5t10 -2.5t11.5 -2.5v-23h-362v27q27 0 32.5 4t14.5 28v54v471h-852v-373v-31v-61v-56q3 -10 6 -16.5t8 -10t8 -4.5t12 -2.5t13 -2.5v-27h-358v27q5 3 16.5 5.5t17.5 8t11 20.5q8 16 8 54v1128v57q-12 35 -43 35z" />
    <glyph glyph-name="i" unicode="i" horiz-adv-x="669" 
d="M127 1366h379v-41q-18 0 -29.5 -6.5t-19.5 -30.5q-6 -14 -6 -63v-1084q0 -53 2 -67q9 -26 15.5 -32t37.5 -15l-4 -27h-381v31q11 0 16 0.5t13.5 3t14.5 9.5t11 19q6 11 6 66v1098q0 49 -6 63q-6 16 -14.5 25t-16 10.5t-18.5 1.5v39z" />
    <glyph glyph-name="j" unicode="j" horiz-adv-x="1341" 
d="M811 1366h375v-39q-19 0 -30.5 -6.5t-18.5 -30.5q-7 -16 -7 -63v-754q0 -10 0.5 -51t0 -55.5t-3 -52t-8.5 -57t-17 -52t-27.5 -55t-41 -49t-56.5 -48.5q-90 -62 -218 -78t-251.5 4.5t-255.5 67.5l-26 8q-25 8 -29 8q-37 13 -47 -16l-31 12l127 318l28 -10q1 -6 -2 -20.5
t2 -22.5q0 -2 3 -7t12.5 -15.5t23.5 -20.5q25 -25 93 -54q51 -21 118.5 -32.5t142.5 -4t121 40.5q23 16 39.5 40.5t24.5 46t11.5 53.5t4 50.5t-0.5 50t-1 38.5v717q2 45 -6 63q-6 16 -14.5 25t-16 10.5t-18.5 1.5v39z" />
    <glyph glyph-name="k" unicode="k" horiz-adv-x="1734" 
d="M123 1335l6 29h344v-31l-24 -8q-8 -10 -12.5 -25t-5.5 -24l-1 -10v-500l639 508q4 6 18.5 18t22.5 23l-27 18l4 29h443v-35q-39 -9 -65 -21.5t-62 -39.5l-535 -432l582 -723q42 -51 56 -60.5t65 -23.5l-2 -27h-426v29l20 12v10l-501 619l-226 -193v-262v-31v-69v-52
q2 -5 5 -13q4 -11 7 -14t17 -7q5 -1 8 -2l-2 -27h-352v31h20q23 17 23 57q0 2 0.5 9.5t1 21t0.5 31.5v1097q0 31 -2 47q-3 22 -8 27t-31 14z" />
    <glyph glyph-name="l" unicode="l" horiz-adv-x="1562" 
d="M178 129v1096q2 45 -6 63q-8 24 -20 30.5t-31 6.5v39h377v-39q-19 0 -30.5 -6.5t-18.5 -30.5q-4 -8 -6.5 -23t-2.5 -27v-11v-53v-953h822q10 0 31.5 1t31.5 1q28 7 31.5 11.5t11.5 33.5h27v-299h-27l-6 17q-18 12 -47 12l-47 2h-1137v31q20 0 26 5.5t17 31.5q4 55 4 61z
" />
    <glyph glyph-name="m" unicode="m" horiz-adv-x="1906" 
d="M119 1335v29h381v-31l-19 -6q-23 -23 19 -84l420 -770l423 801q2 6 5 11t4.5 8t2.5 8.5t1 15.5l-21 16v29h400v-35h-21q-12 -7 -18 -19t-7 -18.5t0 -25t1 -19.5v-1124q0 -10 5 -29t5 -29q7 -20 14 -30l17 -4l12 -2v-27h-359l2 29q35 0 50 39q2 4 2 63v41v49v725
l-502 -946h-39l-506 918v-797q1 -3 1.5 -28t2.5 -30q4 -11 6.5 -15.5t7.5 -8.5t7 -4.5t12.5 -3t17.5 -4.5l-6 -27h-319v31h4.5h4.5t4.5 0.5t4.5 1t4 1.5t4 2.5t3.5 3.5t4 5l3.5 7t4 9q2 4 2 54v1161q0 11 -10 41z" />
    <glyph glyph-name="n" unicode="n" horiz-adv-x="1753" 
d="M121 1335v31h377l2 -29l-23 -14v-18l838 -897v823q0 9 -1 28.5t-1 28.5t-1 15t-5.5 10.5t-6.5 6t-12.5 6.5t-13.5 7v29h313v-35h-18q-9 -7 -14.5 -15.5t-7 -19t-2 -17.5t0 -18t0.5 -12v-1122l2 -55q8 -29 17 -35q8 -6 24 -6v-27h-336l2 27l27 16q0 7 -2 12.5t-3.5 8
t-7.5 9t-9 9.5l-871 926v-885v-45v-7v-8t0.5 -7.5t2 -7.5t3.5 -6.5t6 -6t9 -4.5l18 -4v-27h-309v29q20 0 28.5 9t8.5 32v59v1114q0 33 -4 51q0 41 -31 41z" />
    <glyph glyph-name="o" unicode="o" horiz-adv-x="1953" 
d="M510 1292q83 38 145.5 54.5t159.5 27.5q43 7 109 4t137.5 -10t152 -28t154 -49.5t142.5 -75.5t118 -105q59 -72 97 -157.5t51.5 -170.5t9.5 -167t-27 -154q-56 -182 -172 -288.5t-313 -164.5q-102 -29 -212 -41t-234 -3.5t-248 56.5t-222 134q-131 114 -192.5 288.5
t-42.5 315.5q24 174 119 312t268 222zM766 1143q-168 -40 -258 -128.5t-121 -246.5q-21 -106 14 -232t131 -212q83 -72 206.5 -106.5t240.5 -31t213 34.5q128 37 214.5 120t115.5 202q25 98 -3.5 235.5t-111.5 220.5q-62 62 -150 101t-177.5 51t-170 10t-143.5 -18z" />
    <glyph glyph-name="p" unicode="p" horiz-adv-x="1617" 
d="M119 1333v29h837q138 -4 183 -11q183 -28 266 -169q45 -82 45 -220t-45 -217q-15 -27 -36.5 -49t-41.5 -38t-50 -29t-50 -21.5t-56 -14.5t-52.5 -9t-54.5 -4.5t-48 -1.5h-46.5h-37.5h-496v-449v-61q0 -39 45 -39v-29h-358v29h18l19 22v1182v59q-4 8 -8 18q-3 9 -6.5 11.5
t-21.5 9.5q-3 1 -5 2zM436 1143v-350h412q3 0 37.5 -1.5t50.5 -1t50.5 1.5t55.5 6.5t47.5 14t45 23.5t30.5 36q21 37 20 99t-16 92q-13 24 -39 40.5t-52.5 24.5t-63.5 12t-59 4.5t-52 -0.5t-31 -1h-436z" />
    <glyph glyph-name="q" unicode="q" horiz-adv-x="2004" 
d="M1765 848q82 -331 -147 -633q10 -6 43 -30.5t53 -34.5q37 -21 51 -21q32 0 50 23l24 -19l-176 -264l-21 20v41q-30 25 -67 53t-61 45t-29 19l-49 31q-138 -70 -307.5 -98t-345 -4t-310.5 102q-89 51 -157 122t-107.5 149.5t-60.5 154.5t-27 155q-5 84 17.5 179.5
t85.5 200t157 173.5q94 71 221.5 112.5t255 49.5t247.5 -6t216 -47q184 -65 290.5 -177t153.5 -296zM1407 348q90 106 112.5 194t10.5 193q-11 123 -66.5 207.5t-179.5 149.5q-143 74 -334 73t-319 -71q-124 -65 -179.5 -153t-66.5 -208q-12 -103 29.5 -218.5t134.5 -192.5
q79 -67 197 -98.5t234.5 -27.5t223.5 35q-49 36 -71 51.5t-57 38t-55 29.5t-50 15t-58.5 7t-64.5 -7l-12 12q-5 15 8 31.5t24 23.5q31 22 60 33q71 32 152 24t158.5 -42.5t168.5 -98.5z" />
    <glyph glyph-name="r" unicode="r" horiz-adv-x="1726" 
d="M438 1143v-361h459q8 0 46 -1t61 -1t62.5 4.5t66.5 13.5t55 28t45 46q22 35 22 80.5t-20 79.5q-15 27 -39 47.5t-56 32t-60.5 19t-66 10t-58 3.5t-51.5 0t-32 -1h-434zM1466 104q28 -42 41 -55q2 -2 6.5 -5l6 -4t5 -3t5 -3t5 -2t5.5 -1.5t6 -1t8 -0.5h9v-29h-398v20
q21 1 25 7q3 5 2 11.5t-4 11.5l-2 5l-344 506h-402v-340v-55v-53v-52q0 -7 2 -12t7.5 -8t9.5 -4.5t15.5 -4.5t17.5 -5v-27h-369v29h9h8h6t5.5 0.5t4.5 1t4.5 2t3.5 3t3.5 3.5t3 5l3.5 7q2 6 2 84v1096q0 41 -10 61q0 9 -1 14t-5.5 8.5t-7.5 5t-14 6t-19 7.5v29h794
q454 -7 566 -238q28 -59 35.5 -129.5t-10 -146.5t-60.5 -135q-55 -73 -129.5 -105t-169.5 -45z" />
    <glyph glyph-name="s" unicode="s" horiz-adv-x="1671" 
d="M684 1368q189 22 366.5 -9t383.5 -126l16 18l29 -16l-142 -274l-30 12q-2 13 -2 26.5t-1.5 18t-9.5 12.5t-28 23q-30 26 -86 47q-79 31 -179 51q-37 6 -107 8.5t-163.5 -2.5t-178 -32.5t-122.5 -75.5q-48 -63 -18 -121q12 -24 35.5 -42t48 -27.5t58.5 -16t56.5 -8.5
t53.5 -4t38 -3l263 -10q42 -1 58.5 -2t67 -6t80.5 -12t77.5 -21.5t80 -34t68 -50.5t59.5 -70q44 -69 50 -174.5t-27 -180.5q-21 -51 -55.5 -93t-72 -69.5t-86 -49t-90 -34t-92.5 -22.5q-216 -49 -469 -21q-59 6 -103 16t-130 38q-28 10 -50.5 19.5t-39.5 17t-25 10.5l-59 31
q-2 1 -10 4t-11.5 3.5t-10 1t-12.5 -3t-13 -10.5l-31 15l162 297l28 -15q-7 -26 -5 -33t22 -40q12 -12 75 -47q72 -38 150 -56q41 -10 120.5 -18.5t185.5 -10.5t205 24t144 81q26 31 34.5 77.5t-7.5 86.5q-10 23 -31.5 40.5t-42.5 26.5t-54 15t-52 7.5t-51 3t-37 1.5
l-277 10q-38 2 -60 3.5t-70.5 7.5t-82.5 14t-81 23.5t-81.5 36t-69 52t-57.5 70.5q-38 70 -36.5 157.5t40.5 164.5q34 67 94 119t132.5 81.5t136.5 45.5t131 24z" />
    <glyph glyph-name="t" unicode="t" horiz-adv-x="1622" 
d="M121 1122v267h29l16 -25h1247l23 22l22 -2v-270h-28q-4 17 -12.5 22t-28.5 5q-40 0 -48 2h-411v-1012q0 -8 1 -29.5t1 -31.5q0 -41 45 -41v-29h-369v29q30 0 45 32q2 4 2 58v1024h-491l-14 -21h-29z" />
    <glyph glyph-name="u" unicode="u" horiz-adv-x="1755" 
d="M121 1327v35h358v-35q-30 0 -39 -33q-2 -12 -2 -55v-639v-29v-34.5t1 -35.5t3 -39t6.5 -38t10.5 -40t15.5 -36t21 -35.5t28 -30t35.5 -26.5q85 -50 306 -50t309 54q26 17 46 38t31.5 49t19 48t10 55.5t3.5 49t0.5 52t-0.5 42.5v651q0 35 -4 51q-2 5 -3.5 8.5t-2.5 6
t-3.5 4.5t-3.5 3t-5.5 2.5t-6.5 2t-9 2t-11 2.5l4 31h352v-33q-21 0 -26.5 -4.5t-16.5 -28.5q-2 -6 -2 -59v-651q0 -6 0.5 -46.5t0 -52.5t-2.5 -52t-5.5 -57.5t-11 -54t-18 -57t-26.5 -51.5t-36.5 -52.5t-48 -45.5t-61.5 -43q-102 -59 -283.5 -83.5t-369.5 -3.5t-297 85
q-39 23 -70.5 49t-53.5 52t-38 55t-25.5 58t-15.5 59.5t-7.5 61t-2.5 62t0 62.5v32v672v57q-12 39 -53 39z" />
    <glyph glyph-name="v" unicode="v" horiz-adv-x="1802" 
d="M119 1333v31h383v-31h-17l-14 -16l438 -977l414 977l-35 16v31h350v-31q-29 0 -55 -26l-29 -56l-491 -1147q-3 -8 -8 -18t-6.5 -14t-1.5 -12.5t4 -20.5l28 -10v-29h-364v29l18 2l12 16l-544 1208q-23 52 -27 58q-23 20 -55 20z" />
    <glyph glyph-name="w" unicode="w" horiz-adv-x="2443" 
d="M119 1335v27h354l-2 -29l-31 -12q-5 -19 -4.5 -24.5t10.5 -24.5l299 -887l287 854q14 25 21 55q0 12 -2.5 19t-4.5 9t-12 6.5t-14 6.5v27h383v-27l-37 -22v-29l12 -29l305 -882l306 944l-33 18v27h323v-29q-10 -5 -20 -7t-15 -6.5t-14 -19.5q-13 -16 -20 -53l-393 -1196
l36 -20l-2 -31h-356v29l31 18l-330 963l-322 -959l41 -24v-27h-354v29q37 0 37 34q0 6 -20 56l-394 1134q-5 9 -10 26.5t-10 25.5q-8 15 -14.5 20t-15.5 6t-15 4z" />
    <glyph glyph-name="x" unicode="x" horiz-adv-x="1755" 
d="M1176 41q2 3 2 8.5t-1 9.5l-1 4l-340 445l-330 -424q-12 -17 -12 -33q4 -10 8 -12l16 -8h23v-31h-422v29l28 7q23 6 32 13t37 42q5 6 7 9l457 600l-434 566q-15 19 -21.5 26t-13 15t-13 10.5t-11.5 4.5t-19 5.5t-25 7.5v29h455v-31h-20q-35 -18 -7 -61q7 -18 41 -62
q17 -21 40 -51t36.5 -48t16.5 -21l139 -177l297 387q4 11 4 15l-6 8l-37 12v29h436v-29q-45 -8 -67.5 -20.5t-55.5 -54.5l-416 -537l476 -614q11 -15 18 -23t13 -16t12 -12.5t9.5 -7.5t12.5 -5.5t12.5 -4t17.5 -4.5t21 -5v-31h-452v31h20q15 6 17 10z" />
    <glyph glyph-name="y" unicode="y" horiz-adv-x="1724" 
d="M123 1333v31h387v-31l-29 -12q-3 -10 2 -21t16.5 -25.5t14.5 -19.5l348 -450l363 495l-2 23l-27 12v29h365v-29q-9 0 -14.5 -1.5t-11 -6t-8 -7t-8.5 -12t-10 -14.5l-516 -710v-475q1 -4 1.5 -23t2.5 -25q0 -8 1.5 -14t6 -9t7.5 -4.5t10 -3t8 -1.5v-29h-340v31q35 0 35 39
v51v442l-545 721q-16 26 -25.5 33.5t-31.5 15.5z" />
    <glyph glyph-name="z" unicode="z" horiz-adv-x="1630" 
d="M119 1122v267h31q2 -9 8 -15t16 -8t16.5 -2.5t19 0t15.5 0.5h1235v-39l-852 -1102h770q35 0 49 8l9 17h28v-277l-26 -2q-6 25 -35 25q-27 6 -51 6h-1231v31l858 1112h-746h-47h-7h-6.5t-5.5 -0.5t-6 -2t-5.5 -4t-6.5 -6.5t-6 -10z" />
    <glyph glyph-name="braceleft" unicode="{" horiz-adv-x="1210" 
d="M682 1630q124 71 365 74v-64q-75 -14 -125 -27.5t-93 -34.5t-68 -48t-42.5 -68t-24 -93t-6.5 -126v-192q0 -14 -0.5 -58.5t-2 -63t-8.5 -56.5t-19.5 -61.5t-37 -54.5t-59.5 -57q-104 -78 -354 -116q88 -13 147 -26.5t117.5 -36.5t94.5 -55.5t64.5 -80.5t41 -115.5
t12.5 -156.5v-166q0 -6 -0.5 -37t0 -42.5t2.5 -41.5t6.5 -46t13.5 -43t21.5 -45t31.5 -39.5t44 -39.5q54 -38 101 -53.5t136 -30.5v-68q-56 1 -127.5 11.5t-167 44t-145.5 84.5q-17 18 -30.5 35.5t-23 38.5t-17 35.5t-11.5 39t-7 35.5t-4 40t-1 36.5v41v38.5v190
q-1 20 0 56.5t1 58t-6 53t-18 54t-36.5 49.5t-61.5 51q-71 49 -264 79q-2 6 -2 58q2 10 1 19t1 18.5t8 13.5q62 10 100.5 17.5t81 19.5t66.5 24.5t49.5 33.5t37.5 46t23.5 61t15 80.5t3.5 102.5v199q2 134 10 179q23 126 132 204q16 11 34 22z" />
    <glyph glyph-name="bar" unicode="|" horiz-adv-x="409" 
d="M119 -569v2316h117v-2316h-117z" />
    <glyph glyph-name="braceright" unicode="}" horiz-adv-x="1210" 
d="M119 1640v64q61 0 133 -9t165.5 -42t145.5 -86q33 -35 53 -69.5t28 -80t9.5 -76.5t1.5 -94v-16v-174q1 -20 1 -57.5t0.5 -59t6.5 -54.5t17 -56.5t33 -51t55 -51.5q38 -27 87 -44.5t79 -23t108 -18.5v-100q-58 -12 -93.5 -20.5t-78 -21.5t-67 -27t-51.5 -35.5t-41 -48
t-27 -62.5t-17.5 -81.5t-4.5 -103.5v-180q0 -139 -8 -186q-23 -128 -132 -202q-27 -18 -61 -34q-18 -9 -34.5 -16.5t-36 -13.5t-31.5 -10.5t-34.5 -8t-32 -5.5t-37.5 -4t-36.5 -3t-44 -3t-45.5 -3v69q80 14 132.5 28.5t94 37.5t64 50t37.5 72t19.5 97t4.5 131v166
q0 8 -0.5 39.5t0 45t2.5 44t6.5 47.5t13.5 44t22 46.5t33 42t46 41.5q47 35 113.5 59.5t113.5 34t121 19.5q-73 12 -124.5 23.5t-105 30t-88.5 42t-67.5 57.5t-50.5 78.5t-28.5 104.5t-10.5 135v170q0 14 0.5 50.5t0 48.5t-2 41.5t-6 41.5t-12 36t-19.5 37.5t-29 33
t-40.5 35.5t-53.5 32q-72 39 -196 57z" />
    <glyph glyph-name="asciitilde" unicode="~" horiz-adv-x="1097" 
d="M741 1714q13 10 21.5 20t11.5 15.5t9 19.5t10 23h139q-36 -186 -137 -242q-24 -14 -52.5 -19t-49.5 -5.5t-59 8t-57.5 14.5t-68.5 21l-37 10q-38 13 -60.5 18.5t-55 5t-52.5 -15.5q-16 -14 -22.5 -24t-11.5 -25.5t-11 -26.5h-139q9 45 17 73t24.5 64t43 63.5t64.5 47.5
q45 23 92 24t85 -9.5t114 -38.5l31 -11q40 -14 55.5 -18.5t45 -4.5t50.5 13z" />
    <glyph glyph-name="exclamdown" unicode="&#xa1;" horiz-adv-x="692" 
d="M166 1470q-3 54 24.5 99t83.5 63q77 21 136 -24q67 -58 61 -138q-11 -80 -84 -124q-72 -38 -135 -3q-74 38 -86 127zM225 1165h187v-24l-25 -17v-51l92 -958q4 -45 8 -54q11 -27 16 -33t23 -10l2 -28h-409v24q21 9 25 13.5t16 31.5q6 15 6 54l88 1005l-29 23v24z" />
    <glyph glyph-name="cent" unicode="&#xa2;" horiz-adv-x="1527" 
d="M897 1135l121 272h147l-118 -297q7 -8 45 -20q35 -13 47 -19l61 -24q0 -5 31 -17l35 -16l30 -17l17 -6l8 2l6 4l29 -16l-144 -256l-26 18v31q-62 50 -107 73t-114 46l-263 -670q67 -10 123 -8t131 18q74 17 127 43q45 22 62 39q20 10 29.5 26.5t-0.5 35.5l26 14l164 -237
l-47 -13q-222 -105 -361 -133t-342 0l-127 -303h-143l129 336q-186 89 -265.5 204t-88.5 298q-3 64 6.5 128t35.5 133.5t80 135t132 113.5q86 56 243.5 76.5t280.5 5.5zM817 918q-221 15 -340 -99q-61 -57 -87 -138t-21 -153q9 -86 50.5 -146t133.5 -118z" />
    <glyph glyph-name="sterling" unicode="&#xa3;" horiz-adv-x="1865" 
d="M1386 1556q137 -73 191 -180.5t57 -257.5h-286q-6 75 -29.5 127.5t-91.5 89.5q-87 45 -227 47.5t-226 -41.5q-66 -35 -92.5 -74t-34.5 -108q-2 -16 -2 -34t0.5 -31t4 -37.5t5.5 -34.5t7.5 -42t7.5 -42h323v-162h-303v-8q0 -62 -0.5 -92t-5 -81t-13 -80.5t-25 -72.5
t-41.5 -75.5t-62 -70.5t-86 -75q168 67 288.5 77t301.5 -24l83 -18q1 0 20 -4t28.5 -5.5t31 -4t36 -3t35 0.5t35.5 5t30 12t26 19q8 8 14 19t10.5 20t7.5 24t5 23.5t3 25.5t1.5 23.5t1 24.5t0.5 21h287l-3 -60t-3.5 -63.5t-6 -59t-13 -61t-22 -55.5t-35 -56t-50.5 -49
q-72 -55 -193 -75.5t-219.5 -14.5t-185.5 23l-150 28q-158 26 -249 21.5t-246 -43.5l-54 -12l-7 -1q-7 -1 -20 -2.5t-30.5 -3t-42.5 -2.5t-51 -2v262q200 50 252 230q18 60 22.5 110t1 84t-15.5 123h-262v162h237q-1 11 -3 34q-4 46 -5.5 71t-3.5 71.5t2 76t10.5 71.5
t21.5 74t36 67.5t52.5 66.5t72.5 58q95 65 257.5 91.5t325 8.5t264.5 -74z" />
    <glyph glyph-name="yen" unicode="&#xa5;" horiz-adv-x="2015" 
d="M119 1591l2 29h33h450v-31l-26 -10q-6 -7 -1.5 -19.5t8 -17.5t13.5 -17.5t14 -19.5l389 -532l402 536q24 30 24 54l-30 20v31h448v-35q-34 0 -61 -27q-14 -11 -53 -59l-535 -735q-17 -24 -25 -35.5t-11 -23.5t-2 -18t3 -25t2 -38h334v-141h-338v-209h338v-147h-338
q0 -9 1 -34t1 -38l49 -29v-20h-428v20q9 3 22 6t18 4.5t9.5 9t4.5 21.5q2 10 2 36t-4 34h-355v137h359v211h-359v142h359v49l-613 841q-38 54 -49 61q-6 4 -52 18q-3 0 -5 1z" />
    <glyph glyph-name="section" unicode="&#xa7;" horiz-adv-x="1312" 
d="M836 1583q52 -31 95 -75t87 -113l-174 -115q-38 70 -79 110t-106 50q-78 18 -133 -31q-42 -35 -39 -88q1 -20 14 -44t28.5 -44t41.5 -46.5t42.5 -41t44 -38t32.5 -28.5l189 -153q89 -74 135 -118t83.5 -96.5t46.5 -103t-1 -116.5q-13 -95 -64 -144t-164 -82
q148 -161 91 -344q-27 -86 -82 -133t-144 -68q-54 -14 -112 -14.5t-119 12t-122 46t-112 85.5q-8 9 -15.5 19t-25 33t-36.5 47l168 135q24 -45 37.5 -67.5t37.5 -51.5t53.5 -44t69.5 -21q83 -18 137 28q50 44 47 105q0 23 -8.5 45t-18.5 38t-33 38t-37 33.5t-47.5 37.5
t-49.5 39l-182 146q-151 130 -198 183q-92 101 -97 206q-1 32 4 67q10 67 50 121.5t110 85.5q24 13 84 25q-134 152 -99 299q12 66 59.5 120.5t123.5 84.5q72 36 188 33.5t199 -52.5zM387 938q-50 -35 -47 -92q3 -35 95 -132t193 -183t136 -103q70 -34 117 0q27 18 39.5 44
t9.5 50q-7 61 -186.5 225t-245.5 199q-64 27 -111 -8z" />
    <glyph glyph-name="dieresis" unicode="&#xa8;" horiz-adv-x="1001" 
d="M123 1509v265h278v-265h-278zM561 1778h277v-269h-277v269z" />
    <glyph glyph-name="copyright" unicode="&#xa9;" horiz-adv-x="1814" 
d="M526 1419q131 69 246 82q60 6 124.5 5.5t139.5 -18t146 -46.5t143 -80t131 -117q64 -73 107.5 -166t63 -187.5t18 -189t-24.5 -176.5q-107 -391 -506 -520q-79 -26 -166.5 -32.5t-179 7.5t-184.5 54.5t-174 105.5q-86 70 -148 157.5t-94 176t-43.5 174t-3.5 166.5
q8 82 34.5 163t73 162.5t123 154.5t174.5 124zM752 1415q-107 -19 -189 -67q-110 -58 -190.5 -152.5t-119 -192.5t-48.5 -200q-13 -161 49 -323t211 -277q97 -76 212 -113t223.5 -35t209.5 37q176 62 287 185.5t151 295.5q37 156 -6.5 333t-167.5 306q-54 58 -119.5 100.5
t-130 66.5t-132.5 36t-127 11t-113 -11zM1098 1176q122 -83 141 -246h-156q-21 70 -51 111t-94 59q-39 16 -100 8t-105 -45q-42 -36 -66 -116t-28.5 -148t0.5 -115q15 -191 129 -248q52 -25 114.5 -25.5t114.5 25.5q49 27 71 69t32 105h168q-24 -115 -74.5 -187.5
t-155.5 -109.5q-58 -21 -130 -24.5t-148 15.5t-129 61q-43 33 -75 84.5t-48 105.5t-26 111.5t-8.5 103.5t3.5 82q6 48 20.5 95.5t40 97.5t68.5 92t99 67q76 37 194.5 31t198.5 -59z" />
    <glyph glyph-name="ordfeminine" unicode="&#xaa;" horiz-adv-x="1056" 
d="M416 1731l-10 24h153h23h10l6 -8l-10 -16l270 -596q3 -6 5 -14t9 -19q3 -3 8.5 -7.5t6 -5.5t3 -6.5t-0.5 -9.5h-135h-23h-10l-10 10l12 17q2 16 -31 82q-7 12 -19 40.5t-20 43.5h-315q-5 -8 -20.5 -42t-16.5 -40q-29 -65 -29 -84l17 -23h-170l2 17l14 6zM494 1610l-7 -8
l-100 -230h217z" />
    <glyph glyph-name="guillemotleft" unicode="&#xab;" horiz-adv-x="1251" 
d="M119 510l270 362h246l-270 -362l274 -350h-244zM567 514l271 354h249l-272 -358l268 -354h-237z" />
    <glyph glyph-name="logicalnot" unicode="&#xac;" horiz-adv-x="583" 
d="M340 1405l76 -414h-43l-168 344q0 1 -10.5 20.5t-22 43t-24 55.5t-19.5 59.5t-6.5 54t12.5 40.5q41 44 103 26q14 -4 24.5 -8t18 -11.5t12 -11.5t8.5 -16t5 -16t4.5 -20t4.5 -21l11 -64q0 -1 4.5 -23t9.5 -38z" />
    <glyph glyph-name="registered" unicode="&#xae;" horiz-adv-x="1814" 
d="M522 1425q125 65 250 82q60 6 124 6t138.5 -17.5t144.5 -46t141.5 -78.5t129.5 -116q74 -82 121.5 -176t65.5 -186.5t15.5 -180.5t-24.5 -171q-116 -406 -504 -531q-110 -37 -229.5 -38.5t-245.5 39t-231 122.5q-86 68 -149 155.5t-96 178.5t-45.5 178t-6.5 168
q7 81 34 164.5t74.5 165.5t122.5 156t170 126zM756 1419q-102 -15 -185 -61q-120 -63 -202 -157.5t-119 -192.5t-47 -209q-10 -98 11.5 -198.5t87.5 -209t171 -190.5q95 -75 209.5 -112t221.5 -35t204 36q347 121 440 483q38 157 -2.5 330.5t-167.5 308.5
q-133 140 -302.5 188t-319.5 19zM541 305v895h293q141 0 210 -13q167 -30 230 -134q29 -44 31.5 -109.5t-21.5 -107.5q-27 -57 -75.5 -86t-125.5 -50q95 -45 133.5 -85t63.5 -136q14 -52 14 -174h-180q-3 119 -21 176q-27 87 -94 123q-33 19 -146.5 23t-145.5 -2v-320h-166z
M711 1057v-283h49q9 0 44.5 -1t62 -1.5t66 3t68.5 11t56.5 23.5t42.5 39q18 29 19.5 69.5t-11.5 63.5q-11 19 -30 33t-44.5 22t-49.5 13.5t-55.5 7t-50.5 1.5t-47.5 -0.5t-33.5 -0.5h-86z" />
    <glyph glyph-name="macron" unicode="&#xaf;" horiz-adv-x="1056" 
d="M119 1563v163h774v-163h-774z" />
    <glyph glyph-name="plusminus" unicode="&#xb1;" horiz-adv-x="1593" 
d="M723 1333l2 8h100v-383h602v-100h-600v-379h-102v379h-606v103h604v372zM121 129v98h1309v-98h-1309z" />
    <glyph glyph-name="acute" unicode="&#xb4;" horiz-adv-x="827" 
d="M119 1499l203 326h342l-328 -326h-217z" />
    <glyph glyph-name="mu" unicode="&#xb5;" horiz-adv-x="1499" 
d="M150 969h188v-467q3 -35 0 -69.5t2 -71.5t16 -69.5t40 -66t75 -59.5q38 -23 102 -22t107 28q27 17 46 50t28 65.5t14 82t5.5 76.5t-0.5 74t-1 51v406h201v-537q0 -1 -0.5 -26.5t1.5 -57.5t8.5 -68t24 -68t44.5 -48q28 -17 66 -19t69 13q25 14 44.5 47.5t27.5 59t18.5 70
t11.5 48.5l25 4q16 -46 21 -97.5t-7.5 -110t-46.5 -99.5q-73 -90 -197 -74q-117 15 -176 140q-18 38 -33 92q-16 -45 -28.5 -73t-29 -57t-34 -46t-42.5 -31.5t-56 -22t-72 -10.5q-56 -4 -97 5.5t-77.5 38.5t-65 64.5t-69.5 98.5l14 -301q0 -3 2 -31.5t3 -53t1.5 -62
t-2.5 -68.5t-8.5 -62t-17 -53t-27.5 -31q-20 -10 -47.5 -10t-48.5 13q-19 13 -31.5 48t-16 75.5t-5 79t0.5 63.5l1 26z" />
    <glyph glyph-name="paragraph" unicode="&#xb6;" horiz-adv-x="1243" 
d="M668 1612h405v-56h-155v-1759h-62v1759h-223v-1759h-66v924q-45 3 -81.5 7.5t-86 18t-87.5 34t-76 56t-62 83.5q-53 104 -54 252.5t60 252.5q24 39 55.5 69.5t61 50t71 33t70.5 20t75 10t69.5 4t68.5 0.5h17z" />
    <glyph glyph-name="periodcentered" unicode="&#xb7;" horiz-adv-x="804" 
d="M213 -223l131 209h115l-90 -140q47 8 79 9.5t72 -11.5t72 -45q59 -56 49 -145q-12 -92 -123 -152q-60 -29 -128.5 -32t-129 12t-141.5 47l41 92q2 0 18.5 -5t25.5 -7t28.5 -6.5t33 -6.5t32.5 -4.5t33.5 -2t30.5 2t28.5 6.5t21.5 13q43 34 37 72q-11 42 -54 63
q-17 9 -39 9t-41 -4t-59 -15z" />
    <glyph glyph-name="guillemotright" unicode="&#xbb;" horiz-adv-x="1253" 
d="M121 868l-2 11h246l276 -357l-274 -360h-244l268 360zM571 868l-4 11h246l277 -357l-275 -358h-242l269 356z" />
    <glyph glyph-name="questiondown" unicode="&#xbf;" horiz-adv-x="1296" 
d="M457 1470q-6 54 21 99t83 63q78 21 135 -22q66 -56 60 -131q-4 -80 -76 -123q-64 -40 -137 -8q-34 18 -58 50t-28 72zM457 1153v23h303v-31l-35 -10v-43q-2 -16 -7.5 -59.5t-7.5 -56.5t-8 -46.5t-11 -48t-15 -42.5t-21.5 -47t-28.5 -44.5t-38 -51.5l-35 -37
q-93 -109 -115 -145q-49 -78 -29 -157q1 -7 3 -13q15 -47 52 -79.5t87 -43.5q65 -18 150.5 4t140.5 76q26 26 37 53q8 20 -11 52l27 22l238 -238l-25 -24q-24 11 -35 9t-35 -25q-14 -8 -31 -22.5t-27 -25.5l-11 -10q-72 -49 -144 -74q-63 -22 -145 -35t-137 -10
q-50 3 -96 13.5t-93.5 32t-86.5 52t-72.5 77t-53.5 104.5q-28 79 -33 135.5t18 117t71 119t137 144.5l35 37q52 55 75 91.5t37 84.5q17 65 17 90q0 33 -6 47q-7 16 -12.5 21.5t-22.5 13.5z" />
    <glyph glyph-name="Agrave" unicode="&#xc0;" horiz-adv-x="2140" 
d="M1100 1802l-328 330h338l207 -330h-217zM768 1597v27h483v-18q-7 -5 -21.5 -12t-20 -14.5t-7.5 -23.5q-1 -3 5 -16.5t12.5 -28t7.5 -16.5l665 -1386q6 -28 27 -58q20 -20 57 -20v-31h-442v27l41 24l-180 398h-754l-147 -328q-4 -10 -7.5 -18t-4.5 -11t-2 -10t-1 -21
l35 -22v-39h-395v33q9 0 26.5 8t26.5 20q4 5 8.5 14t9.5 22t7 18l591 1368q25 63 25 65q4 19 -5.5 28.5t-39.5 20.5zM993 1268l-252 -568h521z" />
    <glyph glyph-name="Aacute" unicode="&#xc1;" horiz-adv-x="2140" 
d="M774 1800l203 326h342l-328 -326h-217zM768 1597v27h483v-18q-7 -5 -21.5 -12t-20 -14.5t-7.5 -23.5q-1 -3 5 -16.5t12.5 -28t7.5 -16.5l665 -1386q6 -28 27 -58q20 -20 57 -20v-31h-442v27l41 24l-180 398h-754l-147 -328q-4 -10 -7.5 -18t-4.5 -11t-2 -10t-1 -21
l35 -22v-39h-395v33q9 0 26.5 8t26.5 20q4 5 8.5 14t9.5 22t7 18l591 1368q25 63 25 65q4 19 -5.5 28.5t-39.5 20.5zM993 1268l-252 -568h521z" />
    <glyph glyph-name="Acircumflex" unicode="&#xc2;" horiz-adv-x="2140" 
d="M657 1802l250 332h279l250 -332h-248l-141 183l-144 -183h-246zM768 1597v27h483v-18q-7 -5 -21.5 -12t-20 -14.5t-7.5 -23.5q-1 -3 5 -16.5t12.5 -28t7.5 -16.5l665 -1386q6 -28 27 -58q20 -20 57 -20v-31h-442v27l41 24l-180 398h-754l-147 -328q-4 -10 -7.5 -18
t-4.5 -11t-2 -10t-1 -21l35 -22v-39h-395v33q9 0 26.5 8t26.5 20q4 5 8.5 14t9.5 22t7 18l591 1368q25 63 25 65q4 19 -5.5 28.5t-39.5 20.5zM993 1268l-252 -568h521z" />
    <glyph glyph-name="Atilde" unicode="&#xc3;" horiz-adv-x="2140" 
d="M1260 2003q14 10 22.5 19t11.5 15.5t8.5 19.5t10.5 22h141q-41 -186 -139 -240q-24 -14 -52.5 -19t-49.5 -5.5t-59 8t-57.5 14.5t-68.5 21l-37 10q-38 13 -60.5 18.5t-55 4.5t-52.5 -17q-16 -13 -22.5 -22.5t-11.5 -25t-11 -26.5h-139q10 45 17.5 72t24 63.5t43 64
t64.5 48.5q45 23 92 24t84 -10t113 -39l33 -12q4 -1 22 -6.5t23.5 -7t20.5 -5t22.5 -3.5t19.5 0.5t22 4t20 9.5zM768 1597v27h483v-18q-7 -5 -21.5 -12t-20 -14.5t-7.5 -23.5q-1 -3 5 -16.5t12.5 -28t7.5 -16.5l665 -1386q6 -28 27 -58q20 -20 57 -20v-31h-442v27l41 24
l-180 398h-754l-147 -328q-4 -10 -7.5 -18t-4.5 -11t-2 -10t-1 -21l35 -22v-39h-395v33q9 0 26.5 8t26.5 20q4 5 8.5 14t9.5 22t7 18l591 1368q25 63 25 65q4 19 -5.5 28.5t-39.5 20.5zM993 1268l-252 -568h521z" />
    <glyph glyph-name="Adieresis" unicode="&#xc4;" horiz-adv-x="2140" 
d="M690 1800v264h279v-264h-279zM1120 2054h285v-254h-285v254zM768 1597v27h483v-18q-7 -5 -21.5 -12t-20 -14.5t-7.5 -23.5q-1 -3 5 -16.5t12.5 -28t7.5 -16.5l665 -1386q6 -28 27 -58q20 -20 57 -20v-31h-442v27l41 24l-180 398h-754l-147 -328q-4 -10 -7.5 -18t-4.5 -11
t-2 -10t-1 -21l35 -22v-39h-395v33q9 0 26.5 8t26.5 20q4 5 8.5 14t9.5 22t7 18l591 1368q25 63 25 65q4 19 -5.5 28.5t-39.5 20.5zM993 1268l-252 -568h521z" />
    <glyph glyph-name="Aring" unicode="&#xc5;" horiz-adv-x="2140" 
d="M813 2462q59 35 145 47q31 8 88 3.5t115 -15.5t117.5 -39.5t95.5 -69.5q60 -68 80.5 -161.5t-2.5 -164.5q-25 -92 -79.5 -148t-147.5 -87q-67 -23 -147.5 -27.5t-168.5 17.5t-151 71q-68 54 -102 133.5t-25 165.5q5 79 52 154.5t130 120.5zM940 2392q-75 -22 -120.5 -71
t-55.5 -121q-11 -57 9 -120.5t71 -105.5q42 -36 103.5 -52t120 -12.5t108.5 21.5q132 46 159 166q10 64 -6 127t-67 107q-39 37 -101 56.5t-117.5 18t-103.5 -13.5zM768 1597v27h483v-18q-7 -5 -21.5 -12t-20 -14.5t-7.5 -23.5q-1 -3 5 -16.5t12.5 -28t7.5 -16.5l665 -1386
q6 -28 27 -58q20 -20 57 -20v-31h-442v27l41 24l-180 398h-754l-147 -328q-4 -10 -7.5 -18t-4.5 -11t-2 -10t-1 -21l35 -22v-39h-395v33q9 0 26.5 8t26.5 20q4 5 8.5 14t9.5 22t7 18l591 1368q25 63 25 65q4 19 -5.5 28.5t-39.5 20.5zM993 1268l-252 -568h521z" />
    <glyph glyph-name="AE" unicode="&#xc6;" horiz-adv-x="2488" 
d="M2234 1628q22 5 30.5 13.5t8.5 33.5h31v-370h-29q0 20 -10 35.5t-33 15.5q-63 4 -65 6h-666v-404h293h66h38q53 0 62 3q16 5 22 11t9.5 19.5t5.5 18.5h24v-369h-26q0 37 -35 45q-6 3 -14 5t-14 2t-15.5 -0.5t-11.5 -0.5h-117h-287v-436h692q58 0 66 4q13 4 20 9.5
t8.5 9.5t3.5 16t5 20l28 -2v-372h-32v32q-9 9 -14.5 13.5t-8.5 5.5t-11 2.5t-15 3.5q-13 2 -52 2h-1067v31q6 1 14 0t17.5 1t13.5 7q21 18 21 45v92v72v182h-549l-160 -336q-2 -7 -4 -13l-3 -9t-2 -8.5t-1 -14.5l37 -20v-29h-389v29q3 1 10 2t11 2t10 6t12 14l22 47
l654 1385l10 20t13 29.5t3 17.5q0 18 -14.5 29.5t-40.5 11.5v29h1362q55 0 63 6zM1155 1507l-381 -815h412v815h-31z" />
    <glyph glyph-name="Egrave" unicode="&#xc8;" horiz-adv-x="1861" 
d="M961 1837l-328 328h338l207 -328h-217zM1608 1630q11 5 16 7t9 6t5.5 6.5t5.5 12t9 17.5l18 -4v-364h-18q-1 3 -4 8.5t-4 7.5t-3.5 6.5t-4 6.5t-4.5 5.5t-6 6t-7.5 6t-9.5 6.5q-5 2 -62 2h-1050v-395h676q51 0 59 4q32 9 43 53h24v-377h-24q-10 27 -20 35q-8 6 -23 10
q-15 6 -59 6h-676v-442h1085h57q13 6 18.5 13.5t9 20t7.5 19.5h17v-372h-17q-5 10 -8.5 22t-8 17t-18.5 12q-16 8 -57 8h-1464v29q44 15 55 39q6 11 6 63v1385q0 51 -4 59q-5 12 -11 18.5t-10.5 7.5t-15 2.5t-18.5 4.5v20h1425h10q9 -1 18 -1.5t19.5 0.5t14.5 3z" />
    <glyph glyph-name="Eacute" unicode="&#xc9;" horiz-adv-x="1861" 
d="M635 1835l203 326h342l-330 -326h-215zM1608 1630q11 5 16 7t9 6t5.5 6.5t5.5 12t9 17.5l18 -4v-364h-18q-1 3 -4 8.5t-4 7.5t-3.5 6.5t-4 6.5t-4.5 5.5t-6 6t-7.5 6t-9.5 6.5q-5 2 -62 2h-1050v-395h676q51 0 59 4q32 9 43 53h24v-377h-24q-10 27 -20 35q-8 6 -23 10
q-15 6 -59 6h-676v-442h1085h57q13 6 18.5 13.5t9 20t7.5 19.5h17v-372h-17q-5 10 -8.5 22t-8 17t-18.5 12q-16 8 -57 8h-1464v29q44 15 55 39q6 11 6 63v1385q0 51 -4 59q-5 12 -11 18.5t-10.5 7.5t-15 2.5t-18.5 4.5v20h1425h10q9 -1 18 -1.5t19.5 0.5t14.5 3z" />
    <glyph glyph-name="Ecircumflex" unicode="&#xca;" horiz-adv-x="1861" 
d="M518 1837l250 330h279l249 -330h-247l-142 182l-143 -182h-246zM1608 1630q11 5 16 7t9 6t5.5 6.5t5.5 12t9 17.5l18 -4v-364h-18q-1 3 -4 8.5t-4 7.5t-3.5 6.5t-4 6.5t-4.5 5.5t-6 6t-7.5 6t-9.5 6.5q-5 2 -62 2h-1050v-395h676q51 0 59 4q32 9 43 53h24v-377h-24
q-10 27 -20 35q-8 6 -23 10q-15 6 -59 6h-676v-442h1085h57q13 6 18.5 13.5t9 20t7.5 19.5h17v-372h-17q-5 10 -8.5 22t-8 17t-18.5 12q-16 8 -57 8h-1464v29q44 15 55 39q6 11 6 63v1385q0 51 -4 59q-5 12 -11 18.5t-10.5 7.5t-15 2.5t-18.5 4.5v20h1425h10q9 -1 18 -1.5
t19.5 0.5t14.5 3z" />
    <glyph glyph-name="Edieresis" unicode="&#xcb;" horiz-adv-x="1861" 
d="M551 1835v262h276v-262h-276zM981 2089h285v-254h-285v254zM1608 1630q11 5 16 7t9 6t5.5 6.5t5.5 12t9 17.5l18 -4v-364h-18q-1 3 -4 8.5t-4 7.5t-3.5 6.5t-4 6.5t-4.5 5.5t-6 6t-7.5 6t-9.5 6.5q-5 2 -62 2h-1050v-395h676q51 0 59 4q32 9 43 53h24v-377h-24
q-10 27 -20 35q-8 6 -23 10q-15 6 -59 6h-676v-442h1085h57q13 6 18.5 13.5t9 20t7.5 19.5h17v-372h-17q-5 10 -8.5 22t-8 17t-18.5 12q-16 8 -57 8h-1464v29q44 15 55 39q6 11 6 63v1385q0 51 -4 59q-5 12 -11 18.5t-10.5 7.5t-15 2.5t-18.5 4.5v20h1425h10q9 -1 18 -1.5
t19.5 0.5t14.5 3z" />
    <glyph glyph-name="Igrave" unicode="&#xcc;" horiz-adv-x="772" 
d="M416 1790l-328 328h338l207 -328h-217zM119 1599v29h473v-26q-57 -19 -64.5 -28.5t-7.5 -68.5v-1372q0 -55 13 -70t75 -30v-33h-475v31q59 21 67 29q8 9 7 48v25v1286v92v27q-1 10 -5 17.5t-14.5 13.5t-17 9.5t-25 10.5t-26.5 10z" />
    <glyph glyph-name="Iacute" unicode="&#xcd;" horiz-adv-x="772" 
d="M90 1788l203 326h342l-330 -326h-215zM119 1599v29h473v-26q-57 -19 -64.5 -28.5t-7.5 -68.5v-1372q0 -55 13 -70t75 -30v-33h-475v31q59 21 67 29q8 9 7 48v25v1286v92v27q-1 10 -5 17.5t-14.5 13.5t-17 9.5t-25 10.5t-26.5 10z" />
    <glyph glyph-name="Icircumflex" unicode="&#xce;" horiz-adv-x="772" 
d="M-27 1790l250 330h277l252 -330h-248l-142 182l-143 -182h-246zM119 1599v29h473v-26q-57 -19 -64.5 -28.5t-7.5 -68.5v-1372q0 -55 13 -70t75 -30v-33h-475v31q59 21 67 29q8 9 7 48v25v1286v92v27q-1 10 -5 17.5t-14.5 13.5t-17 9.5t-25 10.5t-26.5 10z" />
    <glyph glyph-name="Idieresis" unicode="&#xcf;" horiz-adv-x="772" 
d="M6 1788v262h277v-262h-277zM436 2042h285v-254h-285v254zM119 1599v29h473v-26q-57 -19 -64.5 -28.5t-7.5 -68.5v-1372q0 -55 13 -70t75 -30v-33h-475v31q59 21 67 29q8 9 7 48v25v1286v92v27q-1 10 -5 17.5t-14.5 13.5t-17 9.5t-25 10.5t-26.5 10z" />
    <glyph glyph-name="Ntilde" unicode="&#xd1;" horiz-adv-x="2037" 
d="M1208 1993q14 10 22.5 19t11.5 13.5t9 20.5t9 22h143q-41 -185 -141 -241q-37 -21 -82 -23t-82 6.5t-102 28.5q-13 4 -19 6l-39 13q-40 12 -60 17t-53 4.5t-53 -15.5q-17 -13 -23.5 -23t-10.5 -25t-9 -26h-141q10 45 17.5 72t23.5 63.5t42.5 64t63.5 48.5q34 17 65 23
t71 -2t68 -17t87 -31l31 -10q2 -1 19.5 -6.5t21 -6.5t18.5 -5t20 -4.5t17.5 -1.5t19.5 1t16.5 5.5t18.5 9.5zM119 1599l2 31q17 0 33 -2h440v-35l-53 -14v-16l989 -1061v1001q0 61 -2 64q-4 13 -21.5 20.5t-36.5 7.5v33h398v-33q-36 0 -53 -30q-3 -6 -3 -62v-1370
q0 -52 5 -65q6 -15 12 -22.5t10.5 -10t14.5 -5.5t18 -7v-25h-418v31l47 12q6 16 -1 26.5t-30 32.5l-1011 1076v-1055q0 -52 2 -60q9 -18 15.5 -22.5t37.5 -15.5l-4 -23h-391v27q4 1 15 3.5t16.5 4.5t12.5 8.5t11 17.5q6 9 6 62v1366q0 55 -6 67q-6 14 -12.5 22t-10 10
t-15.5 5.5t-17 5.5z" />
    <glyph glyph-name="Ograve" unicode="&#xd2;" horiz-adv-x="2138" 
d="M571 1542q150 72 338 92q55 9 129 5.5t151.5 -13t162 -35.5t162 -60.5t151.5 -88.5t129 -121q66 -80 109 -183t58 -207.5t9 -207.5t-33 -191q-127 -403 -555 -530q-106 -30 -231 -38t-258.5 8t-267.5 71t-238 143q-56 49 -102 111t-75 126t-51 133.5t-29.5 132.5
t-11 123.5t4.5 105.5q28 212 132 366t316 258zM1100 1802l-328 330h338l207 -330h-217zM969 1374q-68 -6 -132 -24.5t-127 -51t-117.5 -85t-92.5 -121.5q-43 -79 -59 -187t2 -223.5t71 -200.5q37 -58 86.5 -103.5t101.5 -72.5t109.5 -47t110.5 -26t103.5 -10t88.5 1
q92 4 184 39.5t176.5 108.5t133.5 172q54 112 40.5 298.5t-85.5 288.5q-53 76 -133.5 130t-164.5 78.5t-159 33.5t-137 2z" />
    <glyph glyph-name="Oacute" unicode="&#xd3;" horiz-adv-x="2138" 
d="M571 1542q150 72 338 92q55 9 129 5.5t151.5 -13t162 -35.5t162 -60.5t151.5 -88.5t129 -121q66 -80 109 -183t58 -207.5t9 -207.5t-33 -191q-127 -403 -555 -530q-106 -30 -231 -38t-258.5 8t-267.5 71t-238 143q-56 49 -102 111t-75 126t-51 133.5t-29.5 132.5
t-11 123.5t4.5 105.5q28 212 132 366t316 258zM774 1800l203 326h342l-328 -326h-217zM969 1374q-68 -6 -132 -24.5t-127 -51t-117.5 -85t-92.5 -121.5q-43 -79 -59 -187t2 -223.5t71 -200.5q37 -58 86.5 -103.5t101.5 -72.5t109.5 -47t110.5 -26t103.5 -10t88.5 1
q92 4 184 39.5t176.5 108.5t133.5 172q54 112 40.5 298.5t-85.5 288.5q-53 76 -133.5 130t-164.5 78.5t-159 33.5t-137 2z" />
    <glyph glyph-name="Ocircumflex" unicode="&#xd4;" horiz-adv-x="2138" 
d="M571 1542q150 72 338 92q55 9 129 5.5t151.5 -13t162 -35.5t162 -60.5t151.5 -88.5t129 -121q66 -80 109 -183t58 -207.5t9 -207.5t-33 -191q-127 -403 -555 -530q-106 -30 -231 -38t-258.5 8t-267.5 71t-238 143q-56 49 -102 111t-75 126t-51 133.5t-29.5 132.5
t-11 123.5t4.5 105.5q28 212 132 366t316 258zM657 1802l250 332h279l250 -332h-248l-141 183l-144 -183h-246zM969 1374q-68 -6 -132 -24.5t-127 -51t-117.5 -85t-92.5 -121.5q-43 -79 -59 -187t2 -223.5t71 -200.5q37 -58 86.5 -103.5t101.5 -72.5t109.5 -47t110.5 -26
t103.5 -10t88.5 1q92 4 184 39.5t176.5 108.5t133.5 172q54 112 40.5 298.5t-85.5 288.5q-53 76 -133.5 130t-164.5 78.5t-159 33.5t-137 2z" />
    <glyph glyph-name="Otilde" unicode="&#xd5;" horiz-adv-x="2138" 
d="M571 1542q150 72 338 92q55 9 129 5.5t151.5 -13t162 -35.5t162 -60.5t151.5 -88.5t129 -121q66 -80 109 -183t58 -207.5t9 -207.5t-33 -191q-127 -403 -555 -530q-106 -30 -231 -38t-258.5 8t-267.5 71t-238 143q-56 49 -102 111t-75 126t-51 133.5t-29.5 132.5
t-11 123.5t4.5 105.5q28 212 132 366t316 258zM1260 2003q14 10 22.5 19t11.5 15.5t8.5 19.5t10.5 22h141q-41 -186 -139 -240q-24 -14 -52.5 -19t-49.5 -5.5t-59 8t-57.5 14.5t-68.5 21l-37 10q-38 13 -60.5 18.5t-55 4.5t-52.5 -17q-16 -13 -22.5 -22.5t-11.5 -25
t-11 -26.5h-139q10 45 17.5 72t24 63.5t43 64t64.5 48.5q45 23 92 24t84 -10t113 -39l33 -12q4 -1 22 -6.5t23.5 -7t20.5 -5t22.5 -3.5t19.5 0.5t22 4t20 9.5zM969 1374q-68 -6 -132 -24.5t-127 -51t-117.5 -85t-92.5 -121.5q-43 -79 -59 -187t2 -223.5t71 -200.5
q37 -58 86.5 -103.5t101.5 -72.5t109.5 -47t110.5 -26t103.5 -10t88.5 1q92 4 184 39.5t176.5 108.5t133.5 172q54 112 40.5 298.5t-85.5 288.5q-53 76 -133.5 130t-164.5 78.5t-159 33.5t-137 2z" />
    <glyph glyph-name="Odieresis" unicode="&#xd6;" horiz-adv-x="2138" 
d="M571 1542q150 72 338 92q55 9 129 5.5t151.5 -13t162 -35.5t162 -60.5t151.5 -88.5t129 -121q66 -80 109 -183t58 -207.5t9 -207.5t-33 -191q-127 -403 -555 -530q-106 -30 -231 -38t-258.5 8t-267.5 71t-238 143q-56 49 -102 111t-75 126t-51 133.5t-29.5 132.5
t-11 123.5t4.5 105.5q28 212 132 366t316 258zM690 1800v264h279v-264h-279zM1120 2054h285v-254h-285v254zM969 1374q-68 -6 -132 -24.5t-127 -51t-117.5 -85t-92.5 -121.5q-43 -79 -59 -187t2 -223.5t71 -200.5q37 -58 86.5 -103.5t101.5 -72.5t109.5 -47t110.5 -26
t103.5 -10t88.5 1q92 4 184 39.5t176.5 108.5t133.5 172q54 112 40.5 298.5t-85.5 288.5q-53 76 -133.5 130t-164.5 78.5t-159 33.5t-137 2z" />
    <glyph glyph-name="Oslash" unicode="&#xd8;" horiz-adv-x="2140" 
d="M1540 1538l135 162h201l-201 -250q362 -315 289 -799q-28 -195 -137 -349t-307 -249q-215 -101 -485.5 -94t-487.5 119l-160 -178h-197l218 272q-79 69 -136.5 150t-90 161t-48 166.5t-14.5 164.5t14 157q33 190 157 351.5t331 248.5q128 55 283 71.5t322 -9.5t314 -95z
M1356 1315q-177 75 -334 71q-78 -2 -154 -20.5t-150 -54.5t-135.5 -98t-97.5 -144q-48 -107 -54.5 -223t33.5 -235.5t126 -221.5zM1487 1225l-762 -928q142 -68 300.5 -75t297.5 54q133 60 216 161t108 225q67 326 -160 563z" />
    <glyph glyph-name="Ugrave" unicode="&#xd9;" horiz-adv-x="2045" 
d="M1053 1790l-328 328h338l207 -328h-217zM119 1597v31h442v-31q-26 0 -38.5 -5.5t-20.5 -28.5q-2 -5 -2 -66v-854q2 -43 0 -79.5t3 -71.5t16.5 -65.5t41.5 -62t78 -59.5q80 -47 226 -63.5t292 0.5t227 63q29 17 51 40t34.5 50.5t20.5 52t10 57.5t2.5 53t-0.5 51.5t-1 41.5
v842q0 52 -6 68q-11 18 -18 23.5t-20 7t-23 5.5v31h442v-35q-7 0 -16 1t-13 1t-9.5 -2.5t-9 -10t-7.5 -21.5q-4 -10 -4 -72v-825q1 -63 1.5 -123.5t-12.5 -123t-36 -118t-69.5 -110t-113.5 -99.5q-117 -77 -345.5 -105t-457.5 -1t-352 98q-40 23 -72.5 49t-56 50t-42 56
t-30.5 56t-20 60.5t-12 59.5t-6.5 63.5t-2.5 61v63.5v17v879q0 3 -5.5 32t-8.5 34q-10 34 -57 34z" />
    <glyph glyph-name="Uacute" unicode="&#xda;" horiz-adv-x="2045" 
d="M727 1788l203 326h342l-330 -326h-215zM119 1597v31h442v-31q-26 0 -38.5 -5.5t-20.5 -28.5q-2 -5 -2 -66v-854q2 -43 0 -79.5t3 -71.5t16.5 -65.5t41.5 -62t78 -59.5q80 -47 226 -63.5t292 0.5t227 63q29 17 51 40t34.5 50.5t20.5 52t10 57.5t2.5 53t-0.5 51.5t-1 41.5
v842q0 52 -6 68q-11 18 -18 23.5t-20 7t-23 5.5v31h442v-35q-7 0 -16 1t-13 1t-9.5 -2.5t-9 -10t-7.5 -21.5q-4 -10 -4 -72v-825q1 -63 1.5 -123.5t-12.5 -123t-36 -118t-69.5 -110t-113.5 -99.5q-117 -77 -345.5 -105t-457.5 -1t-352 98q-40 23 -72.5 49t-56 50t-42 56
t-30.5 56t-20 60.5t-12 59.5t-6.5 63.5t-2.5 61v63.5v17v879q0 3 -5.5 32t-8.5 34q-10 34 -57 34z" />
    <glyph glyph-name="Ucircumflex" unicode="&#xdb;" horiz-adv-x="2045" 
d="M610 1790l250 330h279l250 -330h-248l-142 182l-143 -182h-246zM119 1597v31h442v-31q-26 0 -38.5 -5.5t-20.5 -28.5q-2 -5 -2 -66v-854q2 -43 0 -79.5t3 -71.5t16.5 -65.5t41.5 -62t78 -59.5q80 -47 226 -63.5t292 0.5t227 63q29 17 51 40t34.5 50.5t20.5 52t10 57.5
t2.5 53t-0.5 51.5t-1 41.5v842q0 52 -6 68q-11 18 -18 23.5t-20 7t-23 5.5v31h442v-35q-7 0 -16 1t-13 1t-9.5 -2.5t-9 -10t-7.5 -21.5q-4 -10 -4 -72v-825q1 -63 1.5 -123.5t-12.5 -123t-36 -118t-69.5 -110t-113.5 -99.5q-117 -77 -345.5 -105t-457.5 -1t-352 98
q-40 23 -72.5 49t-56 50t-42 56t-30.5 56t-20 60.5t-12 59.5t-6.5 63.5t-2.5 61v63.5v17v879q0 3 -5.5 32t-8.5 34q-10 34 -57 34z" />
    <glyph glyph-name="Udieresis" unicode="&#xdc;" horiz-adv-x="2045" 
d="M643 1788v262h277v-262h-277zM1073 2042h285v-254h-285v254zM119 1597v31h442v-31q-26 0 -38.5 -5.5t-20.5 -28.5q-2 -5 -2 -66v-854q2 -43 0 -79.5t3 -71.5t16.5 -65.5t41.5 -62t78 -59.5q80 -47 226 -63.5t292 0.5t227 63q29 17 51 40t34.5 50.5t20.5 52t10 57.5
t2.5 53t-0.5 51.5t-1 41.5v842q0 52 -6 68q-11 18 -18 23.5t-20 7t-23 5.5v31h442v-35q-7 0 -16 1t-13 1t-9.5 -2.5t-9 -10t-7.5 -21.5q-4 -10 -4 -72v-825q1 -63 1.5 -123.5t-12.5 -123t-36 -118t-69.5 -110t-113.5 -99.5q-117 -77 -345.5 -105t-457.5 -1t-352 98
q-40 23 -72.5 49t-56 50t-42 56t-30.5 56t-20 60.5t-12 59.5t-6.5 63.5t-2.5 61v63.5v17v879q0 3 -5.5 32t-8.5 34q-10 34 -57 34z" />
    <glyph glyph-name="agrave" unicode="&#xe0;" horiz-adv-x="1826" 
d="M946 1497l-330 328h338l207 -328h-215zM690 1327v35h387v-35l-24 -12q0 -27 16 -53l539 -1170q2 -3 9.5 -19.5t12 -24.5t14 -16.5t19.5 -8.5l-2 -23h-358v23l24 24q0 10 -2 19.5t-6 23t-6 21.5l-45 92q-15 31 -17 39l-61 123h-631l-53 -111l-53 -121q-5 -12 -11 -26.5
t-9.5 -24t-4.5 -10.5q-7 -17 3 -30t30 -13v-29h-342v29q24 0 34.5 13t26.5 50l522 1180q4 8 7 18.5t3 17.5l1 7zM866 1071l-213 -493h437z" />
    <glyph glyph-name="aacute" unicode="&#xe1;" horiz-adv-x="1826" 
d="M618 1495l203 326h342l-327 -326h-218zM690 1327v35h387v-35l-24 -12q0 -27 16 -53l539 -1170q2 -3 9.5 -19.5t12 -24.5t14 -16.5t19.5 -8.5l-2 -23h-358v23l24 24q0 10 -2 19.5t-6 23t-6 21.5l-45 92q-15 31 -17 39l-61 123h-631l-53 -111l-53 -121q-5 -12 -11 -26.5
t-9.5 -24t-4.5 -10.5q-7 -17 3 -30t30 -13v-29h-342v29q24 0 34.5 13t26.5 50l522 1180q4 8 7 18.5t3 17.5l1 7zM866 1071l-213 -493h437z" />
    <glyph glyph-name="acircumflex" unicode="&#xe2;" horiz-adv-x="1826" 
d="M502 1497l250 330h278l250 -330h-248l-141 182l-143 -182h-246zM690 1327v35h387v-35l-24 -12q0 -27 16 -53l539 -1170q2 -3 9.5 -19.5t12 -24.5t14 -16.5t19.5 -8.5l-2 -23h-358v23l24 24q0 10 -2 19.5t-6 23t-6 21.5l-45 92q-15 31 -17 39l-61 123h-631l-53 -111
l-53 -121q-5 -12 -11 -26.5t-9.5 -24t-4.5 -10.5q-7 -17 3 -30t30 -13v-29h-342v29q24 0 34.5 13t26.5 50l522 1180q4 8 7 18.5t3 17.5l1 7zM866 1071l-213 -493h437z" />
    <glyph glyph-name="atilde" unicode="&#xe3;" horiz-adv-x="1826" 
d="M1106 1698q13 10 21 19t11 14.5t8.5 19.5t10.5 23h141q-41 -185 -139 -242q-37 -21 -82 -23t-80.5 6t-101.5 28q-15 5 -23 7l-36 13q-43 12 -61.5 17t-52.5 4.5t-54 -15.5q-16 -13 -22.5 -23t-11 -24.5t-9.5 -24.5h-142q7 34 13 56t18 53t26.5 52.5t38 44.5t54.5 40
q45 23 92 24t85 -10.5t114 -40.5l30 -10q39 -13 55.5 -18t46 -4.5t50.5 14.5zM690 1327v35h387v-35l-24 -12q0 -27 16 -53l539 -1170q2 -3 9.5 -19.5t12 -24.5t14 -16.5t19.5 -8.5l-2 -23h-358v23l24 24q0 10 -2 19.5t-6 23t-6 21.5l-45 92q-15 31 -17 39l-61 123h-631
l-53 -111l-53 -121q-5 -12 -11 -26.5t-9.5 -24t-4.5 -10.5q-7 -17 3 -30t30 -13v-29h-342v29q24 0 34.5 13t26.5 50l522 1180q4 8 7 18.5t3 17.5l1 7zM866 1071l-213 -493h437z" />
    <glyph glyph-name="adieresis" unicode="&#xe4;" horiz-adv-x="1826" 
d="M537 1495v262h276v-262h-276zM965 1749h284v-254h-284v254zM690 1327v35h387v-35l-24 -12q0 -27 16 -53l539 -1170q2 -3 9.5 -19.5t12 -24.5t14 -16.5t19.5 -8.5l-2 -23h-358v23l24 24q0 10 -2 19.5t-6 23t-6 21.5l-45 92q-15 31 -17 39l-61 123h-631l-53 -111l-53 -121
q-5 -12 -11 -26.5t-9.5 -24t-4.5 -10.5q-7 -17 3 -30t30 -13v-29h-342v29q24 0 34.5 13t26.5 50l522 1180q4 8 7 18.5t3 17.5l1 7zM866 1071l-213 -493h437z" />
    <glyph glyph-name="aring" unicode="&#xe5;" horiz-adv-x="1826" 
d="M657 2157q55 31 146 47q53 6 124.5 -0.5t158.5 -37.5t135 -85q59 -68 78.5 -161.5t-3.5 -164.5q-23 -90 -78.5 -146t-148.5 -87q-67 -23 -147 -27.5t-168 17.5t-150 71q-68 55 -103 134.5t-26 164.5q5 79 51.5 154.5t130.5 120.5zM786 2087q-156 -48 -178 -195
q-11 -56 9 -119t71 -106q42 -35 104 -51t120.5 -12.5t107.5 20.5q66 24 107 68t53 100q10 63 -6 125t-66 108q-40 36 -102 56t-117.5 19t-102.5 -13zM690 1327v35h387v-35l-24 -12q0 -27 16 -53l539 -1170q2 -3 9.5 -19.5t12 -24.5t14 -16.5t19.5 -8.5l-2 -23h-358v23l24 24
q0 10 -2 19.5t-6 23t-6 21.5l-45 92q-15 31 -17 39l-61 123h-631l-53 -111l-53 -121q-5 -12 -11 -26.5t-9.5 -24t-4.5 -10.5q-7 -17 3 -30t30 -13v-29h-342v29q24 0 34.5 13t26.5 50l522 1180q4 8 7 18.5t3 17.5l1 7zM866 1071l-213 -493h437z" />
    <glyph glyph-name="ae" unicode="&#xe6;" horiz-adv-x="2428" 
d="M2210 1364l16 18h27v-274l-29 2q-6 16 -14 22t-27 11q-7 2 -49 2h-719v-336h477l15 18l28 -2v-276l-28 -2q-5 13 -9 18t-17.5 8t-20.5 5h-56h-389v-355h737h48q14 0 21 5.5t13 25.5l29 -2v-285h-29q-9 27 -34 27l-48 6h-1044v29q33 0 33 34q2 6 2 52v37v94v143h-500
q-7 2 -31 2l-172 -313q-10 -18 -10 -37l29 -14v-27h-340v29q14 6 20.5 9t12.5 8.5t8 9t9 17t15 25.5l611 1125l32 61q7 19 -1 30t-33 21l2 29h1415zM1069 1225l-336 -621h410v621h-74z" />
    <glyph glyph-name="egrave" unicode="&#xe8;" horiz-adv-x="1607" 
d="M1389 1364l8 14h22v-276h-24l-6 18q-20 15 -72 15h-885v-338h586q41 0 53 12l6 16h25v-274l-31 16q-19 17 -65 17h-570v-361h899q2 0 11 -0.5t15.5 0t15.5 1t16.5 3t13.5 6.5l8 19l25 -4v-277h-25l-8 19q-30 10 -55 10h-1229v29q39 0 39 34q2 5 2 52v1110q0 7 -2 28
t-2 31q-1 1 -3.5 15.5t-4.5 17.5q-18 10 -33 16l2 25h1220q35 0 48 6zM836 1518l-330 327h338l207 -327h-215z" />
    <glyph glyph-name="eacute" unicode="&#xe9;" horiz-adv-x="1607" 
d="M1389 1364l8 14h22v-276h-24l-6 18q-20 15 -72 15h-885v-338h586q41 0 53 12l6 16h25v-274l-31 16q-19 17 -65 17h-570v-361h899q2 0 11 -0.5t15.5 0t15.5 1t16.5 3t13.5 6.5l8 19l25 -4v-277h-25l-8 19q-30 10 -55 10h-1229v29q39 0 39 34q2 5 2 52v1110q0 7 -2 28
t-2 31q-1 1 -3.5 15.5t-4.5 17.5q-18 10 -33 16l2 25h1220q35 0 48 6zM508 1516l203 325h342l-328 -325h-217z" />
    <glyph glyph-name="ecircumflex" unicode="&#xea;" horiz-adv-x="1607" 
d="M1389 1364l8 14h22v-276h-24l-6 18q-20 15 -72 15h-885v-338h586q41 0 53 12l6 16h25v-274l-31 16q-19 17 -65 17h-570v-361h899q2 0 11 -0.5t15.5 0t15.5 1t16.5 3t13.5 6.5l8 19l25 -4v-277h-25l-8 19q-30 10 -55 10h-1229v29q39 0 39 34q2 5 2 52v1110q0 7 -2 28
t-2 31q-1 1 -3.5 15.5t-4.5 17.5q-18 10 -33 16l2 25h1220q35 0 48 6zM391 1518l250 329h277l251 -329h-245l-144 182l-143 -182h-246z" />
    <glyph glyph-name="edieresis" unicode="&#xeb;" horiz-adv-x="1607" 
d="M1389 1364l8 14h22v-276h-24l-6 18q-20 15 -72 15h-885v-338h586q41 0 53 12l6 16h25v-274l-31 16q-19 17 -65 17h-570v-361h899q2 0 11 -0.5t15.5 0t15.5 1t16.5 3t13.5 6.5l8 19l25 -4v-277h-25l-8 19q-30 10 -55 10h-1229v29q39 0 39 34q2 5 2 52v1110q0 7 -2 28
t-2 31q-1 1 -3.5 15.5t-4.5 17.5q-18 10 -33 16l2 25h1220q35 0 48 6zM426 1516v262h276v-262h-276zM856 1769h283v-253h-283v253z" />
    <glyph glyph-name="igrave" unicode="&#xec;" horiz-adv-x="669" 
d="M377 1489l-330 330h338l207 -330h-215zM127 1366h379v-41q-18 0 -29.5 -6.5t-19.5 -30.5q-6 -14 -6 -63v-1084q0 -53 2 -67q9 -26 15.5 -32t37.5 -15l-4 -27h-381v31q11 0 16 0.5t13.5 3t14.5 9.5t11 19q6 11 6 66v1098q0 49 -6 63q-6 16 -14.5 25t-16 10.5t-18.5 1.5v39
z" />
    <glyph glyph-name="iacute" unicode="&#xed;" horiz-adv-x="669" 
d="M49 1487l203 328h342l-328 -328h-217zM127 1366h379v-41q-18 0 -29.5 -6.5t-19.5 -30.5q-6 -14 -6 -63v-1084q0 -53 2 -67q9 -26 15.5 -32t37.5 -15l-4 -27h-381v31q11 0 16 0.5t13.5 3t14.5 9.5t11 19q6 11 6 66v1098q0 49 -6 63q-6 16 -14.5 25t-16 10.5t-18.5 1.5v39z
" />
    <glyph glyph-name="icircumflex" unicode="&#xee;" horiz-adv-x="669" 
d="M-68 1489l250 332h277l252 -332h-248l-141 182l-144 -182h-246zM127 1366h379v-41q-18 0 -29.5 -6.5t-19.5 -30.5q-6 -14 -6 -63v-1084q0 -53 2 -67q9 -26 15.5 -32t37.5 -15l-4 -27h-381v31q11 0 16 0.5t13.5 3t14.5 9.5t11 19q6 11 6 66v1098q0 49 -6 63
q-6 16 -14.5 25t-16 10.5t-18.5 1.5v39z" />
    <glyph glyph-name="idieresis" unicode="&#xef;" horiz-adv-x="669" 
d="M-33 1487v264h277v-264h-277zM395 1743h285v-256h-285v256zM127 1366h379v-41q-18 0 -29.5 -6.5t-19.5 -30.5q-6 -14 -6 -63v-1084q0 -53 2 -67q9 -26 15.5 -32t37.5 -15l-4 -27h-381v31q11 0 16 0.5t13.5 3t14.5 9.5t11 19q6 11 6 66v1098q0 49 -6 63q-6 16 -14.5 25
t-16 10.5t-18.5 1.5v39z" />
    <glyph glyph-name="ntilde" unicode="&#xf1;" horiz-adv-x="1753" 
d="M121 1335v31h377l2 -29l-23 -14v-18l838 -897v823q0 9 -1 28.5t-1 28.5t-1 15t-5.5 10.5t-6.5 6t-12.5 6.5t-13.5 7v29h313v-35h-18q-9 -7 -14.5 -15.5t-7 -19t-2 -17.5t0 -18t0.5 -12v-1122l2 -55q8 -29 17 -35q8 -6 24 -6v-27h-336l2 27l27 16q0 7 -2 12.5t-3.5 8
t-7.5 9t-9 9.5l-871 926v-885q2 -5 2 -45v-6.5v-6.5t0.5 -6t1.5 -7t3 -6.5t5.5 -7t8.5 -7.5l18 -4v-27h-309v29q20 0 27.5 9t7.5 32q0 45 2 59v1114q0 33 -4 51q0 41 -31 41zM1067 1704q18 12 25.5 21.5t14 27.5t11.5 27h142q-14 -71 -47.5 -139t-92.5 -101
q-30 -17 -59.5 -23t-72.5 1t-67 13.5t-85 24.5l-39 13q-36 12 -58.5 18t-55 5t-52.5 -17q-17 -13 -23.5 -23t-10.5 -24.5t-9 -24.5h-142q17 88 47 147t101 99q45 23 92.5 24t84.5 -9.5t114 -39.5l30 -12q40 -13 56 -17.5t45 -4.5t51 14z" />
    <glyph glyph-name="ograve" unicode="&#xf2;" horiz-adv-x="1953" 
d="M510 1292q83 38 145.5 54.5t159.5 27.5q43 7 109 4t137.5 -10t152 -28t154 -49.5t142.5 -75.5t118 -105q59 -72 97 -157.5t51.5 -170.5t9.5 -167t-27 -154q-56 -182 -172 -288.5t-313 -164.5q-102 -29 -212 -41t-234 -3.5t-248 56.5t-222 134q-131 114 -192.5 288.5
t-42.5 315.5q24 174 119 312t268 222zM1008 1520l-328 327h338l207 -327h-217zM766 1143q-168 -40 -258 -128.5t-121 -246.5q-21 -106 14 -232t131 -212q83 -72 206.5 -106.5t240.5 -31t213 34.5q128 37 214.5 120t115.5 202q25 98 -3.5 235.5t-111.5 220.5q-62 62 -150 101
t-177.5 51t-170 10t-143.5 -18z" />
    <glyph glyph-name="oacute" unicode="&#xf3;" horiz-adv-x="1953" 
d="M510 1292q83 38 145.5 54.5t159.5 27.5q43 7 109 4t137.5 -10t152 -28t154 -49.5t142.5 -75.5t118 -105q59 -72 97 -157.5t51.5 -170.5t9.5 -167t-27 -154q-56 -182 -172 -288.5t-313 -164.5q-102 -29 -212 -41t-234 -3.5t-248 56.5t-222 134q-131 114 -192.5 288.5
t-42.5 315.5q24 174 119 312t268 222zM682 1518l203 325h342l-330 -325h-215zM766 1143q-168 -40 -258 -128.5t-121 -246.5q-21 -106 14 -232t131 -212q83 -72 206.5 -106.5t240.5 -31t213 34.5q128 37 214.5 120t115.5 202q25 98 -3.5 235.5t-111.5 220.5q-62 62 -150 101
t-177.5 51t-170 10t-143.5 -18z" />
    <glyph glyph-name="ocircumflex" unicode="&#xf4;" horiz-adv-x="1953" 
d="M510 1292q83 38 145.5 54.5t159.5 27.5q43 7 109 4t137.5 -10t152 -28t154 -49.5t142.5 -75.5t118 -105q59 -72 97 -157.5t51.5 -170.5t9.5 -167t-27 -154q-56 -182 -172 -288.5t-313 -164.5q-102 -29 -212 -41t-234 -3.5t-248 56.5t-222 134q-131 114 -192.5 288.5
t-42.5 315.5q24 174 119 312t268 222zM565 1520l250 329h279l249 -329h-247l-142 182l-143 -182h-246zM766 1143q-168 -40 -258 -128.5t-121 -246.5q-21 -106 14 -232t131 -212q83 -72 206.5 -106.5t240.5 -31t213 34.5q128 37 214.5 120t115.5 202q25 98 -3.5 235.5
t-111.5 220.5q-62 62 -150 101t-177.5 51t-170 10t-143.5 -18z" />
    <glyph glyph-name="otilde" unicode="&#xf5;" horiz-adv-x="1953" 
d="M510 1292q83 38 145.5 54.5t159.5 27.5q43 7 109 4t137.5 -10t152 -28t154 -49.5t142.5 -75.5t118 -105q59 -72 97 -157.5t51.5 -170.5t9.5 -167t-27 -154q-56 -182 -172 -288.5t-313 -164.5q-102 -29 -212 -41t-234 -3.5t-248 56.5t-222 134q-131 114 -192.5 288.5
t-42.5 315.5q24 174 119 312t268 222zM1167 1720q14 10 22.5 19t12 14.5t9.5 20t10 22.5h141q-41 -185 -139 -242q-37 -21 -82 -22.5t-82.5 7t-100.5 27.5q-14 5 -22 7l-39 12q-40 12 -60 17t-53 4.5t-53 -15.5q-16 -13 -22.5 -22.5t-11 -25t-9.5 -25.5h-141q9 45 17 72
t24.5 63t43 63.5t64.5 48.5q45 23 91.5 24t85 -10t112.5 -40l33 -10q3 -1 19 -6.5t20.5 -7t18 -5.5t19.5 -4t17.5 -1t19 1t17 5t18.5 9zM766 1143q-168 -40 -258 -128.5t-121 -246.5q-21 -106 14 -232t131 -212q83 -72 206.5 -106.5t240.5 -31t213 34.5q128 37 214.5 120
t115.5 202q25 98 -3.5 235.5t-111.5 220.5q-62 62 -150 101t-177.5 51t-170 10t-143.5 -18z" />
    <glyph glyph-name="odieresis" unicode="&#xf6;" horiz-adv-x="1953" 
d="M510 1292q83 38 145.5 54.5t159.5 27.5q43 7 109 4t137.5 -10t152 -28t154 -49.5t142.5 -75.5t118 -105q59 -72 97 -157.5t51.5 -170.5t9.5 -167t-27 -154q-56 -182 -172 -288.5t-313 -164.5q-102 -29 -212 -41t-234 -3.5t-248 56.5t-222 134q-131 114 -192.5 288.5
t-42.5 315.5q24 174 119 312t268 222zM598 1518v262h276v-262h-276zM1028 1778h285v-260h-285v260zM766 1143q-168 -40 -258 -128.5t-121 -246.5q-21 -106 14 -232t131 -212q83 -72 206.5 -106.5t240.5 -31t213 34.5q128 37 214.5 120t115.5 202q25 98 -3.5 235.5
t-111.5 220.5q-62 62 -150 101t-177.5 51t-170 10t-143.5 -18z" />
    <glyph glyph-name="divide" unicode="&#xf7;" horiz-adv-x="1396" 
d="M119 -31l960 1659h154l-965 -1659h-149z" />
    <glyph glyph-name="oslash" unicode="&#xf8;" horiz-adv-x="1953" 
d="M1366 1303l123 147h190l-178 -219q163 -130 229.5 -289t53.5 -321q-5 -67 -26 -138.5t-59 -145t-101 -140.5t-142 -113q-125 -74 -296 -102.5t-337 -11.5t-297 73l-135 -158h-188l192 234q-153 130 -222.5 313t-49.5 332q55 374 395 530q189 89 414.5 89t433.5 -80z
M1212 1120q-97 33 -211.5 42t-187.5 -7q-155 -30 -258.5 -107.5t-148.5 -222.5q-18 -58 -20.5 -121t12 -129.5t53 -134.5t98.5 -127zM1348 1049l-664 -816q104 -38 219 -48.5t240 18t219 100.5q109 86 144.5 192.5t23.5 229.5q-7 89 -46.5 166.5t-135.5 157.5z" />
    <glyph glyph-name="ugrave" unicode="&#xf9;" horiz-adv-x="1755" 
d="M121 1327v35h358v-35q-14 0 -22 -6t-17 -27q-2 -6 -2 -55v-639q0 -9 -1 -42t-0.5 -52t3 -52.5t11 -57t21 -51t35 -50t52.5 -39.5q56 -32 180.5 -44.5t250.5 0.5t184 48q29 17 50 39t32.5 47.5t19 49t9 54t2 51t-1 50.5t-1.5 43v651q0 35 -4 51q-2 5 -3.5 8.5t-2.5 6
t-3.5 4.5t-3.5 3t-5.5 2.5t-6.5 2t-9 2t-11 2.5l4 31h352v-33q-21 0 -26.5 -4.5t-16.5 -28.5q-2 -6 -2 -59v-651q0 -6 0.5 -46.5t0 -52.5t-2.5 -52t-5.5 -57.5t-11 -54t-18 -57t-26.5 -51.5t-36.5 -52.5t-48 -45.5t-61.5 -43q-102 -59 -283.5 -83.5t-369.5 -3.5t-297 85
q-39 23 -70.5 49t-53.5 52t-38 55t-25.5 58t-15.5 59.5t-7.5 61t-2.5 62t0 62.5v32v672q0 10 -4 31.5t-4 31.5q-5 19 -13.5 26t-31.5 7zM909 1497l-327 328h336l206 -328h-215z" />
    <glyph glyph-name="uacute" unicode="&#xfa;" horiz-adv-x="1755" 
d="M121 1327v35h358v-35q-14 0 -22 -6t-17 -27q-2 -6 -2 -55v-639q0 -9 -1 -42t-0.5 -52t3 -52.5t11 -57t21 -51t35 -50t52.5 -39.5q56 -32 180.5 -44.5t250.5 0.5t184 48q29 17 50 39t32.5 47.5t19 49t9 54t2 51t-1 50.5t-1.5 43v651q0 35 -4 51q-2 5 -3.5 8.5t-2.5 6
t-3.5 4.5t-3.5 3t-5.5 2.5t-6.5 2t-9 2t-11 2.5l4 31h352v-33q-21 0 -26.5 -4.5t-16.5 -28.5q-2 -6 -2 -59v-651q0 -6 0.5 -46.5t0 -52.5t-2.5 -52t-5.5 -57.5t-11 -54t-18 -57t-26.5 -51.5t-36.5 -52.5t-48 -45.5t-61.5 -43q-102 -59 -283.5 -83.5t-369.5 -3.5t-297 85
q-39 23 -70.5 49t-53.5 52t-38 55t-25.5 58t-15.5 59.5t-7.5 61t-2.5 62t0 62.5v32v672q0 10 -4 31.5t-4 31.5q-5 19 -13.5 26t-31.5 7zM584 1495l202 326h342l-329 -326h-215z" />
    <glyph glyph-name="ucircumflex" unicode="&#xfb;" horiz-adv-x="1755" 
d="M121 1327v35h358v-35q-14 0 -22 -6t-17 -27q-2 -6 -2 -55v-639q0 -9 -1 -42t-0.5 -52t3 -52.5t11 -57t21 -51t35 -50t52.5 -39.5q56 -32 180.5 -44.5t250.5 0.5t184 48q29 17 50 39t32.5 47.5t19 49t9 54t2 51t-1 50.5t-1.5 43v651q0 35 -4 51q-2 5 -3.5 8.5t-2.5 6
t-3.5 4.5t-3.5 3t-5.5 2.5t-6.5 2t-9 2t-11 2.5l4 31h352v-33q-21 0 -26.5 -4.5t-16.5 -28.5q-2 -6 -2 -59v-651q0 -6 0.5 -46.5t0 -52.5t-2.5 -52t-5.5 -57.5t-11 -54t-18 -57t-26.5 -51.5t-36.5 -52.5t-48 -45.5t-61.5 -43q-102 -59 -283.5 -83.5t-369.5 -3.5t-297 85
q-39 23 -70.5 49t-53.5 52t-38 55t-25.5 58t-15.5 59.5t-7.5 61t-2.5 62t0 62.5v32v672q0 10 -4 31.5t-4 31.5q-5 19 -13.5 26t-31.5 7zM465 1497l250 330h278l252 -330h-248l-141 182l-145 -182h-246z" />
    <glyph glyph-name="udieresis" unicode="&#xfc;" horiz-adv-x="1755" 
d="M121 1327v35h358v-35q-14 0 -22 -6t-17 -27q-2 -6 -2 -55v-639q0 -9 -1 -42t-0.5 -52t3 -52.5t11 -57t21 -51t35 -50t52.5 -39.5q56 -32 180.5 -44.5t250.5 0.5t184 48q29 17 50 39t32.5 47.5t19 49t9 54t2 51t-1 50.5t-1.5 43v651q0 35 -4 51q-2 5 -3.5 8.5t-2.5 6
t-3.5 4.5t-3.5 3t-5.5 2.5t-6.5 2t-9 2t-11 2.5l4 31h352v-33q-21 0 -26.5 -4.5t-16.5 -28.5q-2 -6 -2 -59v-651q0 -6 0.5 -46.5t0 -52.5t-2.5 -52t-5.5 -57.5t-11 -54t-18 -57t-26.5 -51.5t-36.5 -52.5t-48 -45.5t-61.5 -43q-102 -59 -283.5 -83.5t-369.5 -3.5t-297 85
q-39 23 -70.5 49t-53.5 52t-38 55t-25.5 58t-15.5 59.5t-7.5 61t-2.5 62t0 62.5v32v672q0 10 -4 31.5t-4 31.5q-5 19 -13.5 26t-31.5 7zM500 1495v262h276v-262h-276zM930 1749h282v-254h-282v254z" />
    <glyph glyph-name="ydieresis" unicode="&#xff;" horiz-adv-x="1724" 
d="M123 1333v31h387v-31l-29 -12q-3 -10 2 -21t16.5 -25.5t14.5 -19.5l348 -450l363 495l-2 23l-27 12v29h365v-29q-9 0 -14.5 -1.5t-11 -6t-8 -7t-8.5 -12t-10 -14.5l-516 -710v-475q1 -4 1.5 -23t2.5 -25q0 -8 1.5 -14t6 -9t7.5 -4.5t10 -3t8 -1.5v-29h-340v31q35 0 35 39
v51v442l-545 721q-16 26 -25.5 33.5t-31.5 15.5zM483 1497v262h277v-262h-277zM913 1751h285v-254h-285v254z" />
    <glyph glyph-name="dotlessi" unicode="&#x131;" horiz-adv-x="669" 
d="M127 1366h379v-41q-18 0 -29.5 -6.5t-19.5 -30.5q-6 -14 -6 -63v-1084q0 -53 2 -67q9 -26 15.5 -32t37.5 -15l-4 -27h-381v31q11 0 16 0.5t13.5 3t14.5 9.5t11 19q6 11 6 66v1098q0 49 -6 63q-6 16 -14.5 25t-16 10.5t-18.5 1.5v39z" />
    <glyph glyph-name="OE" unicode="&#x152;" horiz-adv-x="2465" 
d="M2220 1628q18 6 23.5 12.5t6 18.5t3.5 20h26v-383l-28 4q0 17 -10.5 34.5t-28.5 17.5q-19 7 -38.5 4.5t-25.5 1.5h-32q-6 2 -13.5 2t-15.5 -1t-12 -1h-625v-400h324h53h47q49 0 61 3q20 8 25.5 16t5.5 33h31v-371l-31 2q0 19 -5.5 27.5t-25.5 15.5q-51 6 -55 6h-108h-322
v-426h719l17 -1q17 -1 29.5 -0.5t16.5 3.5q25 9 32 19.5t7 36.5h29v-383h-27q-3 8 -4 20t-5.5 19.5t-20.5 13.5q-16 8 -64 8h-1253q-193 7 -272 23q-190 36 -316 174q-54 60 -102 141q-119 209 -117.5 479t119.5 479q44 75 97.5 132t115.5 92.5t121.5 58t133.5 33t131 13.5
t134 3h1188h6q6 -1 13.5 -1.5t16 -1t15.5 0t10 2.5zM766 1356q-112 -18 -188 -84q-57 -52 -92.5 -145.5t-45 -189t-10 -166.5t5.5 -107q17 -117 77 -218.5t167 -148.5q49 -23 185 -28t188 24q25 16 42.5 42.5t26 52t12.5 59.5t3.5 55.5t-1.5 50t-1 33.5v475q0 3 0.5 34
t0 46.5t-3.5 47.5t-8.5 52t-17 43t-27.5 37q-25 21 -96.5 30.5t-131.5 9t-85 -4.5z" />
    <glyph glyph-name="oe" unicode="&#x153;" horiz-adv-x="2383" 
d="M2167 1362l4 20l31 -4v-280h-27l-6 20q-8 8 -19.5 12t-16.5 5t-21 1l-17 -1h-733v-338h485l11 20h28v-274h-28q-5 13 -7.5 17t-9 7.5t-18.5 3.5q-8 2 -49 2h-412v-350h735q45 0 51 2q13 0 26 9.5t13 25.5h33v-291h-31l-8 21q-9 5 -18 7.5t-13 3t-16 0t-16 -0.5h-1330h-9
q-47 0 -70.5 0.5t-67 2.5t-69 6.5t-65 13.5t-66 21.5t-60.5 32.5t-60 45.5t-54 60t-52 77.5q-94 169 -96.5 424.5t94.5 427.5q31 52 66.5 92t69 66.5t77.5 44.5t78 27.5t85.5 14t86 5.5t92.5 0h1399zM707 1143q-108 -7 -181 -60q-49 -34 -81.5 -97t-45 -132.5t-16.5 -121.5
t-2 -91q3 -48 14 -97t32 -106t61 -105.5t94 -76.5q72 -38 212.5 -39.5t211.5 37.5q22 13 38.5 33t25.5 45.5t15 49t8 53t2.5 47t-0.5 41t-1 26.5v254v18.5v25t-0.5 27.5t-1.5 31.5t-3.5 32t-5.5 33.5t-7.5 31t-10.5 30.5t-14.5 25t-18.5 21.5q-34 34 -104 50.5t-126.5 15
t-94.5 -1.5z" />
    <glyph glyph-name="Ydieresis" unicode="&#x178;" horiz-adv-x="2015" 
d="M711 1784l200 327h344l-327 -327h-217zM119 1597v31h485l-4 -31l-27 -10v-20l428 -594l402 559q4 9 9 17t7.5 11.5t4 10t1.5 16.5l-34 19v22h452v-31q-51 -18 -67 -29.5t-56 -64.5l-557 -796v-594q0 -50 2 -60q6 -14 10.5 -18.5t17.5 -6.5t21 -5l-2 -23h-424v23
q36 0 50 30q2 6 2.5 31.5t1.5 28.5v557l-617 852q-7 9 -15 20.5t-11 15.5l-7.5 10t-7.5 7.5t-6.5 4.5t-9 3.5t-11.5 2.5t-16.5 5t-21.5 6z" />
    <glyph glyph-name="florin" unicode="&#x192;" horiz-adv-x="1957" 
d="M1683 1546l13 -6.5t14 -6.5t16.5 -0.5t26.5 7.5l41 -20l-104 -330l-60 16q-15 63 -42 101t-89 65q-96 43 -172 0q-29 -16 -51.5 -41t-35.5 -48.5t-24 -57.5t-15 -55t-9.5 -55.5t-7.5 -45.5l-15 -108h328v-230h-379l-108 -575q-24 -134 -38 -178q-55 -175 -209 -235
q-1 0 -3 -1q-126 -52 -291 -31q-90 13 -147 43q-66 39 -74 45q-16 7 -27 15t-18 10t-29 2l-12 -8l-43 18l106 326l58 -23q15 -66 37 -98.5t81 -58.5q40 -18 92 -15t97 27q19 11 35.5 28t28.5 34t22.5 43t16.5 44t12.5 48t9 44t7 43t5.5 35l70 428h-324v224h365l47 209
q34 172 52 225q43 124 138 184q53 33 129 55q126 32 275 -4q81 -16 135 -47z" />
    <glyph glyph-name="circumflex" unicode="&#x2c6;" horiz-adv-x="1062" 
d="M119 1493l250 330h278l250 -330h-246l-143 182l-143 -182h-246z" />
    <glyph glyph-name="breve" unicode="&#x2d8;" horiz-adv-x="1030" 
d="M266 1540q-76 50 -107 117t-40 160q115 0 145 -2q21 -72 54 -106.5t100 -47.5q24 -5 56 -6.5t71 2t76.5 20t60.5 43.5q14 15 20.5 25t8.5 15t4.5 18t7.5 26q107 0 141 -2q-11 -65 -30.5 -114t-62.5 -96.5t-107 -73.5q-45 -19 -117.5 -26.5t-152.5 4t-128 44.5z" />
    <glyph glyph-name="dotaccent" unicode="&#x2d9;" horiz-adv-x="577" 
d="M326 1327l-160 -330h-47l78 398q1 5 6.5 40t12 62t17.5 60t29 54.5t41 26.5q62 8 96 -36q20 -32 0.5 -96t-44.5 -119.5t-29 -59.5z" />
    <glyph glyph-name="ring" unicode="&#x2da;" horiz-adv-x="1118" 
d="M301 1724q59 33 148 48q53 6 123.5 -0.5t157 -37.5t134.5 -85q61 -68 80.5 -161t-4.5 -165q-23 -90 -78 -146t-149 -87q-66 -23 -146 -27.5t-168 17.5t-151 71q-68 54 -102 133.5t-27 165.5q7 80 52.5 155t129.5 119zM430 1655q-153 -47 -178 -195q-11 -57 9 -119.5
t73 -105.5q41 -35 102.5 -51t120 -12.5t107.5 20.5q66 24 107 69t52 101q12 60 -4.5 122.5t-66.5 108.5q-40 36 -101.5 56t-117 19t-103.5 -13z" />
    <glyph glyph-name="tilde" unicode="&#x2dc;" horiz-adv-x="1097" 
d="M741 1714q13 10 21.5 20t11.5 15.5t9 19.5t10 23h139q-36 -186 -137 -242q-24 -14 -52.5 -19t-49.5 -5.5t-59 8t-57.5 14.5t-68.5 21l-37 10q-38 13 -60.5 18.5t-55 5t-52.5 -15.5q-16 -14 -22.5 -24t-11.5 -25.5t-11 -26.5h-139q9 45 17 73t24.5 64t43 63.5t64.5 47.5
q45 23 92 24t85 -9.5t114 -38.5l31 -11q40 -14 55.5 -18.5t45 -4.5t50.5 13z" />
    <glyph glyph-name="endash" unicode="&#x2013;" horiz-adv-x="1607" 
d="M119 592v153h1321v-114q0 -33 -2 -39h-1319z" />
    <glyph glyph-name="emdash" unicode="&#x2014;" horiz-adv-x="1955" 
d="M119 797l2 2h1671v-168h-1671v31q0 65 -2 135z" />
    <glyph glyph-name="quoteleft" unicode="&#x2018;" horiz-adv-x="645" 
d="M154 1389q40 89 124.5 147t202.5 102v-71q-55 -25 -90 -45.5t-67 -50.5t-49 -70t-23 -94q33 3 63 4t61.5 -13.5t53.5 -46.5q19 -30 22 -72t-14 -77q-19 -38 -53 -60t-76 -24q-94 -7 -153 80q-39 66 -37.5 142.5t35.5 148.5z" />
    <glyph glyph-name="quoteright" unicode="&#x2019;" horiz-adv-x="647" 
d="M289 1090q-51 -33 -170 -80v69q54 24 88.5 44t68 50t50.5 70.5t20 93.5q-41 -10 -88.5 -1t-77.5 46q-49 52 -26 138q8 36 33 65.5t61 42.5q21 10 66.5 4t80.5 -33q90 -62 86 -196q-2 -92 -45 -169.5t-147 -143.5z" />
    <glyph glyph-name="quotesinglbase" unicode="&#x201a;" horiz-adv-x="651" 
d="M438 -121q-51 -89 -128.5 -143.5t-190.5 -93.5v69q10 5 32.5 16t35 17.5t30.5 17.5t34 23.5t32 28.5q41 41 61 77q0 1 4.5 13t6.5 19t4.5 18.5t1.5 20t-5 15.5q-25 -2 -51.5 0t-49.5 6.5t-44.5 21t-36.5 42.5q-17 31 -18.5 73t18.5 83q43 73 129 73q102 0 156 -92
q29 -51 22.5 -145t-43.5 -160z" />
    <glyph glyph-name="quotedblleft" unicode="&#x201c;" horiz-adv-x="1142" 
d="M154 1389q41 89 124 147t203 102v-69q-104 -42 -160 -101t-69 -161q62 8 105 -2.5t73 -57.5q19 -28 21 -68t-15 -77q-20 -39 -54 -60.5t-73 -23.5q-96 -7 -155 80q-38 61 -36 139.5t36 151.5zM631 1333q33 118 115.5 183.5t232.5 121.5v-69q-108 -44 -163 -100.5
t-68 -161.5q35 3 65 4t59.5 -13t53.5 -45q20 -26 23 -67.5t-11 -73.5q-15 -36 -46 -61t-69 -31q-37 -8 -79.5 5t-75.5 52q-41 46 -49 122.5t12 133.5z" />
    <glyph glyph-name="quotedblright" unicode="&#x201d;" horiz-adv-x="1001" 
d="M870 1262q-41 -88 -124 -146.5t-203 -101.5v69q104 42 160 100.5t69 159.5q-63 -6 -105.5 4.5t-72.5 57.5q-19 27 -21 67t15 76q20 39 54 61.5t73 24.5q94 7 155 -82q38 -60 36 -137.5t-36 -152.5zM393 1319q-33 -120 -116 -186t-232 -119v69q107 44 162.5 100.5
t68.5 159.5q-35 -2 -65 -2.5t-59.5 13t-53.5 43.5q-20 27 -23 69t11 74q15 35 46 59.5t69 32.5q93 16 155 -59q41 -46 49 -122.5t-12 -131.5z" />
    <glyph glyph-name="quotedblbase" unicode="&#x201e;" horiz-adv-x="1142" 
d="M256 -283q-19 -11 -37.5 -19.5t-29.5 -12.5t-35 -11.5t-35 -11.5v66q57 25 91.5 45t66.5 50.5t48.5 71.5t22.5 97q-32 -3 -60.5 -4.5t-58.5 11t-53 40.5q-22 24 -27.5 63t5.5 72q9 32 35.5 59.5t64.5 40.5q34 12 77 4.5t77 -34.5q40 -33 58 -91.5t13 -119.5
q-8 -102 -58.5 -177.5t-164.5 -138.5zM969 -29q-13 -51 -38 -93t-54.5 -72t-73.5 -57.5t-85 -46.5t-100 -42v72q113 52 162 96q43 50 56 82q20 70 8 82q-44 -10 -91 -0.5t-79 49.5q-23 27 -28.5 69t7.5 72q11 34 41.5 60.5t71.5 33.5q39 10 82.5 -3t77.5 -48
q29 -32 41.5 -80t11.5 -90.5t-10 -83.5z" />
    <glyph glyph-name="dagger" unicode="&#x2020;" horiz-adv-x="1280" 
d="M547 1163l-55 465h264l-60 -467l416 62v-271l-422 74l35 -227q20 -134 20.5 -140t-4.5 -139l-57 -799h-131l-59 789q-10 136 -9.5 144t25.5 151l39 223l-430 -70v273z" />
    <glyph glyph-name="daggerdbl" unicode="&#x2021;" horiz-adv-x="1282" 
d="M551 1155l-72 467h266l-57 -469l424 70v-273l-428 70l37 -184q8 -40 17.5 -87t11 -51.5t2 -31.5t-3 -33.5t-11.5 -50.5t-16 -90l-29 -177l426 70v-266l-430 65l64 -463h-265l66 465l-430 -67v268l428 -72l-31 172q-9 42 -19 89t-13 52.5t-3 34.5t2.5 34.5t12.5 52.5
t18 88l31 184l-430 -70v271z" />
    <glyph glyph-name="bullet" unicode="&#x2022;" horiz-adv-x="589" 
d="M121 651q-5 50 24 95.5t82 62.5q77 20 138 -31q30 -23 45 -57t10 -70q-3 -37 -24 -70t-56 -53q-67 -36 -135 0q-75 42 -84 123z" />
    <glyph glyph-name="perthousand" unicode="&#x2030;" horiz-adv-x="2549" 
d="M346 -29l879 1516h147l-885 -1514q-88 -2 -141 -2zM266 1395q47 39 123 59q73 17 164 -4t160 -84q71 -64 99 -149t15 -170q-11 -85 -59.5 -156t-136.5 -113q-70 -36 -164 -33t-174 52q-84 51 -127.5 129t-46.5 161q-3 80 31.5 165t115.5 143zM1823 645q52 39 121 57
q78 19 168.5 -2.5t158.5 -85.5q73 -68 99 -155.5t14 -169.5q-14 -85 -65.5 -156t-139.5 -110q-72 -35 -163.5 -31.5t-170.5 51.5q-83 51 -126 130t-48 167q-2 81 34.5 164.5t117.5 140.5zM950 567q59 70 140 107q65 30 160.5 23t166.5 -52q85 -52 127 -128.5t45 -160.5
q3 -78 -30 -160t-111 -143q-66 -51 -156 -65t-168 12q-87 29 -147 89.5t-88 146.5q-12 50 -14 104t17.5 116t57.5 111zM379 1251q-53 -36 -70.5 -87t-5.5 -101q12 -47 44.5 -81.5t78.5 -49.5q39 -13 83 -4.5t79 37.5q37 32 52.5 74.5t10.5 82.5q-7 47 -37 85.5t-73 58.5
q-87 36 -162 -15zM1987 528q-32 -6 -70 -36q-75 -69 -64 -158q11 -93 101 -144q74 -41 155 5q90 49 97 139q9 86 -64 153q-67 61 -155 41zM1143 500q-49 -31 -72 -88q-17 -37 -14.5 -80.5t22.5 -77.5q52 -83 142 -90q87 -6 147 63q55 64 37 154q-11 41 -40.5 75.5
t-70.5 51.5q-82 33 -151 -8z" />
    <glyph glyph-name="guilsinglleft" unicode="&#x2039;" horiz-adv-x="802" 
d="M119 514l270 360h244l-266 -356l268 -362h-240z" />
    <glyph glyph-name="guilsinglright" unicode="&#x203a;" horiz-adv-x="800" 
d="M387 518l-268 363l45 -2h201l270 -365l-279 -358h-237z" />
    <glyph glyph-name="fraction" unicode="&#x2044;" horiz-adv-x="2015" 
d="M637 1825v264h276v-264h-276zM1067 2079h283v-254h-283v254zM119 1597v31h485l-4 -31l-27 -10v-20l428 -594l402 559q4 9 9 17t7.5 11.5t4 10t1.5 16.5l-34 19v22h452v-31q-51 -18 -67 -29.5t-56 -64.5l-557 -796v-594q0 -50 2 -60q6 -14 10.5 -18.5t17.5 -6.5t21 -5
l-2 -23h-424v23q36 0 50 30q2 6 2.5 31.5t1.5 28.5v557l-617 852q-7 9 -15 20.5t-11 15.5l-7.5 10t-7.5 7.5t-6.5 4.5t-9 3.5t-11.5 2.5t-16.5 5t-21.5 6z" />
    <glyph glyph-name="trademark" unicode="&#x2122;" horiz-adv-x="2148" 
d="M119 1628q0 1 -0.5 6.5t0 7.5l1.5 6t4.5 5.5t8.5 1.5l6 -15l17 -10h741l23 19v-50v-73q0 -2 0.5 -12t0.5 -18t-1 -17.5t-3.5 -15t-7.5 -5.5l-8 21q-7 6 -15.5 8.5t-14 2.5t-17 -0.5t-16.5 -0.5h-74h-57h-107v-651l29 -33h-213l20 29v655h-284l-33 -23v39v82v41z
M1053 1602l-11 18h201h25h7q6 1 7.5 -0.5t1.5 -9.5l-24 -19q0 -29 14 -45l231 -444l262 487l-24 29q5 0 20 -2t21 -2h172q2 0 8 0.5t9 0.5t7 -1.5t5 -5.5l-21 -15q-5 -7 -7.5 -14.5t-3 -11t0 -17t0.5 -18.5v-658q0 -2 -0.5 -10.5t-1 -15.5t1.5 -16.5t6 -16.5l20 -18h-65h-47
h-51h-29q-2 0 -6.5 -0.5t-6 0t-4 1.5t-3.5 3.5t-1 7.5l17 6q12 12 12 59v469l-291 -544h-18l-285 549v-443v-45q0 -28 19 -45l14 -12h-203l10 12l11 4l10 8l4 13v49v700z" />
    <glyph glyph-name="partialdiff" unicode="&#x2202;" horiz-adv-x="2533" 
d="M641 -31l958 1663h154l-958 -1663h-154zM119 1540q10 3 14 2t8 -10l9 -10l10 -11q6 -2 12.5 -2t9.5 1t11 4t12 4q59 10 76 38q7 24 -2 38t-31 14l-2 14h303l2 -8l-2 -6q-9 0 -19 -6q-22 -13 -22 -31q-6 -13 -6 -66v-747q0 -50 4 -58q5 -19 10.5 -25.5t18.5 -9t16 -3.5
q0 -11 -4.5 -14t-16.5 -3h-12l-16 6h-266v15q47 0 47 39q3 4 3 17t-1.5 28t-1.5 16v606q-12 0 -26.5 2t-26.5 2t-27 -4q-6 -2 -17.5 -5t-14.5 -4t-9.5 -4.5t-9 -7.5t-6 -11t-7.5 -17h-20v217zM1892 950q0 6 1 9.5t2 5.5t4 3t4.5 1h6h5.5h35h270l-18 -23l-13 -10
q-6 -14 -6 -41v-569h37q53 0 102 2l25 37h20v-215h-16l-6 14q-6 5 -12 7.5t-13.5 3.5t-12 1.5t-13 0t-10.5 -0.5l-58 4h-37q-2 -7 -2 -47v-43q0 -42 2 -47q0 -7 1.5 -12t6 -8t7 -4t10 -3t8.5 -2v-14h-285v14q10 3 17 9t10.5 13t5 16t1.5 15t-0.5 14t-0.5 9v90h-614h-15.5
h-12.5t-9 -0.5t-9.5 -2.5t-9 -5t-12.5 -8l-6 -21h-20v183l657 606zM1970 752l-463 -424h463v424z" />
    <glyph glyph-name="summation" unicode="&#x2211;" horiz-adv-x="2613" 
d="M600 -33l956 1663h154l-956 -1663h-154zM160 1507q105 12 121 43q4 11 4.5 18.5t0 12t-5.5 8t-8 5t-12.5 4.5t-13.5 4v18h303l2 -10l-2 -8l-8 -3l-11 -2q-7 -3 -22 -28q-6 -13 -6 -72v-37q0 -10 2 -29t2 -24v-655q0 -55 2 -60q3 -10 9.5 -17t10.5 -9t14 -4l9 -3
q0 -10 -1.5 -12t-7.5 -2h-3h-29h-274v19q47 0 47 32q3 4 3 16t-1.5 26.5t-1.5 15.5v612q-6 7 -25.5 7t-35.5 -3l-17 -4q-46 0 -66 -45l-20 -4v221h20zM1683 211q-47 -34 -43 -51h707h47q12 0 23.5 6.5t11.5 19.5h20v-227h-16q-9 31 -39 31q-30 10 -49 10h-956
q2 71 22.5 129.5t52 102t83 82t105 67t128.5 59.5l135 60q2 1 34.5 14.5t62 28t64.5 35t59 44.5t28 48q10 52 -37 96q-28 26 -84 38.5t-107.5 11t-89.5 -10.5q-80 -18 -141 -60q-55 -38 -70 -59q-16 -22 -19 -34t5 -38l-12 -14l-181 182l17 15l26 -9q126 95 253.5 143.5
t261 44.5t253.5 -69q155 -84 146 -231q-5 -64 -31.5 -111.5t-84.5 -84t-97 -54.5t-127 -50q-19 -7 -29 -11l-164 -64q-71 -30 -112 -55q-47 -26 -56 -35z" />
    <glyph glyph-name="radical" unicode="&#x221a;" horiz-adv-x="1067" 
d="M373 1497l-252 326h246l143 -183l143 183h248l-250 -326h-278z" />
    <glyph glyph-name="infinity" unicode="&#x221e;" horiz-adv-x="1724" 
d="M123 1333v31h387v-31l-29 -12q-3 -10 2 -21t16.5 -25.5t14.5 -19.5l348 -450l363 495l-2 23l-27 12v29h365v-29q-9 0 -14.5 -1.5t-11 -6t-8 -7t-8.5 -12t-10 -14.5l-516 -710v-475q1 -4 1.5 -23t2.5 -25q0 -8 1.5 -14t6 -9t7.5 -4.5t10 -3t8 -1.5v-29h-340v31q35 0 35 39
v51v442l-545 721q-16 26 -25.5 33.5t-31.5 15.5zM567 1497l203 326h342l-330 -326h-215z" />
    <glyph glyph-name="integral" unicode="&#x222b;" horiz-adv-x="2750" 
d="M1124 1276q-19 -34 -44.5 -53t-78.5 -43q102 -46 133 -70q68 -52 78 -155v-3q16 -140 -114 -231q-90 -65 -242 -87.5t-297 -5t-244 61.5q-40 18 -43 21l-14 10l-10 4l-23 10q-7 7 -43 19q-27 8 -43 -11l-18 9l123 225l14 -6q0 -29 6.5 -42t38.5 -36q22 -22 84 -49
q84 -39 166 -51q37 -7 110 -9.5t167 14t131 58.5q46 43 26 105q-21 79 -139 110q-64 14 -158 19q-46 0 -80 -3q-60 0 -71 -36h-21v223l21 -2q4 -15 31 -24t48 -9q47 -3 87 0q134 13 174 41q54 33 51 84q-4 51 -78 86q-83 40 -219 27t-227 -70q-8 -3 -28 -17.5t-24 -21.5
q-4 -6 -9 -12.5t-6.5 -9t-3 -7.5t-0.5 -10t5 -14l-16 -10l-162 180l20 12q20 -12 32.5 -7.5t41.5 28.5q7 3 39 22t41 23q65 29 156 49q158 33 311 10q255 -31 327 -174q43 -92 -6 -172zM858 -31l957 1663h151l-952 -1663h-156zM2138 936l-29 35h326l-2 -19l-16 -2
q-8 -6 -12 -14.5t-4.5 -14t0.5 -18.5t1 -18v-516l2 -9v-12q0 -16 2 -22h88h41q16 6 20.5 11.5t12.5 27.5l19 -5v-210h-21l-4 12q-5 5 -12 8.5t-17 4.5t-16 1.5t-18.5 0t-14.5 -0.5q-75 0 -80 -2v-45v-51q0 -40 4 -49q3 -6 13 -9.5t12 -5.5l8 -4l-4 -10h-94h-64h-67l-33 -2
q-3 0 -8.5 -0.5t-7.5 -0.5t-4.5 1.5t-3.5 5t-1 10.5l33 27v135h-604h-45q-37 0 -37 -33l-22 7v174zM2187 752l-463 -426h463v426z" />
    </font>
</defs>
</svg>
