<svg width="63" height="26" viewBox="0 0 63 26" fill="none" xmlns="http://www.w3.org/2000/svg">
<path d="M50.0001 14.5492C51.8668 14.5492 53.3801 13.0359 53.3801 11.1692C53.3801 9.30243 51.8668 7.78915 50.0001 7.78915C48.1334 7.78915 46.6201 9.30243 46.6201 11.1692C46.6201 13.0359 48.1334 14.5492 50.0001 14.5492Z" stroke="#1C1C1C" stroke-width="1.5"/>
<path d="M40.9217 9.19749C43.0558 -0.184174 56.955 -0.173341 59.0783 9.20833C60.3242 14.7117 56.9008 19.37 53.9 22.2517C51.7225 24.3533 48.2775 24.3533 46.0892 22.2517C43.0992 19.37 39.6758 14.7008 40.9217 9.19749Z" stroke="#1C1C1C" stroke-width="1.5"/>
<path d="M23.8009 19.8575C23.8009 20.2475 23.7142 20.6483 23.5301 21.0383C23.3459 21.4283 23.1076 21.7967 22.7934 22.1433C22.2626 22.7283 21.6776 23.1508 21.0167 23.4217C20.3667 23.6925 19.6626 23.8333 18.9042 23.8333C17.7992 23.8333 16.6184 23.5733 15.3726 23.0425C14.1267 22.5117 12.8809 21.7967 11.6459 20.8975C10.4001 19.9875 9.21925 18.98 8.09258 17.8642C6.97675 16.7375 5.96925 15.5567 5.07008 14.3217C4.18175 13.0867 3.46675 11.8517 2.94675 10.6275C2.42675 9.39249 2.16675 8.21166 2.16675 7.08499C2.16675 6.34832 2.29675 5.64416 2.55675 4.99416C2.81675 4.33332 3.22841 3.72666 3.80258 3.18499C4.49591 2.50249 5.25425 2.16666 6.05591 2.16666C6.35925 2.16666 6.66258 2.23166 6.93341 2.36166C7.21508 2.49166 7.46425 2.68666 7.65925 2.96832L10.1726 6.51082C10.3676 6.78166 10.5084 7.03082 10.6059 7.26916C10.7034 7.49666 10.7576 7.72416 10.7576 7.92999C10.7576 8.18999 10.6817 8.44999 10.5301 8.69916C10.3892 8.94832 10.1834 9.20832 9.92341 9.46832L9.10008 10.3242C8.98091 10.4433 8.92675 10.5842 8.92675 10.7575C8.92675 10.8442 8.93758 10.92 8.95925 11.0067C8.99175 11.0933 9.02425 11.1583 9.04591 11.2233C9.24091 11.5808 9.57675 12.0467 10.0534 12.61C10.5409 13.1733 11.0609 13.7475 11.6242 14.3217C12.2092 14.8958 12.7726 15.4267 13.3467 15.9142C13.9101 16.3908 14.3759 16.7158 14.7442 16.9108C14.7984 16.9325 14.8634 16.965 14.9392 16.9975C15.0259 17.03 15.1126 17.0408 15.2101 17.0408C15.3942 17.0408 15.5351 16.9758 15.6542 16.8567L16.4776 16.0442C16.7484 15.7733 17.0084 15.5675 17.2576 15.4375C17.5067 15.2858 17.7559 15.21 18.0267 15.21C18.2326 15.21 18.4492 15.2533 18.6876 15.3508C18.9259 15.4483 19.1751 15.5892 19.4459 15.7733L23.0317 18.3192C23.3134 18.5142 23.5084 18.7417 23.6276 19.0125C23.7359 19.2833 23.8009 19.5542 23.8009 19.8575Z" stroke="#1C1C1C" stroke-width="1.5" stroke-miterlimit="10"/>
</svg>
